<svg xmlns="http://www.w3.org/2000/svg" viewBox="0 0 1320 5400" font-family="'Poppins','Inter',sans-serif">
  <!-- ==========================================================
       Staff CRUD · Web Vue · 4-frame poster
       A. School  — Staff list
       B. School  — Staff create/edit form
       C. Tutoring — Staff list (dark)
       D. Tutoring — Staff create/edit form (dark)
       Same AppShell shell (256 + 1024) as the RBAC mockups.
       ========================================================== -->
  <defs>
    <linearGradient id="heroSchool" x1="0" y1="0" x2="1" y2="0">
      <stop offset="0%" stop-color="#0A1F4D"/>
      <stop offset="55%" stop-color="#143068"/>
      <stop offset="100%" stop-color="#1B6FB8"/>
    </linearGradient>
    <linearGradient id="heroTutoring" x1="0" y1="0" x2="1" y2="0">
      <stop offset="0%" stop-color="#1B0F47"/>
      <stop offset="55%" stop-color="#3A1E9C"/>
      <stop offset="100%" stop-color="#21AFE6"/>
    </linearGradient>
    <linearGradient id="topbarSchool" x1="0" y1="0" x2="1" y2="0">
      <stop offset="0%" stop-color="#0A1F4D"/>
      <stop offset="100%" stop-color="#143068"/>
    </linearGradient>
    <linearGradient id="topbarTutoring" x1="0" y1="0" x2="1" y2="0">
      <stop offset="0%" stop-color="#0C0820"/>
      <stop offset="100%" stop-color="#3A1E9C"/>
    </linearGradient>
    <filter id="shadowLight" x="-10%" y="-10%" width="120%" height="120%">
      <feDropShadow dx="0" dy="4" stdDeviation="8" flood-color="#0f172a" flood-opacity="0.10"/>
    </filter>
    <filter id="shadowDark" x="-10%" y="-10%" width="120%" height="120%">
      <feDropShadow dx="0" dy="6" stdDeviation="12" flood-color="#000000" flood-opacity="0.45"/>
    </filter>
  </defs>

  <!-- Backdrop -->
  <rect width="1320" height="5400" fill="#F8FAFC"/>

  <!-- Poster title -->
  <text x="48" y="44" fill="#64748B" font-size="11" font-weight="700" letter-spacing="1.6">STAFF CRUD · WEB VUE · SCHOOL LIGHT + TUTORING DARK</text>
  <text x="48" y="68" fill="#0F172A" font-size="22" font-weight="900">Manajemen Staf (TU · Bendahara · Penjaga · Satpam · Front Desk)</text>
  <text x="48" y="92" fill="#64748B" font-size="11">Consumes existing StaffController CRUD (Phase C backend). Same AppShell + BrandPageHeader; palette follows the tenant.</text>
  <line x1="48" y1="108" x2="1272" y2="108" stroke="#E2E8F0" stroke-width="1"/>

  <!-- ============================================================
       FRAME A — SCHOOL · Staff list
       ============================================================ -->
  <g transform="translate(48, 140)">
    <text x="0" y="-8" fill="#64748B" font-size="10" font-weight="700" letter-spacing="1.4">A · SCHOOL · DAFTAR STAF · /admin/staff</text>

    <!-- Shell -->
    <rect x="0" y="0" width="1224" height="1200" rx="14" fill="#FFFFFF" stroke="#E2E8F0"/>

    <!-- Sidebar 256 -->
    <rect x="0" y="0" width="256" height="1200" rx="14" fill="#F8FAFC"/>
    <rect x="244" y="0" width="12" height="1200" fill="#F8FAFC"/>
    <rect x="16" y="20" width="224" height="40" rx="10" fill="url(#heroSchool)"/>
    <text x="36" y="46" fill="#FFFFFF" font-size="13" font-weight="900">KamilEdu</text>
    <text x="36" y="60" fill="rgba(255,255,255,0.7)" font-size="9">MI Al-Hidayah · admin</text>
    <text x="32" y="98" fill="#94A3B8" font-size="9" font-weight="700" letter-spacing="1.6">DATA MANAGEMENT</text>
    <g font-size="11" font-weight="600" fill="#475569">
      <text x="48" y="124">Siswa</text>
      <text x="48" y="150">Guru</text>
    </g>
    <!-- Selected: Staf -->
    <rect x="20" y="160" width="220" height="36" rx="8" fill="rgba(20,48,104,0.08)"/>
    <rect x="20" y="160" width="3" height="36" fill="#143068"/>
    <text x="48" y="182" fill="#143068" font-size="11" font-weight="800">Staf &amp; Personel</text>
    <g font-size="11" font-weight="600" fill="#475569">
      <text x="48" y="212">Kelas</text>
      <text x="48" y="238">Mata Pelajaran</text>
    </g>
    <text x="32" y="270" fill="#94A3B8" font-size="9" font-weight="700" letter-spacing="1.6">PENGATURAN</text>
    <g font-size="11" font-weight="600" fill="#475569">
      <text x="48" y="296">Pengaturan Sekolah</text>
      <text x="48" y="322">Role &amp; Permission</text>
    </g>

    <!-- Topbar 64 -->
    <rect x="256" y="0" width="968" height="64" rx="0" fill="url(#topbarSchool)"/>
    <text x="280" y="32" fill="rgba(255,255,255,0.8)" font-size="9" font-weight="700" letter-spacing="1.4">DATA MANAGEMENT</text>
    <text x="280" y="50" fill="#FFFFFF" font-size="14" font-weight="800">Staf &amp; Personel</text>
    <circle cx="1180" cy="32" r="14" fill="#1B6FB8"/>
    <text x="1180" y="36" fill="#FFFFFF" font-size="10" font-weight="700" text-anchor="middle">FA</text>

    <!-- Hero banner -->
    <g transform="translate(280, 88)">
      <rect width="920" height="120" rx="14" fill="url(#heroSchool)" filter="url(#shadowLight)"/>
      <text x="20" y="26" fill="rgba(255,255,255,0.85)" font-size="10" font-weight="700" letter-spacing="1.4">DATA MANAGEMENT</text>
      <text x="20" y="60" fill="#FFFFFF" font-size="24" font-weight="900">Staf &amp; Personel</text>
      <text x="20" y="84" fill="rgba(255,255,255,0.78)" font-size="12">Data non-guru yang perlu presensi · 8 aktif · 2 tidak aktif</text>
      <rect x="760" y="74" width="140" height="36" rx="10" fill="#FFFFFF"/>
      <text x="830" y="97" fill="#143068" font-size="12" font-weight="800" text-anchor="middle">+ Tambah Staf</text>
    </g>

    <!-- KPI strip -->
    <g transform="translate(280, 224)">
      <g><rect width="218" height="86" rx="14" fill="#FFFFFF" stroke="#E2E8F0"/>
         <rect x="14" y="14" width="32" height="32" rx="10" fill="#E8EEF7"/>
         <text x="14" y="62" fill="#94A3B8" font-size="9" font-weight="700" letter-spacing="1.2">TOTAL STAF</text>
         <text x="14" y="80" fill="#0F172A" font-size="22" font-weight="800">10</text></g>
      <g transform="translate(234, 0)"><rect width="218" height="86" rx="14" fill="#FFFFFF" stroke="#E2E8F0"/>
         <rect x="14" y="14" width="32" height="32" rx="10" fill="#D1FAE5"/>
         <text x="14" y="62" fill="#94A3B8" font-size="9" font-weight="700" letter-spacing="1.2">AKTIF</text>
         <text x="14" y="80" fill="#0F172A" font-size="22" font-weight="800">8</text></g>
      <g transform="translate(468, 0)"><rect width="218" height="86" rx="14" fill="#FFFFFF" stroke="#E2E8F0"/>
         <rect x="14" y="14" width="32" height="32" rx="10" fill="#FBEEDA"/>
         <text x="14" y="62" fill="#94A3B8" font-size="9" font-weight="700" letter-spacing="1.2">AKUN TERHUBUNG</text>
         <text x="14" y="80" fill="#0F172A" font-size="22" font-weight="800">6</text></g>
      <g transform="translate(702, 0)"><rect width="218" height="86" rx="14" fill="#FFFFFF" stroke="#E2E8F0"/>
         <rect x="14" y="14" width="32" height="32" rx="10" fill="#E2F4FD"/>
         <text x="14" y="62" fill="#94A3B8" font-size="9" font-weight="700" letter-spacing="1.2">HADIR HARI INI</text>
         <text x="14" y="80" fill="#0F172A" font-size="22" font-weight="800">7 / 8</text></g>
    </g>

    <!-- Toolbar -->
    <g transform="translate(280, 326)">
      <rect width="920" height="56" rx="14" fill="#FFFFFF" stroke="#E2E8F0"/>
      <!-- Jabatan filter chips -->
      <rect x="12" y="12" width="76" height="32" rx="8" fill="#143068"/>
      <text x="50" y="32" fill="#FFFFFF" font-size="11" font-weight="700" text-anchor="middle">Semua</text>
      <rect x="94" y="12" width="88" height="32" rx="8" fill="#F1F5F9"/>
      <text x="138" y="32" fill="#475569" font-size="11" font-weight="600" text-anchor="middle">Tata Usaha</text>
      <rect x="188" y="12" width="94" height="32" rx="8" fill="#F1F5F9"/>
      <text x="235" y="32" fill="#475569" font-size="11" font-weight="600" text-anchor="middle">Bendahara</text>
      <rect x="288" y="12" width="76" height="32" rx="8" fill="#F1F5F9"/>
      <text x="326" y="32" fill="#475569" font-size="11" font-weight="600" text-anchor="middle">Penjaga</text>
      <rect x="370" y="12" width="70" height="32" rx="8" fill="#F1F5F9"/>
      <text x="405" y="32" fill="#475569" font-size="11" font-weight="600" text-anchor="middle">Satpam</text>
      <!-- Status toggle -->
      <text x="480" y="32" fill="#94A3B8" font-size="10" font-weight="700">STATUS</text>
      <rect x="530" y="14" width="46" height="28" rx="14" fill="#16A34A"/>
      <circle cx="562" cy="28" r="10" fill="#FFFFFF"/>
      <text x="586" y="32" fill="#475569" font-size="11" font-weight="600">Aktif saja</text>
      <!-- Search -->
      <rect x="700" y="12" width="208" height="32" rx="10" fill="#F8FAFC" stroke="#E2E8F0"/>
      <text x="716" y="32" fill="#94A3B8" font-size="11" font-weight="500">🔍  Cari nama / NIP …</text>
    </g>

    <!-- Table header row -->
    <g transform="translate(280, 400)">
      <rect width="920" height="36" rx="10" fill="#F8FAFC"/>
      <text x="60" y="22" fill="#64748B" font-size="10" font-weight="700" letter-spacing="1.4">NAMA · NIP</text>
      <text x="410" y="22" fill="#64748B" font-size="10" font-weight="700" letter-spacing="1.4">JABATAN</text>
      <text x="580" y="22" fill="#64748B" font-size="10" font-weight="700" letter-spacing="1.4">KONTAK</text>
      <text x="740" y="22" fill="#64748B" font-size="10" font-weight="700" letter-spacing="1.4">AKUN</text>
      <text x="830" y="22" fill="#64748B" font-size="10" font-weight="700" letter-spacing="1.4">STATUS</text>
    </g>

    <!-- Row 1 -->
    <g transform="translate(280, 448)">
      <rect width="920" height="72" rx="12" fill="#FFFFFF" stroke="#E2E8F0"/>
      <circle cx="34" cy="36" r="20" fill="#E89C2A"/>
      <text x="34" y="40" fill="#FFFFFF" font-size="12" font-weight="800" text-anchor="middle">BS</text>
      <text x="66" y="30" fill="#0F172A" font-size="13" font-weight="800">Bu Sri Wahyuni</text>
      <text x="66" y="48" fill="#64748B" font-size="10">NIP 197203121994032001</text>
      <rect x="400" y="24" width="90" height="22" rx="10" fill="#FBEEDA"/>
      <text x="445" y="39" fill="#A2660D" font-size="10" font-weight="800" text-anchor="middle">Bendahara</text>
      <text x="580" y="30" fill="#0F172A" font-size="11">0812-3456-7890</text>
      <text x="580" y="48" fill="#64748B" font-size="10">sri@alhidayah.sch.id</text>
      <rect x="740" y="24" width="66" height="22" rx="10" fill="#D1FAE5"/>
      <text x="773" y="39" fill="#15803D" font-size="10" font-weight="800" text-anchor="middle">✓ Login</text>
      <rect x="828" y="24" width="52" height="22" rx="10" fill="#D1FAE5"/>
      <text x="854" y="39" fill="#15803D" font-size="10" font-weight="800" text-anchor="middle">AKTIF</text>
      <rect x="892" y="24" width="20" height="22" rx="6" fill="#F1F5F9"/>
      <text x="902" y="41" fill="#64748B" font-size="12" font-weight="800" text-anchor="middle">⋯</text>
    </g>

    <!-- Row 2 -->
    <g transform="translate(280, 528)">
      <rect width="920" height="72" rx="12" fill="#FFFFFF" stroke="#E2E8F0"/>
      <circle cx="34" cy="36" r="20" fill="#1B6FB8"/>
      <text x="34" y="40" fill="#FFFFFF" font-size="12" font-weight="800" text-anchor="middle">PB</text>
      <text x="66" y="30" fill="#0F172A" font-size="13" font-weight="800">Pak Budi Santoso</text>
      <text x="66" y="48" fill="#64748B" font-size="10">NIP 198504151998031002</text>
      <rect x="400" y="24" width="88" height="22" rx="10" fill="#E8EEF7"/>
      <text x="444" y="39" fill="#143068" font-size="10" font-weight="800" text-anchor="middle">Tata Usaha</text>
      <text x="580" y="30" fill="#0F172A" font-size="11">0813-8765-4321</text>
      <text x="580" y="48" fill="#64748B" font-size="10">budi@alhidayah.sch.id</text>
      <rect x="740" y="24" width="66" height="22" rx="10" fill="#D1FAE5"/>
      <text x="773" y="39" fill="#15803D" font-size="10" font-weight="800" text-anchor="middle">✓ Login</text>
      <rect x="828" y="24" width="52" height="22" rx="10" fill="#D1FAE5"/>
      <text x="854" y="39" fill="#15803D" font-size="10" font-weight="800" text-anchor="middle">AKTIF</text>
      <rect x="892" y="24" width="20" height="22" rx="6" fill="#F1F5F9"/>
      <text x="902" y="41" fill="#64748B" font-size="12" font-weight="800" text-anchor="middle">⋯</text>
    </g>

    <!-- Row 3 -->
    <g transform="translate(280, 608)">
      <rect width="920" height="72" rx="12" fill="#FFFFFF" stroke="#E2E8F0"/>
      <circle cx="34" cy="36" r="20" fill="#7C5CFF"/>
      <text x="34" y="40" fill="#FFFFFF" font-size="12" font-weight="800" text-anchor="middle">MR</text>
      <text x="66" y="30" fill="#0F172A" font-size="13" font-weight="800">M. Rahmat</text>
      <text x="66" y="48" fill="#64748B" font-size="10">NIP —  ·  belum ada NIP</text>
      <rect x="400" y="24" width="74" height="22" rx="10" fill="#F1F5F9"/>
      <text x="437" y="39" fill="#475569" font-size="10" font-weight="800" text-anchor="middle">Penjaga</text>
      <text x="580" y="30" fill="#0F172A" font-size="11">0857-2222-1111</text>
      <text x="580" y="48" fill="#64748B" font-size="10">— · belum ada email</text>
      <rect x="740" y="24" width="72" height="22" rx="10" fill="#FEF3C7"/>
      <text x="776" y="39" fill="#A2660D" font-size="10" font-weight="800" text-anchor="middle">Manual</text>
      <rect x="828" y="24" width="52" height="22" rx="10" fill="#D1FAE5"/>
      <text x="854" y="39" fill="#15803D" font-size="10" font-weight="800" text-anchor="middle">AKTIF</text>
      <rect x="892" y="24" width="20" height="22" rx="6" fill="#F1F5F9"/>
      <text x="902" y="41" fill="#64748B" font-size="12" font-weight="800" text-anchor="middle">⋯</text>
    </g>

    <!-- Row 4 -->
    <g transform="translate(280, 688)">
      <rect width="920" height="72" rx="12" fill="#FFFFFF" stroke="#E2E8F0"/>
      <circle cx="34" cy="36" r="20" fill="#16A34A"/>
      <text x="34" y="40" fill="#FFFFFF" font-size="12" font-weight="800" text-anchor="middle">HI</text>
      <text x="66" y="30" fill="#0F172A" font-size="13" font-weight="800">H. Ibrahim</text>
      <text x="66" y="48" fill="#64748B" font-size="10">NIP 196812301985031005</text>
      <rect x="400" y="24" width="68" height="22" rx="10" fill="#F1F5F9"/>
      <text x="434" y="39" fill="#475569" font-size="10" font-weight="800" text-anchor="middle">Satpam</text>
      <text x="580" y="30" fill="#0F172A" font-size="11">0811-9999-2222</text>
      <text x="580" y="48" fill="#64748B" font-size="10">— · manual entry</text>
      <rect x="740" y="24" width="72" height="22" rx="10" fill="#FEF3C7"/>
      <text x="776" y="39" fill="#A2660D" font-size="10" font-weight="800" text-anchor="middle">Manual</text>
      <rect x="828" y="24" width="52" height="22" rx="10" fill="#D1FAE5"/>
      <text x="854" y="39" fill="#15803D" font-size="10" font-weight="800" text-anchor="middle">AKTIF</text>
      <rect x="892" y="24" width="20" height="22" rx="6" fill="#F1F5F9"/>
      <text x="902" y="41" fill="#64748B" font-size="12" font-weight="800" text-anchor="middle">⋯</text>
    </g>

    <!-- Row 5 (inactive) -->
    <g transform="translate(280, 768)">
      <rect width="920" height="72" rx="12" fill="#F8FAFC" stroke="#E2E8F0"/>
      <circle cx="34" cy="36" r="20" fill="#94A3B8"/>
      <text x="34" y="40" fill="#FFFFFF" font-size="12" font-weight="800" text-anchor="middle">SA</text>
      <text x="66" y="30" fill="#64748B" font-size="13" font-weight="800">Siti Aminah</text>
      <text x="66" y="48" fill="#94A3B8" font-size="10">NIP 197907152003032010  ·  keluar 2026-03-01</text>
      <rect x="400" y="24" width="88" height="22" rx="10" fill="#F1F5F9"/>
      <text x="444" y="39" fill="#94A3B8" font-size="10" font-weight="800" text-anchor="middle">Tata Usaha</text>
      <text x="580" y="30" fill="#94A3B8" font-size="11">0813-1111-3333</text>
      <text x="580" y="48" fill="#94A3B8" font-size="10">siti@alhidayah.sch.id</text>
      <rect x="740" y="24" width="66" height="22" rx="10" fill="#F1F5F9"/>
      <text x="773" y="39" fill="#94A3B8" font-size="10" font-weight="800" text-anchor="middle">Nonaktif</text>
      <rect x="828" y="24" width="70" height="22" rx="10" fill="#FEE2E2"/>
      <text x="863" y="39" fill="#991B1B" font-size="10" font-weight="800" text-anchor="middle">RESIGN</text>
      <rect x="908" y="24" width="4" height="22" rx="2" fill="#F1F5F9"/>
    </g>

    <!-- Pagination -->
    <g transform="translate(280, 856)">
      <text x="0" y="14" fill="#64748B" font-size="11">Menampilkan 1–5 dari 10</text>
      <rect x="700" y="0" width="70" height="28" rx="8" fill="#FFFFFF" stroke="#E2E8F0"/>
      <text x="735" y="18" fill="#475569" font-size="11" font-weight="700" text-anchor="middle">← Prev</text>
      <rect x="778" y="0" width="70" height="28" rx="8" fill="#143068"/>
      <text x="813" y="18" fill="#FFFFFF" font-size="11" font-weight="700" text-anchor="middle">Next →</text>
    </g>

    <text x="280" y="920" fill="#94A3B8" font-size="10">Container 1024 · zebra rows only on inactive staff · same shell as /admin/students &amp; /admin/teachers.</text>
  </g>

  <!-- ============================================================
       FRAME B — SCHOOL · Staff create/edit form
       ============================================================ -->
  <g transform="translate(48, 1420)">
    <text x="0" y="-8" fill="#64748B" font-size="10" font-weight="700" letter-spacing="1.4">B · SCHOOL · TAMBAH / EDIT STAF · /admin/staff/new · /admin/staff/:id/edit</text>

    <rect x="0" y="0" width="1224" height="1240" rx="14" fill="#FFFFFF" stroke="#E2E8F0"/>
    <rect x="0" y="0" width="256" height="1240" rx="14" fill="#F8FAFC"/>
    <rect x="244" y="0" width="12" height="1240" fill="#F8FAFC"/>
    <rect x="16" y="20" width="224" height="40" rx="10" fill="url(#heroSchool)"/>
    <text x="36" y="46" fill="#FFFFFF" font-size="13" font-weight="900">KamilEdu</text>
    <text x="36" y="60" fill="rgba(255,255,255,0.7)" font-size="9">MI Al-Hidayah · admin</text>
    <rect x="20" y="90" width="220" height="36" rx="8" fill="rgba(20,48,104,0.08)"/>
    <rect x="20" y="90" width="3" height="36" fill="#143068"/>
    <text x="48" y="112" fill="#143068" font-size="11" font-weight="800">Staf &amp; Personel</text>

    <rect x="256" y="0" width="968" height="64" fill="url(#topbarSchool)"/>
    <text x="280" y="32" fill="rgba(255,255,255,0.8)" font-size="9" font-weight="700" letter-spacing="1.4">DATA MANAGEMENT / STAF</text>
    <text x="280" y="50" fill="#FFFFFF" font-size="14" font-weight="800">Tambah Staf Baru</text>

    <!-- Hero mini -->
    <g transform="translate(280, 88)">
      <rect width="920" height="88" rx="14" fill="url(#heroSchool)" filter="url(#shadowLight)"/>
      <text x="20" y="26" fill="rgba(255,255,255,0.85)" font-size="10" font-weight="700" letter-spacing="1.4">DATA MANAGEMENT / STAF</text>
      <text x="20" y="54" fill="#FFFFFF" font-size="20" font-weight="900">Tambah Staf Baru</text>
      <text x="20" y="76" fill="rgba(255,255,255,0.78)" font-size="11">Non-guru — TU, bendahara, penjaga, satpam, front office</text>
      <rect x="760" y="42" width="140" height="36" rx="10" fill="rgba(255,255,255,0.16)" stroke="rgba(255,255,255,0.32)"/>
      <text x="830" y="65" fill="#FFFFFF" font-size="12" font-weight="700" text-anchor="middle">← Kembali</text>
    </g>

    <!-- Two-column form. Left 620, right 280 (photo + tips) -->

    <!-- SECTION 1: Identitas -->
    <g transform="translate(280, 200)">
      <rect width="620" height="316" rx="14" fill="#FFFFFF" stroke="#E2E8F0"/>
      <text x="20" y="30" fill="#94A3B8" font-size="10" font-weight="700" letter-spacing="1.4">1 · IDENTITAS</text>
      <!-- Nama -->
      <text x="20" y="60" fill="#0F172A" font-size="12" font-weight="700">Nama Lengkap *</text>
      <rect x="20" y="70" width="580" height="40" rx="10" fill="#FFFFFF" stroke="#E2E8F0"/>
      <text x="34" y="94" fill="#0F172A" font-size="13" font-weight="700">Bu Sri Wahyuni</text>
      <!-- NIP -->
      <text x="20" y="132" fill="#0F172A" font-size="12" font-weight="700">NIP <tspan fill="#94A3B8" font-weight="500">(opsional untuk staff non-PNS)</tspan></text>
      <rect x="20" y="142" width="380" height="40" rx="10" fill="#FFFFFF" stroke="#E2E8F0"/>
      <text x="34" y="166" fill="#0F172A" font-family="ui-monospace,Menlo,monospace" font-size="12">197203121994032001</text>
      <!-- Gender + Tgl lahir -->
      <text x="20" y="204" fill="#0F172A" font-size="12" font-weight="700">Jenis Kelamin *</text>
      <rect x="20" y="214" width="184" height="40" rx="10" fill="#143068"/>
      <text x="112" y="238" fill="#FFFFFF" font-size="12" font-weight="700" text-anchor="middle">Perempuan</text>
      <rect x="208" y="214" width="184" height="40" rx="10" fill="#FFFFFF" stroke="#E2E8F0"/>
      <text x="300" y="238" fill="#475569" font-size="12" font-weight="700" text-anchor="middle">Laki-laki</text>
      <text x="416" y="204" fill="#0F172A" font-size="12" font-weight="700">Tanggal Lahir</text>
      <rect x="416" y="214" width="184" height="40" rx="10" fill="#FFFFFF" stroke="#E2E8F0"/>
      <text x="430" y="238" fill="#0F172A" font-size="12" font-weight="700">12 / 03 / 1972</text>
      <!-- Alamat -->
      <text x="20" y="278" fill="#0F172A" font-size="12" font-weight="700">Alamat</text>
      <rect x="20" y="288" width="580" height="18" rx="6" fill="#FFFFFF" stroke="#E2E8F0"/>
      <text x="34" y="302" fill="#475569" font-size="11">Jl. Pahlawan 24, Rt 02 Rw 05, Sumberejo</text>
    </g>

    <!-- SECTION 2: Peran -->
    <g transform="translate(280, 532)">
      <rect width="620" height="260" rx="14" fill="#FFFFFF" stroke="#E2E8F0"/>
      <text x="20" y="30" fill="#94A3B8" font-size="10" font-weight="700" letter-spacing="1.4">2 · PERAN &amp; PRESENSI</text>
      <!-- Jabatan -->
      <text x="20" y="60" fill="#0F172A" font-size="12" font-weight="700">Jabatan *</text>
      <rect x="20" y="70" width="580" height="40" rx="10" fill="#FFFFFF" stroke="#E2E8F0"/>
      <text x="34" y="94" fill="#0F172A" font-size="13" font-weight="700">Bendahara Sekolah</text>
      <text x="586" y="94" fill="#94A3B8" font-size="12" font-weight="700" text-anchor="end">▾</text>
      <text x="20" y="128" fill="#94A3B8" font-size="10">Pilih dari: Tata Usaha · Bendahara · Penjaga · Satpam · Front Office · Kepala TU · Lainnya</text>
      <!-- Shift presensi -->
      <text x="20" y="158" fill="#0F172A" font-size="12" font-weight="700">Shift Presensi</text>
      <rect x="20" y="168" width="184" height="40" rx="10" fill="#143068"/>
      <text x="112" y="192" fill="#FFFFFF" font-size="12" font-weight="700" text-anchor="middle">Pagi (07:00-14:00)</text>
      <rect x="208" y="168" width="184" height="40" rx="10" fill="#FFFFFF" stroke="#E2E8F0"/>
      <text x="300" y="192" fill="#475569" font-size="11" font-weight="700" text-anchor="middle">Siang (11:00-18:00)</text>
      <rect x="396" y="168" width="204" height="40" rx="10" fill="#FFFFFF" stroke="#E2E8F0"/>
      <text x="498" y="192" fill="#475569" font-size="11" font-weight="700" text-anchor="middle">Ikuti pengaturan sekolah</text>
      <!-- Tanggal mulai -->
      <text x="20" y="232" fill="#0F172A" font-size="12" font-weight="700">Mulai Bekerja</text>
      <rect x="20" y="242" width="200" height="18" rx="6" fill="#FFFFFF" stroke="#E2E8F0"/>
      <text x="34" y="256" fill="#0F172A" font-size="11" font-weight="600">15 Juni 1994</text>
    </g>

    <!-- SECTION 3: Akun -->
    <g transform="translate(280, 808)">
      <rect width="620" height="220" rx="14" fill="#FFFFFF" stroke="#E2E8F0"/>
      <text x="20" y="30" fill="#94A3B8" font-size="10" font-weight="700" letter-spacing="1.4">3 · AKUN &amp; KONTAK</text>
      <!-- Buat akun toggle -->
      <text x="20" y="60" fill="#0F172A" font-size="12" font-weight="700">Buat akun login untuk presensi?</text>
      <rect x="340" y="46" width="46" height="24" rx="12" fill="#16A34A"/>
      <circle cx="374" cy="58" r="9" fill="#FFFFFF"/>
      <text x="400" y="62" fill="#475569" font-size="11">Ya, kirim OTP ke HP/email</text>
      <!-- Email -->
      <text x="20" y="102" fill="#0F172A" font-size="12" font-weight="700">Email *</text>
      <rect x="20" y="112" width="580" height="40" rx="10" fill="#FFFFFF" stroke="#E2E8F0"/>
      <text x="34" y="136" fill="#0F172A" font-size="12" font-weight="600">sri.wahyuni@alhidayah.sch.id</text>
      <!-- Nomor HP -->
      <text x="20" y="174" fill="#0F172A" font-size="12" font-weight="700">Nomor HP *</text>
      <rect x="20" y="184" width="380" height="30" rx="10" fill="#FFFFFF" stroke="#E2E8F0"/>
      <text x="34" y="204" fill="#0F172A" font-size="12" font-weight="600">0812-3456-7890</text>
      <rect x="414" y="184" width="186" height="30" rx="10" fill="#E8EEF7" stroke="rgba(20,48,104,0.24)"/>
      <text x="507" y="204" fill="#143068" font-size="11" font-weight="700" text-anchor="middle">Kirim OTP verifikasi →</text>
    </g>

    <!-- RIGHT COLUMN: photo + status + tips -->
    <g transform="translate(920, 200)">
      <rect width="280" height="220" rx="14" fill="#FFFFFF" stroke="#E2E8F0"/>
      <text x="20" y="30" fill="#94A3B8" font-size="10" font-weight="700" letter-spacing="1.4">FOTO</text>
      <circle cx="140" cy="110" r="52" fill="#E89C2A"/>
      <text x="140" y="118" fill="#FFFFFF" font-size="30" font-weight="800" text-anchor="middle">BS</text>
      <rect x="60" y="170" width="160" height="34" rx="10" fill="#F1F5F9"/>
      <text x="140" y="192" fill="#143068" font-size="11" font-weight="700" text-anchor="middle">📷 Unggah foto</text>
    </g>
    <g transform="translate(920, 436)">
      <rect width="280" height="160" rx="14" fill="#FFFFFF" stroke="#E2E8F0"/>
      <text x="20" y="30" fill="#94A3B8" font-size="10" font-weight="700" letter-spacing="1.4">STATUS</text>
      <rect x="20" y="46" width="240" height="42" rx="10" fill="#D1FAE5"/>
      <text x="34" y="72" fill="#15803D" font-size="12" font-weight="800">● Aktif — Terhitung dalam presensi</text>
      <rect x="20" y="98" width="240" height="42" rx="10" fill="#FFFFFF" stroke="#E2E8F0"/>
      <text x="34" y="124" fill="#475569" font-size="12" font-weight="600">○ Nonaktif — Resign / cuti panjang</text>
    </g>
    <g transform="translate(920, 612)">
      <rect width="280" height="180" rx="14" fill="rgba(20,48,104,0.06)"/>
      <text x="20" y="30" fill="#143068" font-size="10" font-weight="700" letter-spacing="1.4">TIPS</text>
      <text x="20" y="54" fill="#0F172A" font-size="11" font-weight="600">Setelah menyimpan:</text>
      <text x="20" y="76" fill="#475569" font-size="11">1. Staf ini muncul di role</text>
      <text x="20" y="92" fill="#475569" font-size="11">   <tspan fill="#143068" font-weight="700">"Staff"</tspan> secara otomatis.</text>
      <text x="20" y="120" fill="#475569" font-size="11">2. Untuk permission khusus,</text>
      <text x="20" y="136" fill="#475569" font-size="11">   bikin role kustom di menu</text>
      <text x="20" y="152" fill="#143068" font-size="11" font-weight="700">   Role &amp; Permission</text>
      <text x="20" y="168" fill="#475569" font-size="11">   lalu tugaskan staf ini.</text>
    </g>

    <!-- Save bar -->
    <g transform="translate(280, 1060)">
      <rect width="920" height="60" rx="14" fill="#FFFFFF" stroke="#E2E8F0" filter="url(#shadowLight)"/>
      <text x="20" y="36" fill="#64748B" font-size="11">3 field wajib · 1 belum diisi (Alamat opsional)</text>
      <rect x="660" y="14" width="100" height="32" rx="10" fill="#FFFFFF" stroke="#E2E8F0"/>
      <text x="710" y="34" fill="#0F172A" font-size="12" font-weight="700" text-anchor="middle">Batal</text>
      <rect x="772" y="14" width="136" height="32" rx="10" fill="#143068"/>
      <text x="840" y="34" fill="#FFFFFF" font-size="12" font-weight="800" text-anchor="middle">Simpan &amp; Kirim OTP</text>
    </g>

    <text x="280" y="1180" fill="#94A3B8" font-size="10">Same three-section layout on /admin/staff/:id/edit — plus a "Reset password" section replacing the OTP CTA and a Delete action in the top-right kebab.</text>
  </g>

  <!-- ============================================================
       FRAME C — TUTORING · Staff list (dark)
       ============================================================ -->
  <g transform="translate(48, 2820)">
    <text x="0" y="-8" fill="#94A3B8" font-size="10" font-weight="700" letter-spacing="1.4">C · TUTORING · DAFTAR STAF · /admin/staff (dark)</text>

    <rect x="0" y="0" width="1224" height="1080" rx="14" fill="#10162A" stroke="#1B2235"/>
    <rect x="0" y="0" width="256" height="1080" rx="14" fill="#0A0F1F"/>
    <rect x="244" y="0" width="12" height="1080" fill="#0A0F1F"/>
    <rect x="16" y="20" width="224" height="40" rx="10" fill="url(#heroTutoring)"/>
    <text x="36" y="46" fill="#FFFFFF" font-size="13" font-weight="900">KamilEdu · Bimbel</text>
    <text x="36" y="60" fill="rgba(255,255,255,0.7)" font-size="9">Bimbel Cendekia · admin</text>
    <rect x="20" y="90" width="220" height="36" rx="8" fill="rgba(33,175,230,0.16)"/>
    <rect x="20" y="90" width="3" height="36" fill="#21AFE6"/>
    <text x="48" y="112" fill="#21AFE6" font-size="11" font-weight="800">Staf &amp; Front Desk</text>

    <rect x="256" y="0" width="968" height="64" fill="url(#topbarTutoring)"/>
    <text x="280" y="32" fill="#94A3B8" font-size="9" font-weight="700" letter-spacing="1.4">DATA · STAF</text>
    <text x="280" y="50" fill="#FFFFFF" font-size="14" font-weight="800">Staf &amp; Front Desk</text>

    <!-- Hero -->
    <g transform="translate(280, 88)">
      <rect width="920" height="120" rx="14" fill="url(#heroTutoring)" filter="url(#shadowDark)"/>
      <text x="20" y="26" fill="rgba(255,255,255,0.85)" font-size="10" font-weight="700" letter-spacing="1.4">DATA · STAF</text>
      <text x="20" y="60" fill="#FFFFFF" font-size="24" font-weight="900">Staf &amp; Front Desk</text>
      <text x="20" y="84" fill="rgba(255,255,255,0.78)" font-size="12">Non-tutor: Front Desk, Kasir, Marketing, Kebersihan · 6 aktif</text>
      <rect x="760" y="74" width="140" height="36" rx="10" fill="#FFFFFF"/>
      <text x="830" y="97" fill="#1B0F47" font-size="12" font-weight="800" text-anchor="middle">+ Tambah Staf</text>
    </g>

    <!-- KPI (dark) -->
    <g transform="translate(280, 224)">
      <g><rect width="218" height="86" rx="14" fill="#10162A" stroke="#1B2235"/>
         <rect x="14" y="14" width="32" height="32" rx="10" fill="rgba(33,175,230,0.18)"/>
         <text x="14" y="62" fill="#94A3B8" font-size="9" font-weight="700" letter-spacing="1.2">TOTAL STAF</text>
         <text x="14" y="80" fill="#FFFFFF" font-size="22" font-weight="800">6</text></g>
      <g transform="translate(234, 0)"><rect width="218" height="86" rx="14" fill="#10162A" stroke="#1B2235"/>
         <rect x="14" y="14" width="32" height="32" rx="10" fill="rgba(22,163,74,0.24)"/>
         <text x="14" y="62" fill="#94A3B8" font-size="9" font-weight="700" letter-spacing="1.2">AKUN LOGIN</text>
         <text x="14" y="80" fill="#FFFFFF" font-size="22" font-weight="800">5</text></g>
      <g transform="translate(468, 0)"><rect width="218" height="86" rx="14" fill="#10162A" stroke="#1B2235"/>
         <rect x="14" y="14" width="32" height="32" rx="10" fill="rgba(232,156,42,0.2)"/>
         <text x="14" y="62" fill="#94A3B8" font-size="9" font-weight="700" letter-spacing="1.2">MANUAL ENTRY</text>
         <text x="14" y="80" fill="#FFFFFF" font-size="22" font-weight="800">1</text></g>
      <g transform="translate(702, 0)"><rect width="218" height="86" rx="14" fill="#10162A" stroke="#1B2235"/>
         <rect x="14" y="14" width="32" height="32" rx="10" fill="rgba(124,92,255,0.24)"/>
         <text x="14" y="62" fill="#94A3B8" font-size="9" font-weight="700" letter-spacing="1.2">HADIR HARI INI</text>
         <text x="14" y="80" fill="#FFFFFF" font-size="22" font-weight="800">5 / 6</text></g>
    </g>

    <!-- Toolbar (dark) -->
    <g transform="translate(280, 326)">
      <rect width="920" height="56" rx="14" fill="#10162A" stroke="#1B2235"/>
      <rect x="12" y="12" width="76" height="32" rx="8" fill="#21AFE6"/>
      <text x="50" y="32" fill="#0B0E1A" font-size="11" font-weight="800" text-anchor="middle">Semua</text>
      <rect x="94" y="12" width="88" height="32" rx="8" fill="#0B1227"/>
      <text x="138" y="32" fill="#94A3B8" font-size="11" font-weight="600" text-anchor="middle">Front Desk</text>
      <rect x="188" y="12" width="70" height="32" rx="8" fill="#0B1227"/>
      <text x="223" y="32" fill="#94A3B8" font-size="11" font-weight="600" text-anchor="middle">Kasir</text>
      <rect x="264" y="12" width="88" height="32" rx="8" fill="#0B1227"/>
      <text x="308" y="32" fill="#94A3B8" font-size="11" font-weight="600" text-anchor="middle">Marketing</text>
      <rect x="700" y="12" width="208" height="32" rx="10" fill="#0B1227" stroke="#1B2235"/>
      <text x="716" y="32" fill="#94A3B8" font-size="11" font-weight="500">🔍  Cari nama / posisi …</text>
    </g>

    <!-- Table rows (dark) -->
    <g transform="translate(280, 400)">
      <rect width="920" height="36" rx="10" fill="#0B1227"/>
      <text x="60" y="22" fill="#94A3B8" font-size="10" font-weight="700" letter-spacing="1.4">NAMA</text>
      <text x="410" y="22" fill="#94A3B8" font-size="10" font-weight="700" letter-spacing="1.4">POSISI</text>
      <text x="580" y="22" fill="#94A3B8" font-size="10" font-weight="700" letter-spacing="1.4">KONTAK</text>
      <text x="740" y="22" fill="#94A3B8" font-size="10" font-weight="700" letter-spacing="1.4">AKUN</text>
      <text x="830" y="22" fill="#94A3B8" font-size="10" font-weight="700" letter-spacing="1.4">STATUS</text>
    </g>
    <g transform="translate(280, 448)">
      <rect width="920" height="72" rx="12" fill="#10162A" stroke="#1B2235"/>
      <circle cx="34" cy="36" r="20" fill="#21AFE6"/>
      <text x="34" y="40" fill="#FFFFFF" font-size="12" font-weight="800" text-anchor="middle">LN</text>
      <text x="66" y="30" fill="#FFFFFF" font-size="13" font-weight="800">Lisa Nadya</text>
      <text x="66" y="48" fill="#94A3B8" font-size="10">bergabung 2025-01-15</text>
      <rect x="400" y="24" width="94" height="22" rx="10" fill="rgba(33,175,230,0.18)"/>
      <text x="447" y="39" fill="#21AFE6" font-size="10" font-weight="800" text-anchor="middle">Front Desk</text>
      <text x="580" y="30" fill="#F1F5F9" font-size="11">0812-1111-2222</text>
      <text x="580" y="48" fill="#94A3B8" font-size="10">lisa@bimbelcendekia.id</text>
      <rect x="740" y="24" width="66" height="22" rx="10" fill="rgba(22,163,74,0.24)"/>
      <text x="773" y="39" fill="#22C55E" font-size="10" font-weight="800" text-anchor="middle">✓ Login</text>
      <rect x="828" y="24" width="52" height="22" rx="10" fill="rgba(22,163,74,0.24)"/>
      <text x="854" y="39" fill="#22C55E" font-size="10" font-weight="800" text-anchor="middle">AKTIF</text>
    </g>
    <g transform="translate(280, 528)">
      <rect width="920" height="72" rx="12" fill="#10162A" stroke="#1B2235"/>
      <circle cx="34" cy="36" r="20" fill="#7C5CFF"/>
      <text x="34" y="40" fill="#FFFFFF" font-size="12" font-weight="800" text-anchor="middle">RA</text>
      <text x="66" y="30" fill="#FFFFFF" font-size="13" font-weight="800">Rio Anggara</text>
      <text x="66" y="48" fill="#94A3B8" font-size="10">bergabung 2024-08-01</text>
      <rect x="400" y="24" width="70" height="22" rx="10" fill="rgba(124,92,255,0.24)"/>
      <text x="435" y="39" fill="#A8A0FF" font-size="10" font-weight="800" text-anchor="middle">Kasir</text>
      <text x="580" y="30" fill="#F1F5F9" font-size="11">0855-9999-0000</text>
      <text x="580" y="48" fill="#94A3B8" font-size="10">rio@bimbelcendekia.id</text>
      <rect x="740" y="24" width="66" height="22" rx="10" fill="rgba(22,163,74,0.24)"/>
      <text x="773" y="39" fill="#22C55E" font-size="10" font-weight="800" text-anchor="middle">✓ Login</text>
      <rect x="828" y="24" width="52" height="22" rx="10" fill="rgba(22,163,74,0.24)"/>
      <text x="854" y="39" fill="#22C55E" font-size="10" font-weight="800" text-anchor="middle">AKTIF</text>
    </g>
    <g transform="translate(280, 608)">
      <rect width="920" height="72" rx="12" fill="#10162A" stroke="#1B2235"/>
      <circle cx="34" cy="36" r="20" fill="#E89C2A"/>
      <text x="34" y="40" fill="#FFFFFF" font-size="12" font-weight="800" text-anchor="middle">DP</text>
      <text x="66" y="30" fill="#FFFFFF" font-size="13" font-weight="800">Diva Prameswari</text>
      <text x="66" y="48" fill="#94A3B8" font-size="10">bergabung 2025-03-10</text>
      <rect x="400" y="24" width="88" height="22" rx="10" fill="rgba(232,156,42,0.24)"/>
      <text x="444" y="39" fill="#FBBE5A" font-size="10" font-weight="800" text-anchor="middle">Marketing</text>
      <text x="580" y="30" fill="#F1F5F9" font-size="11">0821-3333-4444</text>
      <text x="580" y="48" fill="#94A3B8" font-size="10">diva@bimbelcendekia.id</text>
      <rect x="740" y="24" width="66" height="22" rx="10" fill="rgba(22,163,74,0.24)"/>
      <text x="773" y="39" fill="#22C55E" font-size="10" font-weight="800" text-anchor="middle">✓ Login</text>
      <rect x="828" y="24" width="52" height="22" rx="10" fill="rgba(22,163,74,0.24)"/>
      <text x="854" y="39" fill="#22C55E" font-size="10" font-weight="800" text-anchor="middle">AKTIF</text>
    </g>
    <g transform="translate(280, 688)">
      <rect width="920" height="72" rx="12" fill="#10162A" stroke="#1B2235"/>
      <circle cx="34" cy="36" r="20" fill="#94A3B8"/>
      <text x="34" y="40" fill="#FFFFFF" font-size="12" font-weight="800" text-anchor="middle">PS</text>
      <text x="66" y="30" fill="#FFFFFF" font-size="13" font-weight="800">Pak Slamet</text>
      <text x="66" y="48" fill="#94A3B8" font-size="10">tidak ada email · manual entry</text>
      <rect x="400" y="24" width="94" height="22" rx="10" fill="rgba(148,163,184,0.18)"/>
      <text x="447" y="39" fill="#CBD5E1" font-size="10" font-weight="800" text-anchor="middle">Kebersihan</text>
      <text x="580" y="30" fill="#F1F5F9" font-size="11">0857-8888-9999</text>
      <text x="580" y="48" fill="#94A3B8" font-size="10">— · no email</text>
      <rect x="740" y="24" width="72" height="22" rx="10" fill="rgba(232,156,42,0.24)"/>
      <text x="776" y="39" fill="#FBBE5A" font-size="10" font-weight="800" text-anchor="middle">Manual</text>
      <rect x="828" y="24" width="52" height="22" rx="10" fill="rgba(22,163,74,0.24)"/>
      <text x="854" y="39" fill="#22C55E" font-size="10" font-weight="800" text-anchor="middle">AKTIF</text>
    </g>

    <text x="280" y="820" fill="#475569" font-size="10">Same components as the school variant — RbacPalette-style token flip drives the darkening. Nothing tutoring-specific structurally.</text>
  </g>

  <!-- ============================================================
       FRAME D — MOBILE · Staff list + form
       ============================================================ -->
  <g transform="translate(48, 4040)">
    <text x="0" y="-8" fill="#64748B" font-size="10" font-weight="700" letter-spacing="1.4">D · MOBILE · DAFTAR STAF + FORM · 375×812 (iPhone 12/13/14 baseline)</text>

    <!-- MOBILE FRAME 1 — List -->
    <g transform="translate(80, 0)">
      <rect width="375" height="812" rx="36" fill="#0F172A"/>
      <rect x="8" y="8" width="359" height="796" rx="30" fill="#F8FAFC"/>
      <!-- Notch -->
      <rect x="140" y="12" width="95" height="20" rx="10" fill="#0F172A"/>
      <!-- Status bar -->
      <text x="30" y="46" fill="#0F172A" font-size="12" font-weight="700">09:41</text>
      <text x="345" y="46" fill="#0F172A" font-size="10" font-weight="700" text-anchor="end">100%</text>
      <!-- Header -->
      <rect x="8" y="60" width="359" height="120" fill="url(#heroSchool)"/>
      <text x="30" y="86" fill="rgba(255,255,255,0.85)" font-size="9" font-weight="700" letter-spacing="1.4">MI AL-HIDAYAH · ADMIN</text>
      <text x="30" y="118" fill="#FFFFFF" font-size="20" font-weight="900">Staf &amp; Personel</text>
      <text x="30" y="140" fill="rgba(255,255,255,0.75)" font-size="10">8 aktif · 2 tidak aktif</text>
      <text x="345" y="105" fill="#FFFFFF" font-size="20" font-weight="900" text-anchor="end">⋯</text>
      <!-- Filter chips -->
      <g transform="translate(30, 200)">
        <rect width="64" height="28" rx="14" fill="#143068"/>
        <text x="32" y="18" fill="#FFFFFF" font-size="10" font-weight="700" text-anchor="middle">Semua</text>
        <rect x="70" y="0" width="76" height="28" rx="14" fill="#FFFFFF" stroke="#E2E8F0"/>
        <text x="108" y="18" fill="#475569" font-size="10" font-weight="600" text-anchor="middle">Tata Usaha</text>
        <rect x="152" y="0" width="70" height="28" rx="14" fill="#FFFFFF" stroke="#E2E8F0"/>
        <text x="187" y="18" fill="#475569" font-size="10" font-weight="600" text-anchor="middle">Bendahara</text>
        <rect x="228" y="0" width="60" height="28" rx="14" fill="#FFFFFF" stroke="#E2E8F0"/>
        <text x="258" y="18" fill="#475569" font-size="10" font-weight="600" text-anchor="middle">Penjaga</text>
      </g>
      <!-- Search -->
      <rect x="30" y="248" width="315" height="40" rx="12" fill="#FFFFFF" stroke="#E2E8F0"/>
      <text x="42" y="272" fill="#94A3B8" font-size="12">🔍  Cari nama / NIP …</text>
      <!-- Staff cards -->
      <g transform="translate(30, 308)">
        <rect width="315" height="76" rx="14" fill="#FFFFFF" stroke="#E2E8F0"/>
        <circle cx="30" cy="38" r="18" fill="#E89C2A"/>
        <text x="30" y="42" fill="#FFFFFF" font-size="11" font-weight="800" text-anchor="middle">BS</text>
        <text x="58" y="30" fill="#0F172A" font-size="13" font-weight="800">Bu Sri Wahyuni</text>
        <text x="58" y="46" fill="#64748B" font-size="10">NIP 197203121994032001</text>
        <rect x="58" y="52" width="70" height="18" rx="6" fill="#FBEEDA"/>
        <text x="93" y="65" fill="#A2660D" font-size="9" font-weight="800" text-anchor="middle">Bendahara</text>
        <rect x="132" y="52" width="52" height="18" rx="6" fill="#D1FAE5"/>
        <text x="158" y="65" fill="#15803D" font-size="9" font-weight="800" text-anchor="middle">AKTIF</text>
        <text x="295" y="42" fill="#94A3B8" font-size="14" font-weight="700" text-anchor="end">›</text>
      </g>
      <g transform="translate(30, 396)">
        <rect width="315" height="76" rx="14" fill="#FFFFFF" stroke="#E2E8F0"/>
        <circle cx="30" cy="38" r="18" fill="#1B6FB8"/>
        <text x="30" y="42" fill="#FFFFFF" font-size="11" font-weight="800" text-anchor="middle">PB</text>
        <text x="58" y="30" fill="#0F172A" font-size="13" font-weight="800">Pak Budi Santoso</text>
        <text x="58" y="46" fill="#64748B" font-size="10">NIP 198504151998031002</text>
        <rect x="58" y="52" width="76" height="18" rx="6" fill="#E8EEF7"/>
        <text x="96" y="65" fill="#143068" font-size="9" font-weight="800" text-anchor="middle">Tata Usaha</text>
        <rect x="140" y="52" width="52" height="18" rx="6" fill="#D1FAE5"/>
        <text x="166" y="65" fill="#15803D" font-size="9" font-weight="800" text-anchor="middle">AKTIF</text>
      </g>
      <g transform="translate(30, 484)">
        <rect width="315" height="76" rx="14" fill="#FFFFFF" stroke="#E2E8F0"/>
        <circle cx="30" cy="38" r="18" fill="#7C5CFF"/>
        <text x="30" y="42" fill="#FFFFFF" font-size="11" font-weight="800" text-anchor="middle">MR</text>
        <text x="58" y="30" fill="#0F172A" font-size="13" font-weight="800">M. Rahmat</text>
        <text x="58" y="46" fill="#64748B" font-size="10">Manual entry · belum ada akun</text>
        <rect x="58" y="52" width="60" height="18" rx="6" fill="#F1F5F9"/>
        <text x="88" y="65" fill="#475569" font-size="9" font-weight="800" text-anchor="middle">Penjaga</text>
        <rect x="124" y="52" width="52" height="18" rx="6" fill="#FEF3C7"/>
        <text x="150" y="65" fill="#A2660D" font-size="9" font-weight="800" text-anchor="middle">Manual</text>
      </g>
      <g transform="translate(30, 572)">
        <rect width="315" height="76" rx="14" fill="#FFFFFF" stroke="#E2E8F0"/>
        <circle cx="30" cy="38" r="18" fill="#16A34A"/>
        <text x="30" y="42" fill="#FFFFFF" font-size="11" font-weight="800" text-anchor="middle">HI</text>
        <text x="58" y="30" fill="#0F172A" font-size="13" font-weight="800">H. Ibrahim</text>
        <text x="58" y="46" fill="#64748B" font-size="10">NIP 196812301985031005</text>
        <rect x="58" y="52" width="56" height="18" rx="6" fill="#F1F5F9"/>
        <text x="86" y="65" fill="#475569" font-size="9" font-weight="800" text-anchor="middle">Satpam</text>
      </g>
      <!-- FAB -->
      <circle cx="330" cy="720" r="28" fill="#143068" filter="url(#shadowLight)"/>
      <text x="330" y="726" fill="#FFFFFF" font-size="18" font-weight="900" text-anchor="middle">+</text>
      <!-- Bottom nav -->
      <rect x="8" y="740" width="359" height="64" fill="#FFFFFF"/>
      <line x1="8" y1="740" x2="367" y2="740" stroke="#E2E8F0"/>
      <g font-size="9" fill="#94A3B8" font-weight="600" text-anchor="middle">
        <text x="60" y="770">Home</text>
        <text x="140" y="770">Data</text>
        <text x="220" y="770">Presensi</text>
        <text x="300" y="770">Profil</text>
      </g>
    </g>

    <!-- MOBILE FRAME 2 — Form -->
    <g transform="translate(500, 0)">
      <rect width="375" height="812" rx="36" fill="#0F172A"/>
      <rect x="8" y="8" width="359" height="796" rx="30" fill="#F8FAFC"/>
      <rect x="140" y="12" width="95" height="20" rx="10" fill="#0F172A"/>
      <text x="30" y="46" fill="#0F172A" font-size="12" font-weight="700">09:41</text>
      <text x="345" y="46" fill="#0F172A" font-size="10" font-weight="700" text-anchor="end">100%</text>
      <rect x="8" y="60" width="359" height="80" fill="url(#heroSchool)"/>
      <text x="30" y="88" fill="#FFFFFF" font-size="12" font-weight="700">← Tambah Staf</text>
      <text x="30" y="118" fill="rgba(255,255,255,0.78)" font-size="10">Isi minimal Nama · Jabatan · HP</text>

      <!-- Photo circle -->
      <g transform="translate(30, 160)">
        <circle cx="42" cy="42" r="36" fill="#E89C2A" opacity="0.15"/>
        <circle cx="42" cy="42" r="36" fill="none" stroke="#E89C2A" stroke-width="2" stroke-dasharray="4 4"/>
        <text x="42" y="46" fill="#E89C2A" font-size="14" font-weight="800" text-anchor="middle">📷</text>
        <text x="42" y="98" fill="#64748B" font-size="10" text-anchor="middle">Foto</text>
        <text x="114" y="30" fill="#0F172A" font-size="14" font-weight="800">Bu Sri Wahyuni</text>
        <text x="114" y="50" fill="#64748B" font-size="11">NIP: 197203121994032001</text>
        <rect x="114" y="60" width="78" height="20" rx="10" fill="#FBEEDA"/>
        <text x="153" y="74" fill="#A2660D" font-size="9" font-weight="800" text-anchor="middle">Bendahara</text>
      </g>

      <!-- Fields -->
      <g transform="translate(30, 280)">
        <text x="0" y="14" fill="#0F172A" font-size="11" font-weight="700">Nama Lengkap *</text>
        <rect x="0" y="20" width="315" height="42" rx="10" fill="#FFFFFF" stroke="#E2E8F0"/>
        <text x="12" y="46" fill="#0F172A" font-size="13" font-weight="700">Bu Sri Wahyuni</text>
      </g>
      <g transform="translate(30, 350)">
        <text x="0" y="14" fill="#0F172A" font-size="11" font-weight="700">Jabatan *</text>
        <rect x="0" y="20" width="315" height="42" rx="10" fill="#FFFFFF" stroke="#E2E8F0"/>
        <text x="12" y="46" fill="#0F172A" font-size="13" font-weight="700">Bendahara Sekolah</text>
        <text x="300" y="46" fill="#94A3B8" font-size="12" font-weight="700" text-anchor="end">▾</text>
      </g>
      <g transform="translate(30, 420)">
        <text x="0" y="14" fill="#0F172A" font-size="11" font-weight="700">Nomor HP *</text>
        <rect x="0" y="20" width="315" height="42" rx="10" fill="#FFFFFF" stroke="#E2E8F0"/>
        <text x="12" y="46" fill="#0F172A" font-size="13" font-weight="700">0812-3456-7890</text>
      </g>
      <g transform="translate(30, 490)">
        <text x="0" y="14" fill="#0F172A" font-size="11" font-weight="700">Email <tspan fill="#94A3B8" font-weight="500">(untuk login)</tspan></text>
        <rect x="0" y="20" width="315" height="42" rx="10" fill="#FFFFFF" stroke="#E2E8F0"/>
        <text x="12" y="46" fill="#0F172A" font-size="12" font-weight="600">sri@alhidayah.sch.id</text>
      </g>
      <!-- Toggle akun -->
      <g transform="translate(30, 560)">
        <rect width="315" height="60" rx="12" fill="#FFFFFF" stroke="#E2E8F0"/>
        <text x="14" y="24" fill="#0F172A" font-size="12" font-weight="700">Buat akun login?</text>
        <text x="14" y="42" fill="#64748B" font-size="10">Staf bisa presensi via mobile</text>
        <rect x="255" y="18" width="46" height="24" rx="12" fill="#16A34A"/>
        <circle cx="289" cy="30" r="9" fill="#FFFFFF"/>
      </g>

      <!-- Save bar -->
      <rect x="8" y="720" width="359" height="76" fill="#FFFFFF"/>
      <line x1="8" y1="720" x2="367" y2="720" stroke="#E2E8F0"/>
      <rect x="30" y="740" width="90" height="42" rx="10" fill="#FFFFFF" stroke="#E2E8F0"/>
      <text x="75" y="766" fill="#0F172A" font-size="12" font-weight="700" text-anchor="middle">Batal</text>
      <rect x="130" y="740" width="215" height="42" rx="10" fill="#143068"/>
      <text x="237" y="766" fill="#FFFFFF" font-size="12" font-weight="800" text-anchor="middle">Simpan &amp; Kirim OTP</text>
    </g>

    <text x="80" y="890" fill="#94A3B8" font-size="10">Same 3-section flow as web · scrolls · uses BottomSheet for jabatan picker · Manual mode hides Email + Akun toggle collapses.</text>
  </g>

  <text x="48" y="5380" fill="#94A3B8" font-size="10">v1 · 2026-06-30 · 4 frames · Consumes backend Phase C StaffController — no new endpoints. Wide-gates: gate CTA + form + delete by school.staff.manage (add to catalog).</text>
</svg>
