<svg xmlns="http://www.w3.org/2000/svg" viewBox="0 0 2080 2280" font-family="-apple-system, BlinkMacSystemFont, 'Segoe UI', Roboto, sans-serif">
  <!-- =========================================================== -->
  <!-- Admin Actions Mockup v3                                      -->
  <!--                                                              -->
  <!-- One sheet covering 5 flows, all built on shared components:  -->
  <!--   A. Detail screen          (AppBottomSheet — full)          -->
  <!--   B. Create / Add           (AppEditBottomSheet)             -->
  <!--   C. Update / Edit          (AppEditBottomSheet, prefilled)  -->
  <!--   D. Delete confirm         (ConfirmationDialog)             -->
  <!--   E. Bulk select + delete   (BulkActionBar + ConfirmDialog)  -->
  <!--                                                              -->
  <!-- Shared components used across all flows:                     -->
  <!--   • AppBottomSheet / AppEditBottomSheet (lib/core/widgets)   -->
  <!--   • BottomSheetFooter (Batal/Simpan w/ safe-area)            -->
  <!--   • FormFieldSection (label + input + helper text)           -->
  <!--   • ConfirmationDialog (destructive confirm with icon)       -->
  <!--   • BulkActionBar (floating bottom bar)                      -->
  <!--   • InitialsAvatar (header avatar on detail)                 -->
  <!--   • BrandListRow (selection state in bulk mode)              -->
  <!-- =========================================================== -->

  <defs>
    <!-- Admin navy gradient -->
    <linearGradient id="adminHero" x1="0" y1="0" x2="1" y2="1">
      <stop offset="0%" stop-color="#1a3a78"/>
      <stop offset="100%" stop-color="#0e2553"/>
    </linearGradient>
    <linearGradient id="adminAvatar" x1="0" y1="0" x2="1" y2="1">
      <stop offset="0%" stop-color="#1f4080"/>
      <stop offset="100%" stop-color="#0e2553"/>
    </linearGradient>
    <linearGradient id="dangerBg" x1="0" y1="0" x2="0" y2="1">
      <stop offset="0%" stop-color="#FEF2F2"/>
      <stop offset="100%" stop-color="#FEE2E2"/>
    </linearGradient>
    <filter id="cardShadow" x="-10%" y="-10%" width="120%" height="140%">
      <feDropShadow dx="0" dy="2" stdDeviation="4" flood-color="#0e2553" flood-opacity="0.10"/>
    </filter>
    <filter id="sheetShadow" x="-5%" y="-5%" width="110%" height="120%">
      <feDropShadow dx="0" dy="-4" stdDeviation="14" flood-color="#0e2553" flood-opacity="0.18"/>
    </filter>
  </defs>

  <rect width="2080" height="2280" fill="#F4F7FB"/>

  <!-- Title bar -->
  <text x="40" y="56" font-size="22" font-weight="800" fill="#0E2553">Admin Actions Mockup v3 — Detail · Create · Update · Delete · Bulk</text>
  <text x="40" y="82" font-size="13" fill="#5b6e8c">Five flows that every admin CRUD page (Siswa, Guru, Kelas, Mapel, Jadwal) shares — all built on existing shared components in lib/core/widgets/.</text>

  <!-- ========================================================= -->
  <!-- A. DETAIL SCREEN — AppBottomSheet (full sheet, scrollable) -->
  <!-- ========================================================= -->
  <g transform="translate(40,120)">
    <text x="0" y="-12" font-size="13" font-weight="700" fill="#0E2553">A · Detail — tap card → AppBottomSheet (full-height, scrollable)</text>

    <!-- phone -->
    <rect x="0" y="0" width="375" height="780" rx="36" fill="#FFFFFF" stroke="#D9E1EC" stroke-width="1.5"/>
    <rect x="0" y="0" width="375" height="34" rx="36" fill="#FFFFFF"/>
    <text x="20" y="22" font-size="11" font-weight="700" fill="#0E2553">9:41</text>

    <!-- dimmed background list -->
    <rect x="0" y="34" width="375" height="746" fill="#0E2553" fill-opacity="0.5"/>

    <!-- Sheet -->
    <g transform="translate(0,90)" filter="url(#sheetShadow)">
      <path d="M0,28 Q0,0 28,0 H347 Q375,0 375,28 V690 H0 Z" fill="#FFFFFF"/>
      <rect x="167" y="10" width="42" height="4" rx="2" fill="#CBD5E1"/>

      <!-- HERO band — admin gradient, avatar + title + close -->
      <path d="M0,28 Q0,0 28,0 H347 Q375,0 375,28 V190 H0 Z" fill="url(#adminHero)"/>
      <!-- close button -->
      <g transform="translate(327,22)">
        <rect width="32" height="32" rx="10" fill="#ffffff" fill-opacity="0.16"/>
        <path d="M11 11 L21 21 M21 11 L11 21" stroke="#FFFFFF" stroke-width="2" stroke-linecap="round"/>
      </g>
      <!-- avatar -->
      <rect x="20" y="34" width="64" height="64" rx="14" fill="url(#adminAvatar)"/>
      <text x="52" y="76" font-size="22" font-weight="800" fill="#FFFFFF" text-anchor="middle">AY</text>
      <!-- meta -->
      <text x="20" y="120" font-size="10" font-weight="700" fill="#9DC4E8" letter-spacing="1.4">SISWA</text>
      <text x="20" y="146" font-size="20" font-weight="800" fill="#FFFFFF">Ahmad Yahya Hasymi</text>
      <text x="20" y="166" font-size="11" fill="#9DC4E8">7A · NIS 1234567</text>
      <!-- status pill -->
      <g transform="translate(285,140)">
        <rect width="74" height="24" rx="12" fill="#16a34a"/>
        <circle cx="12" cy="12" r="3" fill="#FFFFFF"/>
        <text x="22" y="16" font-size="10" font-weight="800" fill="#FFFFFF">AKTIF</text>
      </g>

      <!-- Body sections -->
      <text x="20" y="222" font-size="10" font-weight="700" fill="#5b6e8c" letter-spacing="1.2">DATA AKADEMIK</text>
      <g transform="translate(20,234)">
        <rect width="335" height="118" rx="14" fill="#F4F7FB" stroke="#E2E8F0"/>
        <text x="14" y="22" font-size="10" font-weight="600" fill="#5b6e8c">Kelas</text>
        <text x="14" y="38" font-size="13" font-weight="700" fill="#0E2553">7-A · Reguler</text>
        <line x1="14" y1="52" x2="321" y2="52" stroke="#E2E8F0"/>
        <text x="14" y="68" font-size="10" font-weight="600" fill="#5b6e8c">Tingkat</text>
        <text x="14" y="84" font-size="13" font-weight="700" fill="#0E2553">7 (SMP)</text>
        <line x1="14" y1="98" x2="321" y2="98" stroke="#E2E8F0"/>
        <text x="14" y="114" font-size="11" font-weight="700" fill="#1B6FB8">Lihat nilai &amp; raport →</text>
      </g>

      <text x="20" y="380" font-size="10" font-weight="700" fill="#5b6e8c" letter-spacing="1.2">DATA PRIBADI</text>
      <g transform="translate(20,392)">
        <rect width="335" height="166" rx="14" fill="#F4F7FB" stroke="#E2E8F0"/>
        <text x="14" y="22" font-size="10" font-weight="600" fill="#5b6e8c">Jenis kelamin</text>
        <text x="160" y="22" font-size="11" font-weight="700" fill="#0E2553">Laki-laki</text>
        <line x1="14" y1="34" x2="321" y2="34" stroke="#E2E8F0"/>
        <text x="14" y="52" font-size="10" font-weight="600" fill="#5b6e8c">Tanggal lahir</text>
        <text x="160" y="52" font-size="11" font-weight="700" fill="#0E2553">12 Maret 2012</text>
        <line x1="14" y1="64" x2="321" y2="64" stroke="#E2E8F0"/>
        <text x="14" y="82" font-size="10" font-weight="600" fill="#5b6e8c">Wali / orang tua</text>
        <text x="160" y="82" font-size="11" font-weight="700" fill="#0E2553">Bp. Hasymi</text>
        <line x1="14" y1="94" x2="321" y2="94" stroke="#E2E8F0"/>
        <text x="14" y="112" font-size="10" font-weight="600" fill="#5b6e8c">No. HP wali</text>
        <text x="160" y="112" font-size="11" font-weight="700" fill="#0E2553">+62 812-9876-…</text>
        <line x1="14" y1="124" x2="321" y2="124" stroke="#E2E8F0"/>
        <text x="14" y="142" font-size="10" font-weight="600" fill="#5b6e8c">Alamat</text>
        <text x="14" y="158" font-size="11" font-weight="700" fill="#0E2553">Jl. Cendrawasih No. 12, Bekasi</text>
      </g>

      <!-- Footer actions -->
      <g transform="translate(20,580)">
        <rect width="160" height="48" rx="12" fill="#FFFFFF" stroke="#FCA5A5" stroke-width="1.4"/>
        <path d="M40 24 L52 24 M44 18 V30" stroke="#DC2626" stroke-width="1.6" stroke-linecap="round"/>
        <text x="62" y="29" font-size="13" font-weight="800" fill="#DC2626">Hapus</text>
      </g>
      <g transform="translate(195,580)">
        <rect width="160" height="48" rx="12" fill="url(#adminHero)"/>
        <path d="M40 18 V30 M34 24 H46" stroke="#FFFFFF" stroke-width="1.6" stroke-linecap="round"/>
        <text x="62" y="29" font-size="13" font-weight="800" fill="#FFFFFF">Edit Data</text>
      </g>
    </g>

    <!-- annotations -->
    <g transform="translate(395,90)" font-size="10" fill="#5b6e8c">
      <line x1="-20" y1="20" x2="-4" y2="20" stroke="#94a3b8" stroke-width="1" stroke-dasharray="3 2"/>
      <text y="23">AppBottomSheet — full-height, isScrollControlled, dragHandle on top</text>
    </g>
    <g transform="translate(395,180)" font-size="10" fill="#5b6e8c">
      <line x1="-20" y1="20" x2="-4" y2="20" stroke="#94a3b8" stroke-width="1" stroke-dasharray="3 2"/>
      <text y="23">Hero band — admin navy + InitialsAvatar.gradient + status pill</text>
    </g>
    <g transform="translate(395,310)" font-size="10" fill="#5b6e8c">
      <line x1="-20" y1="20" x2="-4" y2="20" stroke="#94a3b8" stroke-width="1" stroke-dasharray="3 2"/>
      <text y="23">FormFieldSection variant — label + value + divider per row</text>
    </g>
    <g transform="translate(395,650)" font-size="10" fill="#5b6e8c">
      <line x1="-20" y1="20" x2="-4" y2="20" stroke="#94a3b8" stroke-width="1" stroke-dasharray="3 2"/>
      <text y="23">BottomSheetFooter — split: Hapus (danger outline) + Edit (primary)</text>
    </g>
  </g>

  <!-- ============================================== -->
  <!-- B. CREATE — AppEditBottomSheet (empty form)    -->
  <!-- ============================================== -->
  <g transform="translate(720,120)">
    <text x="0" y="-12" font-size="13" font-weight="700" fill="#0E2553">B · Create — AppEditBottomSheet (FAB tap → empty form)</text>

    <rect x="0" y="0" width="375" height="780" rx="36" fill="#FFFFFF" stroke="#D9E1EC" stroke-width="1.5"/>
    <rect x="0" y="0" width="375" height="34" rx="36" fill="#FFFFFF"/>
    <text x="20" y="22" font-size="11" font-weight="700" fill="#0E2553">9:41</text>
    <rect x="0" y="34" width="375" height="746" fill="#0E2553" fill-opacity="0.5"/>

    <g transform="translate(0,90)" filter="url(#sheetShadow)">
      <path d="M0,28 Q0,0 28,0 H347 Q375,0 375,28 V690 H0 Z" fill="#FFFFFF"/>
      <rect x="167" y="10" width="42" height="4" rx="2" fill="#CBD5E1"/>

      <!-- Sheet header (BottomSheetHeader) -->
      <g transform="translate(20,28)">
        <rect width="44" height="44" rx="14" fill="url(#adminHero)"/>
        <path d="M22 14 V30 M14 22 H30" stroke="#FFFFFF" stroke-width="2.4" stroke-linecap="round"/>
        <text x="60" y="20" font-size="10" font-weight="700" fill="#5b6e8c" letter-spacing="1.2">TAMBAH BARU</text>
        <text x="60" y="40" font-size="17" font-weight="800" fill="#0E2553">Tambah Siswa</text>
        <g transform="translate(283,8)">
          <circle cx="14" cy="14" r="14" fill="#F4F7FB"/>
          <path d="M9 9 L19 19 M19 9 L9 19" stroke="#5b6e8c" stroke-width="1.6" stroke-linecap="round"/>
        </g>
      </g>

      <!-- Form fields -->
      <g transform="translate(20,98)">
        <text x="0" y="0" font-size="10" font-weight="700" fill="#5b6e8c" letter-spacing="1.0">DATA POKOK</text>
      </g>
      <g transform="translate(20,114)">
        <text x="0" y="0" font-size="11" font-weight="700" fill="#0E2553">Nama lengkap <tspan fill="#DC2626">*</tspan></text>
        <rect x="0" y="8" width="335" height="44" rx="10" fill="#F8FAFC" stroke="#E2E8F0"/>
        <text x="14" y="34" font-size="12" fill="#94A3B8">Nama lengkap siswa…</text>
      </g>
      <g transform="translate(20,178)">
        <text x="0" y="0" font-size="11" font-weight="700" fill="#0E2553">NIS / NISN <tspan fill="#DC2626">*</tspan></text>
        <rect x="0" y="8" width="335" height="44" rx="10" fill="#F8FAFC" stroke="#E2E8F0"/>
        <text x="14" y="34" font-size="12" fill="#94A3B8">Nomor induk siswa…</text>
      </g>
      <g transform="translate(20,242)">
        <text x="0" y="0" font-size="11" font-weight="700" fill="#0E2553">Kelas <tspan fill="#DC2626">*</tspan></text>
        <rect x="0" y="8" width="335" height="44" rx="10" fill="#F8FAFC" stroke="#E2E8F0"/>
        <text x="14" y="34" font-size="12" fill="#94A3B8">Pilih kelas…</text>
        <path d="M312 28 L320 36 L328 28" stroke="#5b6e8c" stroke-width="1.6" fill="none" stroke-linecap="round"/>
      </g>
      <g transform="translate(20,306)">
        <text x="0" y="0" font-size="10" font-weight="700" fill="#5b6e8c" letter-spacing="1.0">DATA PRIBADI</text>
      </g>
      <g transform="translate(20,322)">
        <text x="0" y="0" font-size="11" font-weight="700" fill="#0E2553">Jenis kelamin</text>
        <g transform="translate(0,12)">
          <rect width="160" height="40" rx="10" fill="#143068"/>
          <text x="80" y="25" font-size="12" font-weight="700" fill="#FFFFFF" text-anchor="middle">Laki-laki</text>
        </g>
        <g transform="translate(170,12)">
          <rect width="165" height="40" rx="10" fill="#FFFFFF" stroke="#E2E8F0"/>
          <text x="82" y="25" font-size="12" font-weight="700" fill="#5b6e8c" text-anchor="middle">Perempuan</text>
        </g>
      </g>
      <g transform="translate(20,386)">
        <text x="0" y="0" font-size="11" font-weight="700" fill="#0E2553">Tanggal lahir</text>
        <rect x="0" y="8" width="335" height="44" rx="10" fill="#F8FAFC" stroke="#E2E8F0"/>
        <text x="14" y="34" font-size="12" fill="#94A3B8">DD/MM/YYYY</text>
        <g transform="translate(303,18)">
          <rect width="20" height="20" fill="none" stroke="#5b6e8c" stroke-width="1.4" rx="3"/>
          <line x1="0" y1="6" x2="20" y2="6" stroke="#5b6e8c" stroke-width="1.4"/>
        </g>
      </g>
      <g transform="translate(20,450)">
        <text x="0" y="0" font-size="11" font-weight="700" fill="#0E2553">Nama wali / orang tua</text>
        <rect x="0" y="8" width="335" height="44" rx="10" fill="#F8FAFC" stroke="#E2E8F0"/>
        <text x="14" y="34" font-size="12" fill="#94A3B8">Mis. Bp. Ahmad…</text>
      </g>
      <g transform="translate(20,514)">
        <text x="0" y="0" font-size="11" font-weight="700" fill="#0E2553">No. HP wali</text>
        <rect x="0" y="8" width="335" height="44" rx="10" fill="#F8FAFC" stroke="#E2E8F0"/>
        <text x="14" y="34" font-size="12" fill="#94A3B8">+62 812-…</text>
      </g>

      <!-- Footer (BottomSheetFooter) -->
      <line x1="0" y1="600" x2="375" y2="600" stroke="#E2E8F0"/>
      <g transform="translate(20,612)">
        <rect width="100" height="48" rx="12" fill="#FFFFFF" stroke="#E2E8F0"/>
        <text x="50" y="29" font-size="13" font-weight="700" fill="#5b6e8c" text-anchor="middle">Batal</text>
      </g>
      <g transform="translate(135,612)">
        <rect width="220" height="48" rx="12" fill="url(#adminHero)"/>
        <path d="M58 22 L68 32 L80 18" stroke="#FFFFFF" stroke-width="2" fill="none" stroke-linecap="round" stroke-linejoin="round"/>
        <text x="142" y="30" font-size="13" font-weight="800" fill="#FFFFFF" text-anchor="middle">Simpan Siswa</text>
      </g>
    </g>

    <g transform="translate(395,80)" font-size="10" fill="#5b6e8c">
      <line x1="-20" y1="20" x2="-4" y2="20" stroke="#94a3b8" stroke-width="1" stroke-dasharray="3 2"/>
      <text y="23">BottomSheetHeader — leading icon tile + kicker + title + close</text>
    </g>
    <g transform="translate(395,200)" font-size="10" fill="#5b6e8c">
      <line x1="-20" y1="20" x2="-4" y2="20" stroke="#94a3b8" stroke-width="1" stroke-dasharray="3 2"/>
      <text y="23">FormFieldSection — label + StudentDialogTextField/Dropdown</text>
    </g>
    <g transform="translate(395,420)" font-size="10" fill="#5b6e8c">
      <line x1="-20" y1="20" x2="-4" y2="20" stroke="#94a3b8" stroke-width="1" stroke-dasharray="3 2"/>
      <text y="23">Segmented chip group — gender / boolean choices</text>
    </g>
    <g transform="translate(395,700)" font-size="10" fill="#5b6e8c">
      <line x1="-20" y1="20" x2="-4" y2="20" stroke="#94a3b8" stroke-width="1" stroke-dasharray="3 2"/>
      <text y="23">BottomSheetFooter — split Batal (outline) + Simpan (primary)</text>
    </g>
  </g>

  <!-- ============================================== -->
  <!-- C. UPDATE — AppEditBottomSheet (prefilled)     -->
  <!-- ============================================== -->
  <g transform="translate(1400,120)">
    <text x="0" y="-12" font-size="13" font-weight="700" fill="#0E2553">C · Update — AppEditBottomSheet (Edit Data → prefilled, dirty-tracking)</text>

    <rect x="0" y="0" width="375" height="780" rx="36" fill="#FFFFFF" stroke="#D9E1EC" stroke-width="1.5"/>
    <rect x="0" y="0" width="375" height="34" rx="36" fill="#FFFFFF"/>
    <text x="20" y="22" font-size="11" font-weight="700" fill="#0E2553">9:41</text>
    <rect x="0" y="34" width="375" height="746" fill="#0E2553" fill-opacity="0.5"/>

    <g transform="translate(0,90)" filter="url(#sheetShadow)">
      <path d="M0,28 Q0,0 28,0 H347 Q375,0 375,28 V690 H0 Z" fill="#FFFFFF"/>
      <rect x="167" y="10" width="42" height="4" rx="2" fill="#CBD5E1"/>

      <!-- Header -->
      <g transform="translate(20,28)">
        <rect width="44" height="44" rx="14" fill="#FEF3C7"/>
        <path d="M16 30 L30 16 M28 14 L30 16 L28 18" stroke="#92400E" stroke-width="2" stroke-linecap="round" stroke-linejoin="round"/>
        <text x="60" y="20" font-size="10" font-weight="700" fill="#92400E" letter-spacing="1.2">EDIT DATA</text>
        <text x="60" y="40" font-size="17" font-weight="800" fill="#0E2553">Edit Siswa</text>
        <g transform="translate(283,8)">
          <circle cx="14" cy="14" r="14" fill="#F4F7FB"/>
          <path d="M9 9 L19 19 M19 9 L9 19" stroke="#5b6e8c" stroke-width="1.6" stroke-linecap="round"/>
        </g>
      </g>

      <!-- "Mengedit:" context strip -->
      <g transform="translate(20,84)">
        <rect width="335" height="42" rx="10" fill="#FEF7E0"/>
        <circle cx="22" cy="21" r="13" fill="url(#adminAvatar)"/>
        <text x="22" y="25" font-size="9" font-weight="800" fill="#FFFFFF" text-anchor="middle">AY</text>
        <text x="44" y="18" font-size="10" font-weight="700" fill="#92400E" letter-spacing="0.6">MENGEDIT</text>
        <text x="44" y="32" font-size="11" font-weight="800" fill="#0E2553">Ahmad Yahya Hasymi · 7A</text>
      </g>

      <!-- Prefilled fields -->
      <g transform="translate(20,142)">
        <text x="0" y="0" font-size="10" font-weight="700" fill="#5b6e8c" letter-spacing="1.0">DATA POKOK</text>
      </g>
      <g transform="translate(20,158)">
        <text x="0" y="0" font-size="11" font-weight="700" fill="#0E2553">Nama lengkap <tspan fill="#DC2626">*</tspan></text>
        <rect x="0" y="8" width="335" height="44" rx="10" fill="#FFFFFF" stroke="#143068" stroke-width="1.4"/>
        <text x="14" y="34" font-size="12" font-weight="600" fill="#0E2553">Ahmad Yahya Hasymi</text>
      </g>
      <g transform="translate(20,222)">
        <text x="0" y="0" font-size="11" font-weight="700" fill="#0E2553">NIS / NISN <tspan fill="#DC2626">*</tspan></text>
        <rect x="0" y="8" width="335" height="44" rx="10" fill="#FFFFFF" stroke="#E2E8F0"/>
        <text x="14" y="34" font-size="12" font-weight="600" fill="#0E2553">1234567</text>
      </g>
      <g transform="translate(20,286)">
        <text x="0" y="0" font-size="11" font-weight="700" fill="#0E2553">Kelas <tspan fill="#DC2626">*</tspan></text>
        <text x="0" y="-2" font-size="9" font-weight="700" fill="#92400E" text-anchor="end" transform="translate(335,0)">DIUBAH</text>
        <rect x="0" y="8" width="335" height="44" rx="10" fill="#FFFFFF" stroke="#92400E" stroke-width="1.4"/>
        <text x="14" y="34" font-size="12" font-weight="700" fill="#0E2553">7-A · Reguler</text>
        <path d="M312 28 L320 36 L328 28" stroke="#5b6e8c" stroke-width="1.6" fill="none" stroke-linecap="round"/>
      </g>
      <g transform="translate(20,350)">
        <text x="0" y="0" font-size="10" font-weight="700" fill="#5b6e8c" letter-spacing="1.0">DATA PRIBADI</text>
      </g>
      <g transform="translate(20,366)">
        <text x="0" y="0" font-size="11" font-weight="700" fill="#0E2553">Jenis kelamin</text>
        <g transform="translate(0,12)">
          <rect width="160" height="40" rx="10" fill="#143068"/>
          <text x="80" y="25" font-size="12" font-weight="700" fill="#FFFFFF" text-anchor="middle">Laki-laki</text>
        </g>
        <g transform="translate(170,12)">
          <rect width="165" height="40" rx="10" fill="#FFFFFF" stroke="#E2E8F0"/>
          <text x="82" y="25" font-size="12" font-weight="700" fill="#5b6e8c" text-anchor="middle">Perempuan</text>
        </g>
      </g>
      <g transform="translate(20,430)">
        <text x="0" y="0" font-size="11" font-weight="700" fill="#0E2553">Tanggal lahir</text>
        <rect x="0" y="8" width="335" height="44" rx="10" fill="#FFFFFF" stroke="#E2E8F0"/>
        <text x="14" y="34" font-size="12" font-weight="600" fill="#0E2553">12/03/2012</text>
      </g>
      <g transform="translate(20,494)">
        <text x="0" y="0" font-size="11" font-weight="700" fill="#0E2553">Nama wali</text>
        <rect x="0" y="8" width="335" height="44" rx="10" fill="#FFFFFF" stroke="#E2E8F0"/>
        <text x="14" y="34" font-size="12" font-weight="600" fill="#0E2553">Bp. Hasymi</text>
      </g>

      <!-- Dirty banner -->
      <g transform="translate(20,562)">
        <rect width="335" height="36" rx="10" fill="#FEF7E0" stroke="#FCD34D"/>
        <circle cx="18" cy="18" r="6" fill="#F59E0B"/>
        <text x="18" y="22" font-size="9" font-weight="800" fill="#FFFFFF" text-anchor="middle">!</text>
        <text x="32" y="22" font-size="11" font-weight="700" fill="#92400E">Ada 1 perubahan belum disimpan · Kelas</text>
      </g>

      <!-- Footer -->
      <line x1="0" y1="612" x2="375" y2="612" stroke="#E2E8F0"/>
      <g transform="translate(20,624)">
        <rect width="100" height="48" rx="12" fill="#FFFFFF" stroke="#E2E8F0"/>
        <text x="50" y="29" font-size="13" font-weight="700" fill="#5b6e8c" text-anchor="middle">Batal</text>
      </g>
      <g transform="translate(135,624)">
        <rect width="220" height="48" rx="12" fill="url(#adminHero)"/>
        <text x="110" y="30" font-size="13" font-weight="800" fill="#FFFFFF" text-anchor="middle">Simpan Perubahan</text>
      </g>
    </g>

    <g transform="translate(395,140)" font-size="10" fill="#5b6e8c">
      <line x1="-20" y1="20" x2="-4" y2="20" stroke="#94a3b8" stroke-width="1" stroke-dasharray="3 2"/>
      <text y="23">"MENGEDIT:" context strip — InitialsAvatar + entity meta</text>
    </g>
    <g transform="translate(395,310)" font-size="10" fill="#5b6e8c">
      <line x1="-20" y1="20" x2="-4" y2="20" stroke="#94a3b8" stroke-width="1" stroke-dasharray="3 2"/>
      <text y="23">Dirty field — amber border + DIUBAH chip on the field</text>
    </g>
    <g transform="translate(395,650)" font-size="10" fill="#5b6e8c">
      <line x1="-20" y1="20" x2="-4" y2="20" stroke="#94a3b8" stroke-width="1" stroke-dasharray="3 2"/>
      <text y="23">Dirty banner — N changes pending; Batal warns "Buang perubahan?"</text>
    </g>
  </g>

  <!-- =================================================== -->
  <!-- D. DELETE CONFIRM — ConfirmationDialog              -->
  <!-- =================================================== -->
  <g transform="translate(40,940)">
    <text x="0" y="-12" font-size="13" font-weight="700" fill="#0E2553">D · Delete confirm — ConfirmationDialog (destructive · type-to-confirm pattern)</text>

    <rect x="0" y="0" width="375" height="780" rx="36" fill="#FFFFFF" stroke="#D9E1EC" stroke-width="1.5"/>
    <rect x="0" y="0" width="375" height="34" rx="36" fill="#FFFFFF"/>
    <text x="20" y="22" font-size="11" font-weight="700" fill="#0E2553">9:41</text>
    <rect x="0" y="34" width="375" height="746" fill="#0E2553" fill-opacity="0.55"/>

    <!-- centered modal -->
    <g transform="translate(20,160)" filter="url(#sheetShadow)">
      <rect width="335" height="430" rx="22" fill="#FFFFFF"/>

      <!-- danger icon -->
      <g transform="translate(135,32)">
        <circle cx="32" cy="32" r="32" fill="url(#dangerBg)"/>
        <circle cx="32" cy="32" r="22" fill="#DC2626"/>
        <path d="M32 22 V36 M32 42 V44" stroke="#FFFFFF" stroke-width="3" stroke-linecap="round"/>
      </g>

      <!-- title -->
      <text x="167" y="124" font-size="17" font-weight="800" fill="#0E2553" text-anchor="middle">Hapus siswa ini?</text>
      <text x="167" y="148" font-size="12" fill="#5b6e8c" text-anchor="middle">Tindakan ini tidak bisa dibatalkan.</text>
      <text x="167" y="164" font-size="12" fill="#5b6e8c" text-anchor="middle">Semua nilai &amp; kehadiran terkait akan ikut terhapus.</text>

      <!-- entity card -->
      <g transform="translate(20,184)">
        <rect width="295" height="60" rx="12" fill="#F4F7FB" stroke="#E2E8F0"/>
        <circle cx="34" cy="30" r="18" fill="url(#adminAvatar)"/>
        <text x="34" y="35" font-size="13" font-weight="800" fill="#FFFFFF" text-anchor="middle">AY</text>
        <text x="62" y="22" font-size="9" font-weight="700" fill="#5b6e8c" letter-spacing="0.6">7A · NIS 1234567</text>
        <text x="62" y="42" font-size="13" font-weight="800" fill="#0E2553">Ahmad Yahya Hasymi</text>
      </g>

      <!-- "type to confirm" -->
      <text x="20" y="278" font-size="10" font-weight="700" fill="#5b6e8c" letter-spacing="1.0">KETIK NAMA UNTUK KONFIRMASI</text>
      <g transform="translate(20,288)">
        <rect width="295" height="44" rx="10" fill="#FFFFFF" stroke="#FCA5A5" stroke-width="1.4"/>
        <text x="14" y="29" font-size="12" font-weight="600" fill="#0E2553">Ahmad Yahya Hasymi</text>
        <path d="M268 22 L276 30 L286 18" stroke="#16a34a" stroke-width="2" fill="none" stroke-linecap="round" stroke-linejoin="round"/>
      </g>

      <!-- footer buttons -->
      <line x1="0" y1="358" x2="335" y2="358" stroke="#E2E8F0"/>
      <g transform="translate(20,372)">
        <rect width="135" height="46" rx="12" fill="#FFFFFF" stroke="#E2E8F0"/>
        <text x="68" y="28" font-size="13" font-weight="700" fill="#5b6e8c" text-anchor="middle">Batal</text>
      </g>
      <g transform="translate(170,372)">
        <rect width="145" height="46" rx="12" fill="#DC2626"/>
        <path d="M52 22 L52 32 M58 22 L58 32 M48 18 H66 M50 14 H64" stroke="#FFFFFF" stroke-width="1.6" stroke-linecap="round"/>
        <text x="92" y="28" font-size="13" font-weight="800" fill="#FFFFFF" text-anchor="middle">Hapus</text>
      </g>
    </g>

    <g transform="translate(395,180)" font-size="10" fill="#5b6e8c">
      <line x1="-20" y1="20" x2="-4" y2="20" stroke="#94a3b8" stroke-width="1" stroke-dasharray="3 2"/>
      <text y="23">ConfirmationDialog — danger style (red icon, slate body)</text>
    </g>
    <g transform="translate(395,360)" font-size="10" fill="#5b6e8c">
      <line x1="-20" y1="20" x2="-4" y2="20" stroke="#94a3b8" stroke-width="1" stroke-dasharray="3 2"/>
      <text y="23">Entity preview card — confirms WHO is being deleted (avoids tap-mistakes)</text>
    </g>
    <g transform="translate(395,460)" font-size="10" fill="#5b6e8c">
      <line x1="-20" y1="20" x2="-4" y2="20" stroke="#94a3b8" stroke-width="1" stroke-dasharray="3 2"/>
      <text y="23">Type-to-confirm — Hapus button stays disabled until name matches</text>
    </g>
  </g>

  <!-- =================================================== -->
  <!-- E. BULK SELECT + BULK DELETE                         -->
  <!-- =================================================== -->
  <g transform="translate(720,940)">
    <text x="0" y="-12" font-size="13" font-weight="700" fill="#0E2553">E · Bulk select — long-press card → BrandListRow.selected + BulkActionBar</text>

    <rect x="0" y="0" width="375" height="780" rx="36" fill="#FFFFFF" stroke="#D9E1EC" stroke-width="1.5"/>
    <rect x="0" y="0" width="375" height="34" rx="36" fill="#FFFFFF"/>
    <text x="20" y="22" font-size="11" font-weight="700" fill="#0E2553">9:41</text>

    <!-- compact admin hero -->
    <path d="M0,34 H375 V146 Q375,162 359,162 H16 Q0,162 0,146 Z" fill="url(#adminHero)"/>
    <!-- toolbar -->
    <g transform="translate(16,46)">
      <rect width="32" height="32" rx="10" fill="#ffffff" fill-opacity="0.16"/>
      <path d="M11 10 L21 22 M21 10 L11 22" stroke="#fff" stroke-width="2" stroke-linecap="round"/>
    </g>
    <text x="60" y="68" font-size="14" font-weight="800" fill="#FFFFFF">3 dipilih</text>
    <g transform="translate(290,46)">
      <rect width="32" height="32" rx="10" fill="#ffffff" fill-opacity="0.16"/>
      <text x="16" y="22" font-size="11" font-weight="700" fill="#FFFFFF" text-anchor="middle">⊟</text>
    </g>
    <g transform="translate(327,46)">
      <rect width="32" height="32" rx="10" fill="#ffffff" fill-opacity="0.16"/>
      <text x="16" y="22" font-size="11" font-weight="700" fill="#FFFFFF" text-anchor="middle">⊠</text>
    </g>
    <text x="16" y="118" font-size="11" font-weight="700" fill="#9DC4E8">Pilih lainnya, atau pilih aksi di bawah.</text>

    <!-- Selected cards (3) -->
    <g transform="translate(0,178)">
      <!-- card 1 selected -->
      <g transform="translate(16,0)" filter="url(#cardShadow)">
        <rect width="343" height="86" rx="16" fill="#F0F4FB" stroke="#143068" stroke-width="1.4"/>
        <rect x="14" y="20" width="44" height="44" rx="11" fill="url(#adminAvatar)"/>
        <text x="36" y="48" font-size="14" font-weight="800" fill="#FFFFFF" text-anchor="middle">AY</text>
        <text x="68" y="32" font-size="11" font-weight="600" fill="#5b6e8c">7A · NIS 1234567</text>
        <text x="68" y="50" font-size="14" font-weight="800" fill="#0E2553">Ahmad Yahya Hasymi</text>
        <g transform="translate(68,60)">
          <circle cx="3" cy="6" r="3" fill="#16a34a"/>
          <text x="11" y="9" font-size="11" font-weight="700" fill="#15803d">Aktif</text>
        </g>
        <circle cx="320" cy="42" r="14" fill="#143068"/>
        <path d="M313 42 L319 48 L327 36" stroke="#FFFFFF" stroke-width="2" fill="none" stroke-linecap="round" stroke-linejoin="round"/>
      </g>

      <!-- card 2 selected -->
      <g transform="translate(16,98)" filter="url(#cardShadow)">
        <rect width="343" height="86" rx="16" fill="#F0F4FB" stroke="#143068" stroke-width="1.4"/>
        <rect x="14" y="20" width="44" height="44" rx="11" fill="url(#adminAvatar)"/>
        <text x="36" y="48" font-size="14" font-weight="800" fill="#FFFFFF" text-anchor="middle">SR</text>
        <text x="68" y="32" font-size="11" font-weight="600" fill="#5b6e8c">7A · NIS 1234568</text>
        <text x="68" y="50" font-size="14" font-weight="800" fill="#0E2553">Siti Rahmawati</text>
        <g transform="translate(68,60)">
          <circle cx="3" cy="6" r="3" fill="#16a34a"/>
          <text x="11" y="9" font-size="11" font-weight="700" fill="#15803d">Aktif</text>
        </g>
        <circle cx="320" cy="42" r="14" fill="#143068"/>
        <path d="M313 42 L319 48 L327 36" stroke="#FFFFFF" stroke-width="2" fill="none" stroke-linecap="round" stroke-linejoin="round"/>
      </g>

      <!-- card 3 unselected -->
      <g transform="translate(16,196)" filter="url(#cardShadow)">
        <rect width="343" height="86" rx="16" fill="#FFFFFF" stroke="#E2E8F0" stroke-width="0.75"/>
        <rect x="14" y="20" width="44" height="44" rx="11" fill="url(#adminAvatar)"/>
        <text x="36" y="48" font-size="14" font-weight="800" fill="#FFFFFF" text-anchor="middle">DK</text>
        <text x="68" y="32" font-size="11" font-weight="600" fill="#5b6e8c">7B · NIS 1234569</text>
        <text x="68" y="50" font-size="14" font-weight="800" fill="#0E2553">Dewi Kartika</text>
        <g transform="translate(68,60)">
          <circle cx="3" cy="6" r="3" fill="#16a34a"/>
          <text x="11" y="9" font-size="11" font-weight="700" fill="#15803d">Aktif</text>
        </g>
        <circle cx="320" cy="42" r="14" fill="none" stroke="#CBD5E1" stroke-width="1.4"/>
      </g>

      <!-- card 4 selected -->
      <g transform="translate(16,294)" filter="url(#cardShadow)">
        <rect width="343" height="86" rx="16" fill="#F0F4FB" stroke="#143068" stroke-width="1.4"/>
        <rect x="14" y="20" width="44" height="44" rx="11" fill="url(#adminAvatar)"/>
        <text x="36" y="48" font-size="14" font-weight="800" fill="#FFFFFF" text-anchor="middle">RH</text>
        <text x="68" y="32" font-size="11" font-weight="600" fill="#5b6e8c">7B · NIS 1234570</text>
        <text x="68" y="50" font-size="14" font-weight="800" fill="#0E2553">Rian Hidayat</text>
        <g transform="translate(68,60)">
          <circle cx="3" cy="6" r="3" fill="#16a34a"/>
          <text x="11" y="9" font-size="11" font-weight="700" fill="#15803d">Aktif</text>
        </g>
        <circle cx="320" cy="42" r="14" fill="#143068"/>
        <path d="M313 42 L319 48 L327 36" stroke="#FFFFFF" stroke-width="2" fill="none" stroke-linecap="round" stroke-linejoin="round"/>
      </g>
    </g>

    <!-- BulkActionBar (floating bottom) -->
    <g transform="translate(16,650)" filter="url(#sheetShadow)">
      <rect width="343" height="86" rx="22" fill="#FFFFFF" stroke="#E2E8F0"/>
      <!-- selection summary -->
      <g transform="translate(14,18)">
        <rect width="80" height="50" rx="14" fill="#143068"/>
        <text x="40" y="22" font-size="9" font-weight="700" fill="#9DC4E8" text-anchor="middle">DIPILIH</text>
        <text x="40" y="42" font-size="20" font-weight="800" fill="#FFFFFF" text-anchor="middle">3</text>
      </g>
      <!-- pindah kelas -->
      <g transform="translate(102,30)">
        <circle cx="20" cy="14" r="18" fill="#E0EBFF"/>
        <path d="M14 12 H26 M22 8 L26 12 L22 16" stroke="#1E40AF" stroke-width="1.6" fill="none" stroke-linecap="round"/>
        <text x="20" y="48" font-size="9" font-weight="700" fill="#0E2553" text-anchor="middle">Pindah</text>
      </g>
      <!-- ekspor -->
      <g transform="translate(166,30)">
        <circle cx="20" cy="14" r="18" fill="#E6F7EE"/>
        <path d="M16 12 H24 M20 6 V18 M14 14 L20 20 L26 14" stroke="#15803d" stroke-width="1.6" fill="none" stroke-linecap="round" stroke-linejoin="round"/>
        <text x="20" y="48" font-size="9" font-weight="700" fill="#0E2553" text-anchor="middle">Ekspor</text>
      </g>
      <!-- arsip -->
      <g transform="translate(230,30)">
        <circle cx="20" cy="14" r="18" fill="#FEF3C7"/>
        <path d="M14 8 H26 M14 12 H26 M16 14 V20 M24 14 V20 M16 18 H24" stroke="#92400E" stroke-width="1.6" fill="none" stroke-linecap="round"/>
        <text x="20" y="48" font-size="9" font-weight="700" fill="#0E2553" text-anchor="middle">Arsip</text>
      </g>
      <!-- delete (danger) -->
      <g transform="translate(294,30)">
        <circle cx="20" cy="14" r="18" fill="#DC2626"/>
        <path d="M14 8 H26 M16 8 V18 M24 8 V18 M18 8 V6 H22 V8" stroke="#FFFFFF" stroke-width="1.6" fill="none" stroke-linecap="round"/>
        <text x="20" y="48" font-size="9" font-weight="800" fill="#DC2626" text-anchor="middle">Hapus</text>
      </g>
    </g>

    <g transform="translate(395,60)" font-size="10" fill="#5b6e8c">
      <line x1="-20" y1="20" x2="-4" y2="20" stroke="#94a3b8" stroke-width="1" stroke-dasharray="3 2"/>
      <text y="23">Hero swaps: back → close, title → "N dipilih", icons → select-all / deselect</text>
    </g>
    <g transform="translate(395,200)" font-size="10" fill="#5b6e8c">
      <line x1="-20" y1="20" x2="-4" y2="20" stroke="#94a3b8" stroke-width="1" stroke-dasharray="3 2"/>
      <text y="23">BrandListRow.selected = true — navy tint + check overlay (replaces chevron)</text>
    </g>
    <g transform="translate(395,680)" font-size="10" fill="#5b6e8c">
      <line x1="-20" y1="20" x2="-4" y2="20" stroke="#94a3b8" stroke-width="1" stroke-dasharray="3 2"/>
      <text y="23">BulkActionBar — count pill + 4 actions (Pindah / Ekspor / Arsip / Hapus)</text>
    </g>
  </g>

  <!-- =================================================== -->
  <!-- F. Bulk delete confirm                              -->
  <!-- =================================================== -->
  <g transform="translate(1400,940)">
    <text x="0" y="-12" font-size="13" font-weight="700" fill="#0E2553">F · Bulk delete confirm — ConfirmationDialog (multi-entity)</text>

    <rect x="0" y="0" width="375" height="780" rx="36" fill="#FFFFFF" stroke="#D9E1EC" stroke-width="1.5"/>
    <rect x="0" y="0" width="375" height="34" rx="36" fill="#FFFFFF"/>
    <text x="20" y="22" font-size="11" font-weight="700" fill="#0E2553">9:41</text>
    <rect x="0" y="34" width="375" height="746" fill="#0E2553" fill-opacity="0.55"/>

    <g transform="translate(20,140)" filter="url(#sheetShadow)">
      <rect width="335" height="490" rx="22" fill="#FFFFFF"/>

      <!-- danger icon -->
      <g transform="translate(135,32)">
        <circle cx="32" cy="32" r="32" fill="url(#dangerBg)"/>
        <circle cx="32" cy="32" r="22" fill="#DC2626"/>
        <text x="32" y="40" font-size="16" font-weight="800" fill="#FFFFFF" text-anchor="middle">3</text>
      </g>

      <text x="167" y="124" font-size="17" font-weight="800" fill="#0E2553" text-anchor="middle">Hapus 3 siswa sekaligus?</text>
      <text x="167" y="148" font-size="12" fill="#5b6e8c" text-anchor="middle">Tindakan ini tidak bisa dibatalkan dan akan</text>
      <text x="167" y="164" font-size="12" fill="#5b6e8c" text-anchor="middle">menghapus semua data terkait siswa-siswa ini.</text>

      <!-- entity stack -->
      <text x="20" y="194" font-size="10" font-weight="700" fill="#5b6e8c" letter-spacing="1.0">SISWA YANG AKAN DIHAPUS</text>
      <g transform="translate(20,206)">
        <rect width="295" height="40" rx="10" fill="#F4F7FB"/>
        <circle cx="22" cy="20" r="13" fill="url(#adminAvatar)"/>
        <text x="22" y="24" font-size="9" font-weight="800" fill="#FFFFFF" text-anchor="middle">AY</text>
        <text x="42" y="24" font-size="11" font-weight="700" fill="#0E2553">Ahmad Yahya Hasymi · 7A</text>
      </g>
      <g transform="translate(20,252)">
        <rect width="295" height="40" rx="10" fill="#F4F7FB"/>
        <circle cx="22" cy="20" r="13" fill="url(#adminAvatar)"/>
        <text x="22" y="24" font-size="9" font-weight="800" fill="#FFFFFF" text-anchor="middle">SR</text>
        <text x="42" y="24" font-size="11" font-weight="700" fill="#0E2553">Siti Rahmawati · 7A</text>
      </g>
      <g transform="translate(20,298)">
        <rect width="295" height="40" rx="10" fill="#F4F7FB"/>
        <circle cx="22" cy="20" r="13" fill="url(#adminAvatar)"/>
        <text x="22" y="24" font-size="9" font-weight="800" fill="#FFFFFF" text-anchor="middle">RH</text>
        <text x="42" y="24" font-size="11" font-weight="700" fill="#0E2553">Rian Hidayat · 7B</text>
      </g>

      <!-- type-to-confirm: HAPUS -->
      <text x="20" y="368" font-size="10" font-weight="700" fill="#5b6e8c" letter-spacing="1.0">KETIK "HAPUS" UNTUK KONFIRMASI</text>
      <g transform="translate(20,378)">
        <rect width="295" height="44" rx="10" fill="#FFFFFF" stroke="#FCA5A5" stroke-width="1.4"/>
        <text x="14" y="29" font-size="13" font-weight="800" fill="#DC2626" letter-spacing="2">HAPUS</text>
        <path d="M268 22 L276 30 L286 18" stroke="#16a34a" stroke-width="2" fill="none" stroke-linecap="round" stroke-linejoin="round"/>
      </g>

      <line x1="0" y1="438" x2="335" y2="438" stroke="#E2E8F0"/>
      <g transform="translate(20,452)">
        <rect width="135" height="46" rx="12" fill="#FFFFFF" stroke="#E2E8F0"/>
        <text x="68" y="28" font-size="13" font-weight="700" fill="#5b6e8c" text-anchor="middle">Batal</text>
      </g>
      <g transform="translate(170,452)">
        <rect width="145" height="46" rx="12" fill="#DC2626"/>
        <text x="72" y="28" font-size="13" font-weight="800" fill="#FFFFFF" text-anchor="middle">Hapus 3</text>
      </g>
    </g>

    <g transform="translate(395,180)" font-size="10" fill="#5b6e8c">
      <line x1="-20" y1="20" x2="-4" y2="20" stroke="#94a3b8" stroke-width="1" stroke-dasharray="3 2"/>
      <text y="23">Same ConfirmationDialog component, multi-entity preview list</text>
    </g>
    <g transform="translate(395,400)" font-size="10" fill="#5b6e8c">
      <line x1="-20" y1="20" x2="-4" y2="20" stroke="#94a3b8" stroke-width="1" stroke-dasharray="3 2"/>
      <text y="23">Type-to-confirm uses literal "HAPUS" (avoids typing N names)</text>
    </g>
  </g>

  <!-- ====================== SHARED COMPONENT INVENTORY PANEL ====================== -->
  <g transform="translate(40,1760)">
    <rect width="2000" height="500" rx="20" fill="#FFFFFF" stroke="#D9E1EC" stroke-width="1.5"/>
    <text x="24" y="36" font-size="16" font-weight="800" fill="#0E2553">Shared component inventory — every flow uses these (no per-feature copies)</text>
    <text x="24" y="58" font-size="11" fill="#5b6e8c">All five flows compose components that already exist in lib/core/widgets/. Per-feature implementations only provide field models + handlers; the visuals come from these shared blocks.</text>

    <!-- Column 1 -->
    <g transform="translate(24,86)">
      <text x="0" y="0" font-size="11" font-weight="800" fill="#143068" letter-spacing="0.6">SHEET / DIALOG SCAFFOLDS</text>
      <g font-size="11" fill="#0E2553">
        <text y="22" font-weight="700">• AppBottomSheet</text>
        <text y="36" fill="#5b6e8c">    Detail screen — full-height scrollable</text>
        <text y="56" font-weight="700">• AppEditBottomSheet</text>
        <text y="70" fill="#5b6e8c">    Create + Update — pre-wired Batal/Simpan</text>
        <text y="90" font-weight="700">• ConfirmationDialog</text>
        <text y="104" fill="#5b6e8c">    Single + bulk delete confirm (danger style)</text>
        <text y="124" font-weight="700">• AppFilterBottomSheet</text>
        <text y="138" fill="#5b6e8c">    Multi-section filter sheet (existing)</text>
        <text y="158" font-weight="700">• BrandHeroSheet</text>
        <text y="172" fill="#5b6e8c">    Single-filter picker (existing)</text>
      </g>
    </g>

    <!-- Column 2 -->
    <g transform="translate(360,86)">
      <text x="0" y="0" font-size="11" font-weight="800" fill="#143068" letter-spacing="0.6">SHEET INTERNALS</text>
      <g font-size="11" fill="#0E2553">
        <text y="22" font-weight="700">• BottomSheetHeader</text>
        <text y="36" fill="#5b6e8c">    Leading icon tile + kicker + title + close</text>
        <text y="56" font-weight="700">• BottomSheetFooter</text>
        <text y="70" fill="#5b6e8c">    Batal (outline) + primary CTA, Samsung-safe</text>
        <text y="90" font-weight="700">• FormFieldSection</text>
        <text y="104" fill="#5b6e8c">    Label + required-asterisk + field slot</text>
        <text y="124" font-weight="700">• FilterSectionHeader</text>
        <text y="138" fill="#5b6e8c">    Section divider with icon + uppercase label</text>
        <text y="158" font-weight="700">• DragHandle</text>
        <text y="172" fill="#5b6e8c">    42×4 px slate top affordance</text>
      </g>
    </g>

    <!-- Column 3 -->
    <g transform="translate(680,86)">
      <text x="0" y="0" font-size="11" font-weight="800" fill="#143068" letter-spacing="0.6">LIST / ROW</text>
      <g font-size="11" fill="#0E2553">
        <text y="22" font-weight="700">• AdminCrudScaffold</text>
        <text y="36" fill="#5b6e8c">    BrandPageHeader + chips + search + body + FAB</text>
        <text y="56" font-weight="700">• BrandListRow</text>
        <text y="70" fill="#5b6e8c">    SS2 layout — meta+title+status+Detail→</text>
        <text y="90" font-weight="700">  └ BrandListRow.selected</text>
        <text y="104" fill="#5b6e8c">    bulk-mode highlight (navy tint + ✓ overlay)</text>
        <text y="124" font-weight="700">• BulkActionBar</text>
        <text y="138" fill="#5b6e8c">    floating bottom bar with circular actions</text>
        <text y="158" font-weight="700">• PaginatedListView</text>
        <text y="172" fill="#5b6e8c">    Infinite scroll + load-more spinner</text>
      </g>
    </g>

    <!-- Column 4 -->
    <g transform="translate(1000,86)">
      <text x="0" y="0" font-size="11" font-weight="800" fill="#143068" letter-spacing="0.6">VISUAL ATOMS</text>
      <g font-size="11" fill="#0E2553">
        <text y="22" font-weight="700">• InitialsAvatar</text>
        <text y="36" fill="#5b6e8c">    solid / gradient / tinted / onDark variants</text>
        <text y="56" font-weight="700">• BrandRowStatus / BrandRowChip</text>
        <text y="70" fill="#5b6e8c">    Inline dot-status + secondary chip</text>
        <text y="90" font-weight="700">• BrandHeaderIconButton</text>
        <text y="104" fill="#5b6e8c">    36×36 white-tint icon button (header trail)</text>
        <text y="124" font-weight="700">• BrandRealtimePill</text>
        <text y="138" fill="#5b6e8c">    Pulsing green-dot · last-sync</text>
        <text y="158" font-weight="700">• AppRefreshIndicator</text>
        <text y="172" fill="#5b6e8c">    Pull-to-refresh w/ role accent (replaces menu)</text>
      </g>
    </g>

    <!-- Column 5 — flow → component map -->
    <g transform="translate(1340,86)">
      <text x="0" y="0" font-size="11" font-weight="800" fill="#143068" letter-spacing="0.6">FLOW → COMPONENT MAP</text>
      <g font-size="10.5" fill="#5b6e8c">
        <text y="22"><tspan font-weight="700" fill="#0E2553">A. Detail   </tspan>→ AppBottomSheet + InitialsAvatar.gradient</text>
        <text y="38">             + FormFieldSection (label/value rows) + BottomSheetFooter</text>
        <text y="60"><tspan font-weight="700" fill="#0E2553">B. Create   </tspan>→ AppEditBottomSheet + FormFieldSection</text>
        <text y="76">             + StudentDialogTextField/Dropdown + BottomSheetFooter</text>
        <text y="98"><tspan font-weight="700" fill="#0E2553">C. Update   </tspan>→ Same as B + dirty-tracking banner +</text>
        <text y="114">             "MENGEDIT" context strip with InitialsAvatar</text>
        <text y="136"><tspan font-weight="700" fill="#0E2553">D. Delete   </tspan>→ ConfirmationDialog + entity preview card</text>
        <text y="152">             + type-to-confirm field</text>
        <text y="174"><tspan font-weight="700" fill="#0E2553">E. Bulk     </tspan>→ BrandListRow.selected + BulkActionBar</text>
        <text y="190">             + AdminCrudScaffold's bulk-mode hero swap</text>
        <text y="212"><tspan font-weight="700" fill="#0E2553">F. BulkDel  </tspan>→ ConfirmationDialog + multi-entity preview</text>
        <text y="228">             + literal-string type-to-confirm ("HAPUS")</text>
      </g>
    </g>

    <!-- Footer note -->
    <line x1="24" y1="320" x2="1976" y2="320" stroke="#E2E8F0"/>
    <text x="24" y="350" font-size="13" font-weight="800" fill="#0E2553">Cross-role consistency rule</text>
    <text x="24" y="370" font-size="11" fill="#5b6e8c">Every Siswa / Guru / Kelas / Mapel / Jadwal screen consumes the same scaffolds and atoms above. Per-feature code only owns:</text>
    <g transform="translate(24,386)" font-size="11" fill="#0E2553">
      <text y="0" font-weight="700">  1. The data layer</text>
      <text y="0" x="172" fill="#5b6e8c">— controller + repository (loadData, save, delete, bulkDelete)</text>
      <text y="20" font-weight="700">  2. The form fields</text>
      <text y="20" x="172" fill="#5b6e8c">— list of FormFieldSection definitions per entity (Siswa = nama/NIS/kelas/…)</text>
      <text y="40" font-weight="700">  3. The detail rows</text>
      <text y="40" x="172" fill="#5b6e8c">— label/value pairs rendered inside AppBottomSheet body</text>
      <text y="60" font-weight="700">  4. The chip taxonomy</text>
      <text y="60" x="172" fill="#5b6e8c">— BrandFilterChip list passed to AdminCrudScaffold (already done in v3)</text>
    </g>
  </g>
</svg>
