<svg xmlns="http://www.w3.org/2000/svg" viewBox="0 0 1320 1280" font-family="Inter, -apple-system, system-ui, sans-serif">
  <defs>
    <linearGradient id="adminHero" x1="0" y1="0" x2="1" y2="1">
      <stop offset="0" stop-color="#143068"/>
      <stop offset="1" stop-color="#1F4A8F"/>
    </linearGradient>
    <linearGradient id="emeraldGrad" x1="0" y1="0" x2="0" y2="1">
      <stop offset="0" stop-color="#10B981"/>
      <stop offset="1" stop-color="#047857"/>
    </linearGradient>
    <linearGradient id="violetGrad" x1="0" y1="0" x2="0" y2="1">
      <stop offset="0" stop-color="#8B5CF6"/>
      <stop offset="1" stop-color="#6D28D9"/>
    </linearGradient>
    <linearGradient id="blueGrad" x1="0" y1="0" x2="0" y2="1">
      <stop offset="0" stop-color="#3B82F6"/>
      <stop offset="1" stop-color="#1E40AF"/>
    </linearGradient>
    <linearGradient id="amberGrad" x1="0" y1="0" x2="0" y2="1">
      <stop offset="0" stop-color="#F59E0B"/>
      <stop offset="1" stop-color="#B45309"/>
    </linearGradient>
    <filter id="phoneShadow" x="-10%" y="-5%" width="120%" height="115%">
      <feDropShadow dx="0" dy="14" stdDeviation="20" flood-color="#0F172A" flood-opacity="0.12"/>
    </filter>
    <filter id="cardShadow" x="-20%" y="-20%" width="140%" height="160%">
      <feDropShadow dx="0" dy="6" stdDeviation="10" flood-color="#0F172A" flood-opacity="0.08"/>
    </filter>
    <filter id="kpiShadow" x="-20%" y="-20%" width="140%" height="160%">
      <feDropShadow dx="0" dy="4" stdDeviation="8" flood-color="#0F172A" flood-opacity="0.06"/>
    </filter>
  </defs>

  <rect width="1320" height="1280" fill="#F8FAFC"/>

  <!-- TITLE -->
  <text x="60" y="58" font-weight="800" font-size="26" fill="#0F172A">Admin Mockup 01c · KPI Paired Auto-slide</text>
  <text x="60" y="84" font-size="13" fill="#64748B">2 cards per page · top progress bar = slice cycle within card · outer pair-page dots · auto-slide every 5s · 400ms transition</text>
  <rect x="60" y="100" width="1200" height="1" fill="#E2E8F0"/>

  <!-- ==================================================== -->
  <!-- FRAME T0 — Page 1, slice 1 of each card               -->
  <!-- ==================================================== -->
  <g transform="translate(80, 130)">
    <text x="0" y="14" font-weight="800" font-size="13" fill="#0F172A">T₀  Page 1 / 2 · slice 1 of each card</text>
    <text x="0" y="32" font-size="11" fill="#64748B">Both cards just settled. Top bars are about to start filling.</text>
  </g>

  <g transform="translate(80, 180)" filter="url(#phoneShadow)">
    <rect width="380" height="380" rx="32" fill="white"/>
    <rect width="380" height="380" rx="32" fill="none" stroke="#E2E8F0"/>

    <!-- Hero teaser -->
    <rect x="0" y="0" width="380" height="120" rx="32" fill="url(#adminHero)"/>
    <rect x="0" y="48" width="380" height="72" fill="url(#adminHero)"/>
    <text x="20" y="80" font-size="11" fill="rgba(255,255,255,0.8)">SMP Kamil Edu A · 2025/2026 Ganjil</text>
    <text x="20" y="106" font-weight="800" font-size="18" fill="white">Pantau hari ini</text>

    <!-- KPI page 1 — 2 cards -->
    <!-- Card A — Kehadiran -->
    <g transform="translate(16, 144)" filter="url(#kpiShadow)">
      <rect width="170" height="148" rx="18" fill="white"/>
      <!-- Top progress bar — 3 segments, segment 1 just starting (≈10%) -->
      <g transform="translate(14, 14)">
        <rect width="50" height="4" rx="2" fill="#F1F5F9"/>
        <rect width="6" height="4" rx="2" fill="#15803D"/>
        <rect x="56" width="50" height="4" rx="2" fill="#F1F5F9"/>
        <rect x="112" width="30" height="4" rx="2" fill="#F1F5F9"/>
      </g>
      <!-- icon -->
      <rect x="14" y="28" width="32" height="32" rx="11" fill="url(#emeraldGrad)"/>
      <g transform="translate(22, 36)" fill="none" stroke="white" stroke-width="2" stroke-linecap="round" stroke-linejoin="round">
        <path d="M2 9 L7 14 L14 4"/>
      </g>
      <text x="54" y="40" font-size="10.5" font-weight="800" fill="#0F172A">Kehadiran</text>
      <text x="54" y="56" font-size="10" fill="#15803D" font-weight="700">Semua siswa</text>
      <text x="14" y="98" font-weight="800" font-size="28" fill="#0F172A">94%</text>
      <text x="14" y="116" font-size="10" fill="#64748B">1,173 / 1,248 hadir</text>
      <text x="14" y="132" font-size="9" fill="#94A3B8">Slice 1 / 3</text>
    </g>

    <!-- Card B — Nilai -->
    <g transform="translate(194, 144)" filter="url(#kpiShadow)">
      <rect width="170" height="148" rx="18" fill="white"/>
      <g transform="translate(14, 14)">
        <rect width="40" height="4" rx="2" fill="#F1F5F9"/>
        <rect width="5" height="4" rx="2" fill="#6D28D9"/>
        <rect x="46" width="40" height="4" rx="2" fill="#F1F5F9"/>
        <rect x="92" width="40" height="4" rx="2" fill="#F1F5F9"/>
        <rect x="138" width="6" height="4" rx="2" fill="#F1F5F9"/>
      </g>
      <rect x="14" y="28" width="32" height="32" rx="11" fill="url(#violetGrad)"/>
      <g transform="translate(22, 36)" fill="none" stroke="white" stroke-width="2" stroke-linecap="round" stroke-linejoin="round">
        <path d="M2 14 L6 9 L9 11 L14 4"/>
      </g>
      <text x="54" y="40" font-size="10.5" font-weight="800" fill="#0F172A">Nilai Rata-rata</text>
      <text x="54" y="56" font-size="10" fill="#6D28D9" font-weight="700">Semua mapel</text>
      <text x="14" y="98" font-weight="800" font-size="28" fill="#0F172A">82.4</text>
      <text x="14" y="116" font-size="10" fill="#64748B">14 mapel · 36 kelas</text>
      <text x="14" y="132" font-size="9" fill="#94A3B8">Slice 1 / 5</text>
    </g>

    <!-- Outer page dots -->
    <g transform="translate(190, 322)">
      <rect x="-12" y="-3" width="24" height="6" rx="3" fill="#143068"/>
      <circle cx="20" cy="0" r="3" fill="#CBD5E1"/>
    </g>
    <text x="190" y="346" text-anchor="middle" font-size="9" fill="#94A3B8">Page 1 of 2</text>
  </g>

  <!-- ==================================================== -->
  <!-- FRAME T+3s — same page, slices auto-advanced internally -->
  <!-- ==================================================== -->
  <g transform="translate(560, 130)">
    <text x="0" y="14" font-weight="800" font-size="13" fill="#0F172A">T₀ + 3s  Page 1 still · slice 2 inside each card</text>
    <text x="0" y="32" font-size="11" fill="#64748B">Each card cycles its own slices on its own timer (independent).</text>
  </g>

  <g transform="translate(560, 180)" filter="url(#phoneShadow)">
    <rect width="380" height="380" rx="32" fill="white"/>
    <rect width="380" height="380" rx="32" fill="none" stroke="#E2E8F0"/>
    <rect x="0" y="0" width="380" height="120" rx="32" fill="url(#adminHero)"/>
    <rect x="0" y="48" width="380" height="72" fill="url(#adminHero)"/>
    <text x="20" y="80" font-size="11" fill="rgba(255,255,255,0.8)">SMP Kamil Edu A · 2025/2026 Ganjil</text>
    <text x="20" y="106" font-weight="800" font-size="18" fill="white">Pantau hari ini</text>

    <!-- Card A — Kehadiran, now slice 2 (Kelas 7A) -->
    <g transform="translate(16, 144)" filter="url(#kpiShadow)">
      <rect width="170" height="148" rx="18" fill="white"/>
      <g transform="translate(14, 14)">
        <rect width="50" height="4" rx="2" fill="#15803D"/>
        <rect x="56" width="50" height="4" rx="2" fill="#F1F5F9"/>
        <rect x="56" width="20" height="4" rx="2" fill="#15803D"/>
        <rect x="112" width="30" height="4" rx="2" fill="#F1F5F9"/>
      </g>
      <rect x="14" y="28" width="32" height="32" rx="11" fill="url(#emeraldGrad)"/>
      <g transform="translate(22, 36)" fill="none" stroke="white" stroke-width="2" stroke-linecap="round" stroke-linejoin="round">
        <path d="M2 9 L7 14 L14 4"/>
      </g>
      <text x="54" y="40" font-size="10.5" font-weight="800" fill="#0F172A">Kehadiran</text>
      <text x="54" y="56" font-size="10" fill="#15803D" font-weight="700">Kelas 7A</text>
      <text x="14" y="98" font-weight="800" font-size="28" fill="#0F172A">92%</text>
      <text x="14" y="116" font-size="10" fill="#64748B">28 / 30 hadir</text>
      <text x="14" y="132" font-size="9" fill="#94A3B8">Slice 2 / 3</text>
    </g>

    <!-- Card B — Nilai, now slice 2 (Matematika) -->
    <g transform="translate(194, 144)" filter="url(#kpiShadow)">
      <rect width="170" height="148" rx="18" fill="white"/>
      <g transform="translate(14, 14)">
        <rect width="40" height="4" rx="2" fill="#6D28D9"/>
        <rect x="46" width="40" height="4" rx="2" fill="#F1F5F9"/>
        <rect x="46" width="14" height="4" rx="2" fill="#6D28D9"/>
        <rect x="92" width="40" height="4" rx="2" fill="#F1F5F9"/>
        <rect x="138" width="6" height="4" rx="2" fill="#F1F5F9"/>
      </g>
      <rect x="14" y="28" width="32" height="32" rx="11" fill="url(#violetGrad)"/>
      <g transform="translate(22, 36)" fill="none" stroke="white" stroke-width="2" stroke-linecap="round" stroke-linejoin="round">
        <path d="M2 14 L6 9 L9 11 L14 4"/>
      </g>
      <text x="54" y="40" font-size="10.5" font-weight="800" fill="#0F172A">Nilai Rata-rata</text>
      <text x="54" y="56" font-size="10" fill="#6D28D9" font-weight="700">Matematika</text>
      <text x="14" y="98" font-weight="800" font-size="28" fill="#0F172A">78.5</text>
      <text x="14" y="116" font-size="10" fill="#64748B">14 kelas · 1,248 siswa</text>
      <text x="14" y="132" font-size="9" fill="#94A3B8">Slice 2 / 5</text>
    </g>

    <g transform="translate(190, 322)">
      <rect x="-12" y="-3" width="24" height="6" rx="3" fill="#143068"/>
      <circle cx="20" cy="0" r="3" fill="#CBD5E1"/>
    </g>
    <text x="190" y="346" text-anchor="middle" font-size="9" fill="#94A3B8">Page 1 of 2</text>
  </g>

  <!-- ==================================================== -->
  <!-- FRAME T+5s — outer carousel auto-slides to page 2     -->
  <!-- ==================================================== -->
  <g transform="translate(80, 600)">
    <text x="0" y="14" font-weight="800" font-size="13" fill="#0F172A">T₀ + 5s  Outer carousel slides → page 2 (400ms ease)</text>
    <text x="0" y="32" font-size="11" fill="#64748B">Page-pair advances. New cards swing in: [Siswa, RPP Menunggu].</text>
  </g>

  <g transform="translate(80, 650)" filter="url(#phoneShadow)">
    <rect width="380" height="380" rx="32" fill="white"/>
    <rect width="380" height="380" rx="32" fill="none" stroke="#E2E8F0"/>
    <rect x="0" y="0" width="380" height="120" rx="32" fill="url(#adminHero)"/>
    <rect x="0" y="48" width="380" height="72" fill="url(#adminHero)"/>
    <text x="20" y="80" font-size="11" fill="rgba(255,255,255,0.8)">SMP Kamil Edu A · 2025/2026 Ganjil</text>
    <text x="20" y="106" font-weight="800" font-size="18" fill="white">Pantau hari ini</text>

    <!-- Card C — Siswa -->
    <g transform="translate(16, 144)" filter="url(#kpiShadow)">
      <rect width="170" height="148" rx="18" fill="white"/>
      <g transform="translate(14, 14)">
        <rect width="46" height="4" rx="2" fill="#F1F5F9"/>
        <rect width="5" height="4" rx="2" fill="#1E40AF"/>
        <rect x="52" width="46" height="4" rx="2" fill="#F1F5F9"/>
        <rect x="104" width="38" height="4" rx="2" fill="#F1F5F9"/>
      </g>
      <rect x="14" y="28" width="32" height="32" rx="11" fill="url(#blueGrad)"/>
      <g transform="translate(22, 36)" fill="none" stroke="white" stroke-width="2" stroke-linecap="round">
        <circle cx="8" cy="5" r="3"/>
        <path d="M2 14 C2 10 5 8 8 8 C11 8 14 10 14 14"/>
      </g>
      <text x="54" y="40" font-size="10.5" font-weight="800" fill="#0F172A">Siswa</text>
      <text x="54" y="56" font-size="10" fill="#1E40AF" font-weight="700">Semua tingkat</text>
      <text x="14" y="98" font-weight="800" font-size="28" fill="#0F172A">1,248</text>
      <text x="14" y="116" font-size="10" fill="#10B981" font-weight="700">+12 minggu ini</text>
      <text x="14" y="132" font-size="9" fill="#94A3B8">Slice 1 / 4</text>
    </g>

    <!-- Card D — RPP Menunggu -->
    <g transform="translate(194, 144)" filter="url(#kpiShadow)">
      <rect width="170" height="148" rx="18" fill="white"/>
      <g transform="translate(14, 14)">
        <rect width="68" height="4" rx="2" fill="#F1F5F9"/>
        <rect width="6" height="4" rx="2" fill="#B45309"/>
        <rect x="74" width="68" height="4" rx="2" fill="#F1F5F9"/>
      </g>
      <rect x="14" y="28" width="32" height="32" rx="11" fill="url(#amberGrad)"/>
      <g transform="translate(22, 36)" fill="none" stroke="white" stroke-width="2" stroke-linecap="round" stroke-linejoin="round">
        <path d="M3 2 V14 H13 V4 L11 2 Z"/>
        <path d="M5 7 H11 M5 10 H9"/>
      </g>
      <text x="54" y="40" font-size="10.5" font-weight="800" fill="#0F172A">RPP Menunggu</text>
      <text x="54" y="56" font-size="10" fill="#B45309" font-weight="700">Semua tingkat</text>
      <text x="14" y="98" font-weight="800" font-size="28" fill="#0F172A">37</text>
      <text x="14" y="116" font-size="10" fill="#64748B">dari 124 RPP semester</text>
      <text x="14" y="132" font-size="9" fill="#94A3B8">Slice 1 / 2</text>
    </g>

    <g transform="translate(190, 322)">
      <circle cx="-20" cy="0" r="3" fill="#CBD5E1"/>
      <rect x="-8" y="-3" width="24" height="6" rx="3" fill="#143068"/>
    </g>
    <text x="190" y="346" text-anchor="middle" font-size="9" fill="#94A3B8">Page 2 of 2</text>
  </g>

  <!-- ==================================================== -->
  <!-- TIMING & SPEC PANEL                                   -->
  <!-- ==================================================== -->
  <g transform="translate(560, 600)" filter="url(#cardShadow)">
    <rect width="380" height="430" rx="20" fill="white" stroke="#E2E8F0"/>
    <text x="20" y="36" font-weight="800" font-size="14" fill="#0F172A">Animation timing</text>
    <rect x="20" y="48" width="340" height="1" fill="#F1F5F9"/>

    <!-- timeline track -->
    <g transform="translate(20, 80)">
      <rect width="340" height="2" rx="1" fill="#E2E8F0" y="32"/>
      <!-- ticks -->
      <g font-size="9" fill="#94A3B8">
        <line x1="0" y1="28" x2="0" y2="38" stroke="#94A3B8"/>
        <text x="0" y="58" text-anchor="middle">0s</text>
        <line x1="113" y1="28" x2="113" y2="38" stroke="#94A3B8"/>
        <text x="113" y="58" text-anchor="middle">3s</text>
        <line x1="225" y1="28" x2="225" y2="38" stroke="#94A3B8"/>
        <text x="225" y="58" text-anchor="middle">5s</text>
        <line x1="340" y1="28" x2="340" y2="38" stroke="#94A3B8"/>
        <text x="340" y="58" text-anchor="middle">10s</text>
      </g>
      <!-- card A slice cycle bars -->
      <text x="0" y="20" font-size="10" font-weight="800" fill="#15803D">Card A · Kehadiran (3 slices)</text>
      <rect x="0" y="22" width="113" height="6" rx="3" fill="#15803D" opacity="0.18"/>
      <rect x="113" y="22" width="113" height="6" rx="3" fill="#15803D" opacity="0.45"/>
      <rect x="226" y="22" width="113" height="6" rx="3" fill="#15803D" opacity="0.7"/>
      <text x="56" y="33" text-anchor="middle" font-size="8" font-weight="800" fill="#15803D">Semua</text>
      <text x="170" y="33" text-anchor="middle" font-size="8" font-weight="800" fill="#15803D">7A</text>
      <text x="282" y="33" text-anchor="middle" font-size="8" font-weight="800" fill="#15803D">7B</text>
    </g>

    <g transform="translate(20, 168)">
      <rect width="340" height="2" rx="1" fill="#E2E8F0" y="32"/>
      <text x="0" y="20" font-size="10" font-weight="800" fill="#6D28D9">Card B · Nilai (5 slices)</text>
      <rect x="0" y="22" width="68" height="6" rx="3" fill="#6D28D9" opacity="0.18"/>
      <rect x="68" y="22" width="68" height="6" rx="3" fill="#6D28D9" opacity="0.32"/>
      <rect x="136" y="22" width="68" height="6" rx="3" fill="#6D28D9" opacity="0.46"/>
      <rect x="204" y="22" width="68" height="6" rx="3" fill="#6D28D9" opacity="0.6"/>
      <rect x="272" y="22" width="68" height="6" rx="3" fill="#6D28D9" opacity="0.74"/>
    </g>

    <g transform="translate(20, 232)">
      <rect width="340" height="2" rx="1" fill="#E2E8F0" y="22"/>
      <text x="0" y="14" font-size="10" font-weight="800" fill="#143068">Outer · pair page (2 pages)</text>
      <rect x="0" y="14" width="170" height="6" rx="3" fill="#143068" opacity="0.5"/>
      <rect x="170" y="14" width="170" height="6" rx="3" fill="#143068" opacity="0.85"/>
      <text x="85" y="26" text-anchor="middle" font-size="8" font-weight="800" fill="white">Page 1 (5s)</text>
      <text x="255" y="26" text-anchor="middle" font-size="8" font-weight="800" fill="white">Page 2 (5s)</text>
    </g>

    <rect x="20" y="290" width="340" height="1" fill="#F1F5F9"/>

    <g transform="translate(20, 312)">
      <rect width="6" height="6" rx="3" fill="#143068"/>
      <text x="14" y="7" font-size="11" font-weight="800" fill="#0F172A">Pause on touch</text>
      <text x="0" y="24" font-size="10.5" fill="#64748B">Tap or drag pauses both timers · resumes 3s</text>
      <text x="0" y="38" font-size="10.5" fill="#64748B">after the user stops interacting</text>
    </g>

    <g transform="translate(20, 360)">
      <rect width="6" height="6" rx="3" fill="#143068"/>
      <text x="14" y="7" font-size="11" font-weight="800" fill="#0F172A">Loop</text>
      <text x="0" y="24" font-size="10.5" fill="#64748B">Both inner slice cycle and outer page cycle</text>
      <text x="0" y="38" font-size="10.5" fill="#64748B">wrap with `% totalPages` (no rubber-band)</text>
    </g>
  </g>

  <!-- ==================================================== -->
  <!-- IMPLEMENTATION NOTE                                   -->
  <!-- ==================================================== -->
  <g transform="translate(80, 1060)" filter="url(#cardShadow)">
    <rect width="1160" height="180" rx="20" fill="white" stroke="#E2E8F0"/>
    <text x="20" y="36" font-weight="800" font-size="14" fill="#0F172A">Implementation</text>
    <rect x="20" y="48" width="1120" height="1" fill="#F1F5F9"/>

    <g transform="translate(20, 70)">
      <rect width="6" height="6" rx="3" fill="#143068"/>
      <text x="14" y="7" font-size="11" font-weight="800" fill="#0F172A">Reuses parent BrandKpiCarousel</text>
      <text x="0" y="24" font-size="10.5" fill="#64748B">cardsPerPage: 2  ·  autoSlideCards: true  ·  autoSlideDuration: const Duration(seconds: 5)</text>
      <text x="0" y="38" font-size="10.5" fill="#64748B">PageView already pages by 2 cards · 400ms transition · Timer.periodic loops with `% totalPages`</text>
    </g>

    <g transform="translate(20, 124)">
      <rect width="6" height="6" rx="3" fill="#143068"/>
      <text x="14" y="7" font-size="11" font-weight="800" fill="#0F172A">Top progress bar (NEW)</text>
      <text x="0" y="24" font-size="10.5" fill="#64748B">Per-card sub-PageView with its own Timer (3s per slice). Bar = N segments where N = slice count.</text>
      <text x="0" y="38" font-size="10.5" fill="#64748B">Active segment fills with an AnimationController (Tween 0→1 over slice dwell time).</text>
    </g>

    <g transform="translate(580, 70)">
      <rect width="6" height="6" rx="3" fill="#143068"/>
      <text x="14" y="7" font-size="11" font-weight="800" fill="#0F172A">Backend payload</text>
      <text x="0" y="24" font-size="10.5" fill="#64748B">/dashboard/full returns metrics[] · each metric has slices[] = [{key, label, value, caption}]</text>
      <text x="0" y="38" font-size="10.5" fill="#64748B">Same shape as parent payload. Admin sends 4 metrics, parent sends per-anak.</text>
    </g>

    <g transform="translate(580, 124)">
      <rect width="6" height="6" rx="3" fill="#143068"/>
      <text x="14" y="7" font-size="11" font-weight="800" fill="#0F172A">Tap behavior</text>
      <text x="0" y="24" font-size="10.5" fill="#64748B">Tap pauses auto-slide on that card · long-press = jump to specific filter route</text>
      <text x="0" y="38" font-size="10.5" fill="#64748B">Pair-page tap target → routes to the metric's filtered list (e.g. Kehadiran 7A)</text>
    </g>
  </g>
</svg>
