<svg viewBox="0 0 400 960" xmlns="http://www.w3.org/2000/svg" role="img" style="display:block;margin:0 auto;max-width:400px;width:100%;background:#F8FAFC;border-radius:24px;border:0.5px solid rgba(0,0,0,0.08)">
  <title>Admin dashboard redesign mockup - Phase 3</title>
  <desc>Mobile-sized mockup of the redesigned KamilEdu admin dashboard: navy gradient header with expanded school pill, hero stat row, pending inbox card, quick action grid, and bottom navigation.</desc>

  <defs>
    <linearGradient id="navyGrad" x1="0" y1="0" x2="1" y2="1">
      <stop offset="0%" stop-color="#0F172A"/>
      <stop offset="100%" stop-color="#1E293B"/>
    </linearGradient>
  </defs>

  <!-- HEADER -->
  <rect x="0" y="0" width="400" height="248" fill="url(#navyGrad)"/>
  <text x="24" y="28" font-family="Anthropic Sans,system-ui,sans-serif" font-size="11" fill="#FFFFFF" opacity="0.7" font-weight="500">08:14</text>
  <g transform="translate(352,22)" fill="#FFFFFF" opacity="0.75">
    <rect x="0" y="0" width="14" height="9" rx="2"/>
    <rect x="16" y="2" width="10" height="5" rx="1"/>
  </g>
  <text x="24" y="76" font-family="Anthropic Sans,system-ui,sans-serif" font-size="13" fill="#FFFFFF" opacity="0.72" font-weight="500">Selamat pagi</text>
  <text x="24" y="98" font-family="Anthropic Sans,system-ui,sans-serif" font-size="20" fill="#FFFFFF" font-weight="700" letter-spacing="0.1">Pak Yahya Al Hasymi</text>
  <rect x="344" y="70" width="36" height="36" rx="10" fill="#FFFFFF" fill-opacity="0.14"/>
  <g transform="translate(356,80)" fill="none" stroke="#FFFFFF" stroke-width="1.6" stroke-linecap="round" stroke-linejoin="round">
    <path d="M6 13V7a5 5 0 0 1 10 0v6l1.5 2H4.5L6 13Z"/>
    <path d="M9 17a2 2 0 0 0 4 0"/>
  </g>
  <circle cx="375" cy="74" r="4.5" fill="#EF4444" stroke="#0F172A" stroke-width="1.5"/>
  <circle cx="31" cy="120" r="3" fill="#4ADE80"/>
  <text x="40" y="123" font-family="Anthropic Sans,system-ui,sans-serif" font-size="10.5" fill="#FFFFFF" opacity="0.72" font-weight="500">Terhubung realtime · 08:14</text>
  <rect x="20" y="140" width="360" height="60" rx="14" fill="#FFFFFF" fill-opacity="0.1" stroke="#FFFFFF" stroke-opacity="0.14"/>
  <circle cx="54" cy="170" r="22" fill="#FFFFFF" fill-opacity="0.16"/>
  <text x="54" y="175" font-family="Anthropic Sans,system-ui,sans-serif" font-size="14" fill="#FFFFFF" font-weight="700" text-anchor="middle">KE</text>
  <text x="88" y="165" font-family="Anthropic Sans,system-ui,sans-serif" font-size="14" fill="#FFFFFF" font-weight="700">SMA KamilEdu Jakarta</text>
  <text x="88" y="183" font-family="Anthropic Sans,system-ui,sans-serif" font-size="11.5" fill="#FFFFFF" opacity="0.72" font-weight="500">Admin Sekolah · TP 2025/2026</text>
  <rect x="308" y="156" width="58" height="28" rx="8" fill="#FFFFFF" fill-opacity="0.18"/>
  <text x="337" y="174" font-family="Anthropic Sans,system-ui,sans-serif" font-size="11" fill="#FFFFFF" font-weight="600" text-anchor="middle">Ganti</text>

  <!-- HERO STATS -->
  <rect x="16" y="224" width="184" height="116" rx="16" fill="#FFFFFF" stroke="#E2E8F0" stroke-width="0.75"/>
  <rect x="32" y="240" width="32" height="32" rx="10" fill="#DCFCE7"/>
  <g transform="translate(40,248)" fill="none" stroke="#16A34A" stroke-width="1.6" stroke-linecap="round" stroke-linejoin="round">
    <path d="M2 8l4 4 8-8"/>
  </g>
  <text x="32" y="290" font-family="Anthropic Sans,system-ui,sans-serif" font-size="11" fill="#64748B" font-weight="500">Kehadiran hari ini</text>
  <text x="32" y="316" font-family="Anthropic Sans,system-ui,sans-serif" font-size="24" fill="#0F172A" font-weight="800">94,2%</text>
  <rect x="114" y="302" width="68" height="20" rx="10" fill="#DCFCE7"/>
  <path d="M121 314 l4 -4 l3 2 l5 -5" fill="none" stroke="#15803D" stroke-width="1.4" stroke-linecap="round" stroke-linejoin="round"/>
  <text x="138" y="316" font-family="Anthropic Sans,system-ui,sans-serif" font-size="10.5" fill="#15803D" font-weight="700">+2,1%</text>
  <rect x="208" y="224" width="176" height="116" rx="16" fill="#FFFFFF" stroke="#E2E8F0" stroke-width="0.75"/>
  <rect x="224" y="240" width="32" height="32" rx="10" fill="#DBEAFE"/>
  <g transform="translate(230,246)" fill="none" stroke="#2563EB" stroke-width="1.6" stroke-linecap="round" stroke-linejoin="round">
    <circle cx="10" cy="7" r="3.2"/>
    <path d="M3 18c1.5-3.4 4-5 7-5s5.5 1.6 7 5"/>
  </g>
  <text x="224" y="290" font-family="Anthropic Sans,system-ui,sans-serif" font-size="11" fill="#64748B" font-weight="500">Siswa aktif</text>
  <text x="224" y="316" font-family="Anthropic Sans,system-ui,sans-serif" font-size="24" fill="#0F172A" font-weight="800">1.284</text>
  <text x="290" y="316" font-family="Anthropic Sans,system-ui,sans-serif" font-size="10.5" fill="#94A3B8" font-weight="500">· 42 kelas</text>

  <!-- PENDING INBOX -->
  <rect x="16" y="356" width="368" height="252" rx="16" fill="#FFFFFF" stroke="#E2E8F0" stroke-width="0.75"/>
  <text x="32" y="382" font-family="Anthropic Sans,system-ui,sans-serif" font-size="14" fill="#0F172A" font-weight="700">Perlu perhatian</text>
  <rect x="150" y="370" width="28" height="18" rx="9" fill="#0F172A"/>
  <text x="164" y="383" font-family="Anthropic Sans,system-ui,sans-serif" font-size="10.5" fill="#FFFFFF" font-weight="700" text-anchor="middle">117</text>
  <text x="368" y="382" font-family="Anthropic Sans,system-ui,sans-serif" font-size="11.5" fill="#2563EB" font-weight="600" text-anchor="end">Lihat semua</text>
  <rect x="32" y="400" width="32" height="32" rx="10" fill="#FEF3C7"/>
  <g transform="translate(40,408)" fill="none" stroke="#B45309" stroke-width="1.5" stroke-linecap="round" stroke-linejoin="round">
    <rect x="0.5" y="3" width="15" height="10" rx="2"/>
    <path d="M4 7h8M4 10h4"/>
  </g>
  <text x="76" y="414" font-family="Anthropic Sans,system-ui,sans-serif" font-size="13" fill="#0F172A" font-weight="600">Verifikasi pembayaran</text>
  <text x="76" y="430" font-family="Anthropic Sans,system-ui,sans-serif" font-size="11" fill="#64748B" font-weight="500">23 bukti transfer menunggu</text>
  <rect x="306" y="410" width="38" height="22" rx="8" fill="#FEF3C7"/>
  <text x="325" y="425" font-family="Anthropic Sans,system-ui,sans-serif" font-size="11" fill="#B45309" font-weight="700" text-anchor="middle">23</text>
  <path d="M356 414 l6 6 l-6 6" fill="none" stroke="#94A3B8" stroke-width="1.5" stroke-linecap="round" stroke-linejoin="round"/>
  <line x1="76" y1="448" x2="368" y2="448" stroke="#F1F5F9" stroke-width="1"/>
  <rect x="32" y="460" width="32" height="32" rx="10" fill="#EDE9FE"/>
  <g transform="translate(40,468)" fill="none" stroke="#6D28D9" stroke-width="1.5" stroke-linecap="round" stroke-linejoin="round">
    <path d="M2 2h9l3 3v11H2z"/>
    <path d="M5 9h6M5 12h4"/>
  </g>
  <text x="76" y="474" font-family="Anthropic Sans,system-ui,sans-serif" font-size="13" fill="#0F172A" font-weight="600">RPP menunggu review</text>
  <text x="76" y="490" font-family="Anthropic Sans,system-ui,sans-serif" font-size="11" fill="#64748B" font-weight="500">5 rencana pelajaran dari guru</text>
  <rect x="306" y="470" width="38" height="22" rx="8" fill="#EDE9FE"/>
  <text x="325" y="485" font-family="Anthropic Sans,system-ui,sans-serif" font-size="11" fill="#6D28D9" font-weight="700" text-anchor="middle">5</text>
  <path d="M356 474 l6 6 l-6 6" fill="none" stroke="#94A3B8" stroke-width="1.5" stroke-linecap="round" stroke-linejoin="round"/>
  <line x1="76" y1="508" x2="368" y2="508" stroke="#F1F5F9" stroke-width="1"/>
  <rect x="32" y="520" width="32" height="32" rx="10" fill="#FEE2E2"/>
  <g transform="translate(40,528)" fill="none" stroke="#B91C1C" stroke-width="1.5" stroke-linecap="round" stroke-linejoin="round">
    <circle cx="8" cy="8" r="7"/>
    <path d="M8 4v5l3 2"/>
  </g>
  <text x="76" y="534" font-family="Anthropic Sans,system-ui,sans-serif" font-size="13" fill="#0F172A" font-weight="600">Tagihan jatuh tempo</text>
  <text x="76" y="550" font-family="Anthropic Sans,system-ui,sans-serif" font-size="11" fill="#64748B" font-weight="500">87 siswa belum bayar SPP April</text>
  <rect x="306" y="530" width="38" height="22" rx="8" fill="#FEE2E2"/>
  <text x="325" y="545" font-family="Anthropic Sans,system-ui,sans-serif" font-size="11" fill="#B91C1C" font-weight="700" text-anchor="middle">87</text>
  <path d="M356 534 l6 6 l-6 6" fill="none" stroke="#94A3B8" stroke-width="1.5" stroke-linecap="round" stroke-linejoin="round"/>
  <line x1="76" y1="568" x2="368" y2="568" stroke="#F1F5F9" stroke-width="1"/>
  <rect x="32" y="580" width="32" height="32" rx="10" fill="#DBEAFE"/>
  <g transform="translate(40,588)" fill="none" stroke="#1D4ED8" stroke-width="1.5" stroke-linecap="round" stroke-linejoin="round">
    <path d="M2 5l10-3v12L2 11z"/>
    <path d="M2 11v2a2 2 0 0 0 4 0"/>
  </g>
  <text x="76" y="594" font-family="Anthropic Sans,system-ui,sans-serif" font-size="13" fill="#0F172A" font-weight="600">Pengumuman draft</text>
  <text x="76" y="610" font-family="Anthropic Sans,system-ui,sans-serif" font-size="11" fill="#64748B" font-weight="500">2 siap dipublikasikan</text>
  <rect x="306" y="590" width="38" height="22" rx="8" fill="#DBEAFE"/>
  <text x="325" y="605" font-family="Anthropic Sans,system-ui,sans-serif" font-size="11" fill="#1D4ED8" font-weight="700" text-anchor="middle">2</text>
  <path d="M356 594 l6 6 l-6 6" fill="none" stroke="#94A3B8" stroke-width="1.5" stroke-linecap="round" stroke-linejoin="round"/>

  <!-- QUICK ACTIONS -->
  <text x="24" y="648" font-family="Anthropic Sans,system-ui,sans-serif" font-size="13" fill="#0F172A" font-weight="700">Aksi cepat</text>
  <rect x="16" y="664" width="88" height="96" rx="14" fill="#FFFFFF" stroke="#E2E8F0" stroke-width="0.75"/>
  <rect x="40" y="680" width="40" height="40" rx="12" fill="#EEF2FF"/>
  <g transform="translate(48,688)" fill="none" stroke="#4338CA" stroke-width="1.6" stroke-linecap="round" stroke-linejoin="round">
    <circle cx="12" cy="8" r="4"/>
    <path d="M4 22c1.5-5 5-7 8-7s6.5 2 8 7"/>
  </g>
  <text x="60" y="736" font-family="Anthropic Sans,system-ui,sans-serif" font-size="11" fill="#0F172A" font-weight="700" text-anchor="middle">Siswa</text>
  <text x="60" y="750" font-family="Anthropic Sans,system-ui,sans-serif" font-size="9.5" fill="#94A3B8" font-weight="500" text-anchor="middle">1.284 aktif</text>
  <rect x="112" y="664" width="88" height="96" rx="14" fill="#FFFFFF" stroke="#E2E8F0" stroke-width="0.75"/>
  <rect x="136" y="680" width="40" height="40" rx="12" fill="#ECFDF5"/>
  <g transform="translate(144,688)" fill="none" stroke="#047857" stroke-width="1.6" stroke-linecap="round" stroke-linejoin="round">
    <path d="M12 4v20M7 9c0-2 2-3 5-3s5 1 5 3-2 3-5 3-5 1-5 3 2 3 5 3 5-1 5-3"/>
  </g>
  <circle cx="173" cy="681" r="5" fill="#EF4444" stroke="#FFFFFF" stroke-width="1.5"/>
  <text x="156" y="736" font-family="Anthropic Sans,system-ui,sans-serif" font-size="11" fill="#0F172A" font-weight="700" text-anchor="middle">Keuangan</text>
  <text x="156" y="750" font-family="Anthropic Sans,system-ui,sans-serif" font-size="9.5" fill="#94A3B8" font-weight="500" text-anchor="middle">23 perlu verif</text>
  <rect x="208" y="664" width="88" height="96" rx="14" fill="#FFFFFF" stroke="#E2E8F0" stroke-width="0.75"/>
  <rect x="232" y="680" width="40" height="40" rx="12" fill="#FFF7ED"/>
  <g transform="translate(240,688)" fill="none" stroke="#C2410C" stroke-width="1.6" stroke-linecap="round" stroke-linejoin="round">
    <path d="M3 20h18M6 20V12M12 20V6M18 20v-5"/>
  </g>
  <text x="252" y="736" font-family="Anthropic Sans,system-ui,sans-serif" font-size="11" fill="#0F172A" font-weight="700" text-anchor="middle">Laporan</text>
  <text x="252" y="750" font-family="Anthropic Sans,system-ui,sans-serif" font-size="9.5" fill="#94A3B8" font-weight="500" text-anchor="middle">Rekap bulanan</text>
  <rect x="304" y="664" width="80" height="96" rx="14" fill="#FFFFFF" stroke="#E2E8F0" stroke-width="0.75"/>
  <rect x="324" y="680" width="40" height="40" rx="12" fill="#F1F5F9"/>
  <g transform="translate(332,688)" fill="none" stroke="#334155" stroke-width="1.6" stroke-linecap="round" stroke-linejoin="round">
    <circle cx="12" cy="12" r="3"/>
    <path d="M12 2v3M12 19v3M2 12h3M19 12h3M4.2 4.2l2.1 2.1M17.7 17.7l2.1 2.1M4.2 19.8l2.1-2.1M17.7 6.3l2.1-2.1"/>
  </g>
  <text x="344" y="736" font-family="Anthropic Sans,system-ui,sans-serif" font-size="11" fill="#0F172A" font-weight="700" text-anchor="middle">Pengaturan</text>
  <text x="344" y="750" font-family="Anthropic Sans,system-ui,sans-serif" font-size="9.5" fill="#94A3B8" font-weight="500" text-anchor="middle">Sekolah &amp; tahun</text>

  <!-- MODUL LAIN -->
  <text x="24" y="796" font-family="Anthropic Sans,system-ui,sans-serif" font-size="13" fill="#0F172A" font-weight="700">Modul lain</text>
  <text x="376" y="796" font-family="Anthropic Sans,system-ui,sans-serif" font-size="11" fill="#64748B" font-weight="500" text-anchor="end">10 modul</text>
  <rect x="16" y="810" width="368" height="64" rx="14" fill="#FFFFFF" stroke="#E2E8F0" stroke-width="0.75"/>
  <rect x="32" y="824" width="36" height="36" rx="10" fill="#F1F5F9"/>
  <rect x="40" y="832" width="20" height="20" rx="4" fill="none" stroke="#334155" stroke-width="1.5"/>
  <text x="50" y="876" font-family="Anthropic Sans,system-ui,sans-serif" font-size="9" fill="#475569" font-weight="500" text-anchor="middle">Jadwal</text>
  <rect x="108" y="824" width="36" height="36" rx="10" fill="#F1F5F9"/>
  <path d="M118 840l5-5 5 5-5 5z" fill="none" stroke="#334155" stroke-width="1.5" stroke-linejoin="round"/>
  <text x="126" y="876" font-family="Anthropic Sans,system-ui,sans-serif" font-size="9" fill="#475569" font-weight="500" text-anchor="middle">Nilai</text>
  <rect x="184" y="824" width="36" height="36" rx="10" fill="#F1F5F9"/>
  <path d="M194 842a4 4 0 1 0 0-8 4 4 0 0 0 0 8zM202 850c-1-4-4-6-8-6s-7 2-8 6" fill="none" stroke="#334155" stroke-width="1.4" stroke-linecap="round"/>
  <text x="202" y="876" font-family="Anthropic Sans,system-ui,sans-serif" font-size="9" fill="#475569" font-weight="500" text-anchor="middle">Presensi</text>
  <rect x="260" y="824" width="36" height="36" rx="10" fill="#F1F5F9"/>
  <path d="M270 834h16v16h-16z M270 840h16 M274 834v16" fill="none" stroke="#334155" stroke-width="1.4"/>
  <text x="278" y="876" font-family="Anthropic Sans,system-ui,sans-serif" font-size="9" fill="#475569" font-weight="500" text-anchor="middle">Rapor</text>
  <rect x="328" y="824" width="40" height="36" rx="10" fill="#0F172A"/>
  <text x="348" y="846" font-family="Anthropic Sans,system-ui,sans-serif" font-size="10.5" fill="#FFFFFF" font-weight="700" text-anchor="middle">+6</text>
  <text x="348" y="876" font-family="Anthropic Sans,system-ui,sans-serif" font-size="9" fill="#475569" font-weight="500" text-anchor="middle">Lainnya</text>

  <!-- BOTTOM NAV -->
  <rect x="0" y="896" width="400" height="64" fill="#FFFFFF"/>
  <line x1="0" y1="896" x2="400" y2="896" stroke="#E2E8F0" stroke-width="0.75"/>
  <path d="M40 915l10-8 10 8v12h-7v-8h-6v8h-7z" fill="none" stroke="#0F172A" stroke-width="1.7" stroke-linejoin="round"/>
  <text x="50" y="946" font-family="Anthropic Sans,system-ui,sans-serif" font-size="10" fill="#0F172A" font-weight="700" text-anchor="middle">Beranda</text>
  <rect x="42" y="902" width="16" height="3" rx="1.5" fill="#0F172A"/>
  <path d="M115 908h20v18h-20z M115 914h20 M121 908v18" fill="none" stroke="#64748B" stroke-width="1.5"/>
  <text x="125" y="946" font-family="Anthropic Sans,system-ui,sans-serif" font-size="10" fill="#64748B" font-weight="500" text-anchor="middle">Data</text>
  <path d="M190 926l10-6 10 6-10 6z M190 926v5l10 5 10-5v-5" fill="none" stroke="#64748B" stroke-width="1.5" stroke-linejoin="round"/>
  <text x="200" y="946" font-family="Anthropic Sans,system-ui,sans-serif" font-size="10" fill="#64748B" font-weight="500" text-anchor="middle">Akademik</text>
  <path d="M272 918c0-2 2-3 4-3s4 1 4 3-2 3-4 3-4 1-4 3 2 3 4 3 4-1 4-3 M276 911v18" fill="none" stroke="#64748B" stroke-width="1.5" stroke-linecap="round"/>
  <text x="276" y="946" font-family="Anthropic Sans,system-ui,sans-serif" font-size="10" fill="#64748B" font-weight="500" text-anchor="middle">Keuangan</text>
  <circle cx="287" cy="910" r="4" fill="#EF4444"/>
  <text x="287" y="913" font-family="Anthropic Sans,system-ui,sans-serif" font-size="7" fill="#FFFFFF" font-weight="700" text-anchor="middle">!</text>
  <circle cx="353" cy="916" r="5" fill="none" stroke="#64748B" stroke-width="1.5"/>
  <path d="M344 930c2-4 5-6 9-6s7 2 9 6" fill="none" stroke="#64748B" stroke-width="1.5" stroke-linecap="round"/>
  <text x="353" y="946" font-family="Anthropic Sans,system-ui,sans-serif" font-size="10" fill="#64748B" font-weight="500" text-anchor="middle">Profil</text>
</svg>
