<svg xmlns="http://www.w3.org/2000/svg" viewBox="0 0 1840 1340" font-family="Inter, -apple-system, system-ui, sans-serif">
  <defs>
    <linearGradient id="heroGrad" x1="0" y1="0" x2="1" y2="1">
      <stop offset="0" stop-color="#21AFE6"/>
      <stop offset="1" stop-color="#1A8FBE"/>
    </linearGradient>
    <linearGradient id="successGrad" x1="0" y1="0" x2="1" y2="1">
      <stop offset="0" stop-color="#10B981"/>
      <stop offset="1" stop-color="#059669"/>
    </linearGradient>
    <filter id="cardShadow" x="-20%" y="-20%" width="140%" height="160%">
      <feDropShadow dx="0" dy="6" stdDeviation="10" flood-color="#0F172A" flood-opacity="0.06"/>
    </filter>
    <filter id="phoneShadow" x="-10%" y="-5%" width="120%" height="115%">
      <feDropShadow dx="0" dy="14" stdDeviation="20" flood-color="#0F172A" flood-opacity="0.08"/>
    </filter>
    <pattern id="qr" x="0" y="0" width="8" height="8" patternUnits="userSpaceOnUse">
      <rect width="8" height="8" fill="white"/>
      <rect x="0" y="0" width="4" height="4" fill="#0F172A"/>
      <rect x="4" y="4" width="4" height="4" fill="#0F172A"/>
    </pattern>
  </defs>

  <rect width="1840" height="1340" fill="#F8FAFC"/>

  <!-- Title -->
  <text x="60" y="58" font-weight="800" font-size="26" fill="#0F172A">Parent · Bayar / Bahasa / Inbox · Phase 5</text>
  <text x="60" y="84" font-size="13" fill="#64748B">3 surfaces — single-page Bayar checkout · Bahasa picker · Perlu Perhatian inbox (Lihat Semua)</text>
  <rect x="60" y="100" width="1720" height="1" fill="#E2E8F0"/>

  <!-- ============================================================== -->
  <!-- PHONE 1 — BAYAR CHECKOUT (single-page, tab-based methods)       -->
  <!-- ============================================================== -->
  <g transform="translate(80, 130)" filter="url(#phoneShadow)">
    <rect width="380" height="780" rx="36" fill="white"/>
    <rect width="380" height="780" rx="36" fill="none" stroke="#E2E8F0" stroke-width="1"/>

    <text x="28" y="32" font-size="12" font-weight="700" fill="#0F172A">9:41</text>
    <g transform="translate(320, 22)" fill="#0F172A">
      <rect x="0" y="2" width="14" height="10" rx="1"/>
      <rect x="18" y="0" width="22" height="12" rx="2" fill="none" stroke="#0F172A" stroke-width="1"/>
      <rect x="20" y="2" width="16" height="8" rx="1"/>
    </g>

    <!-- Compact header (no big hero — checkout style) -->
    <rect x="0" y="44" width="380" height="56" fill="white"/>
    <rect x="0" y="100" width="380" height="1" fill="#F1F5F9"/>
    <g transform="translate(20, 56)">
      <rect width="36" height="36" rx="12" fill="#F1F5F9"/>
      <path d="M22 11 L14 18 L22 25" fill="none" stroke="#475569" stroke-width="2.5" stroke-linecap="round" stroke-linejoin="round"/>
    </g>
    <text x="190" y="78" font-size="14" font-weight="800" fill="#0F172A" text-anchor="middle">Bayar Tagihan</text>
    <!-- Help icon top right -->
    <g transform="translate(324, 56)">
      <rect width="36" height="36" rx="12" fill="#F1F5F9"/>
      <text x="18" y="24" font-size="14" font-weight="800" fill="#475569" text-anchor="middle">?</text>
    </g>

    <!-- Bill recap card -->
    <g transform="translate(16, 116)">
      <rect width="348" height="92" rx="16" fill="url(#heroGrad)"/>
      <text x="20" y="28" font-size="9.5" font-weight="800" fill="rgba(255,255,255,0.85)" letter-spacing="0.6">SPP MARET 2026 · SALMAN</text>
      <text x="20" y="56" font-size="10.5" fill="rgba(255,255,255,0.85)">Total dibayar</text>
      <text x="20" y="82" font-size="22" font-weight="800" fill="white">Rp 854.000</text>
      <!-- breakdown chip -->
      <g transform="translate(216, 60)">
        <rect width="120" height="22" rx="11" fill="rgba(255,255,255,0.18)"/>
        <text x="60" y="15" font-size="9.5" font-weight="700" fill="white" text-anchor="middle">+ admin Rp 4.000 ▾</text>
      </g>
    </g>

    <!-- Method tabs (segmented control) -->
    <g transform="translate(16, 224)">
      <rect width="348" height="44" rx="14" fill="#F1F5F9"/>
      <!-- QRIS active -->
      <rect width="116" height="44" rx="14" fill="white" filter="url(#cardShadow)"/>
      <rect width="116" height="44" rx="14" fill="none" stroke="#1A8FBE" stroke-width="1.5"/>
      <text x="58" y="22" font-size="10" font-weight="800" fill="#1A8FBE" text-anchor="middle">QRIS</text>
      <text x="58" y="35" font-size="8.5" fill="#1A8FBE" text-anchor="middle">⚡ Tercepat</text>
      <!-- VA -->
      <text x="174" y="22" font-size="10" font-weight="700" fill="#64748B" text-anchor="middle">Virtual Acc.</text>
      <text x="174" y="35" font-size="8.5" fill="#94A3B8" text-anchor="middle">BCA / Mandiri</text>
      <!-- Manual -->
      <text x="290" y="22" font-size="10" font-weight="700" fill="#64748B" text-anchor="middle">Manual</text>
      <text x="290" y="35" font-size="8.5" fill="#94A3B8" text-anchor="middle">Upload bukti</text>
    </g>

    <!-- QRIS content -->
    <g transform="translate(16, 284)">
      <rect width="348" height="240" rx="20" fill="white" filter="url(#cardShadow)"/>
      <rect width="348" height="240" rx="20" fill="none" stroke="#E2E8F0" stroke-width="0.75"/>

      <!-- countdown -->
      <g transform="translate(20, 16)">
        <rect width="120" height="22" rx="11" fill="#FEF3C7"/>
        <text x="60" y="15" font-size="10" font-weight="800" fill="#B45309" text-anchor="middle">⏱ 23:42:18</text>
      </g>
      <text x="328" y="32" font-size="10" font-weight="700" fill="#1A8FBE" text-anchor="end">Simpan QR ↓</text>

      <!-- QR code -->
      <g transform="translate(102, 50)">
        <rect width="144" height="144" rx="12" fill="white" stroke="#E2E8F0"/>
        <rect x="8" y="8" width="128" height="128" fill="url(#qr)"/>
        <!-- 3 corner markers -->
        <rect x="12" y="12" width="24" height="24" fill="white"/>
        <rect x="14" y="14" width="20" height="20" fill="#0F172A"/>
        <rect x="18" y="18" width="12" height="12" fill="white"/>
        <rect x="108" y="12" width="24" height="24" fill="white"/>
        <rect x="110" y="14" width="20" height="20" fill="#0F172A"/>
        <rect x="114" y="18" width="12" height="12" fill="white"/>
        <rect x="12" y="108" width="24" height="24" fill="white"/>
        <rect x="14" y="110" width="20" height="20" fill="#0F172A"/>
        <rect x="18" y="114" width="12" height="12" fill="white"/>
        <!-- center QRIS logo -->
        <circle cx="80" cy="80" r="14" fill="white"/>
        <text x="80" y="84" font-size="9" font-weight="800" fill="#1A8FBE" text-anchor="middle">QRIS</text>
      </g>

      <!-- Salin nominal -->
      <g transform="translate(20, 210)">
        <rect width="308" height="20" rx="10" fill="#F0F9FF"/>
        <text x="14" y="14" font-size="10" fill="#1A8FBE">Nominal</text>
        <text x="160" y="14" font-size="11" font-weight="800" fill="#0F172A">Rp 854.000</text>
        <text x="278" y="14" font-size="10" font-weight="800" fill="#1A8FBE">📋 Salin</text>
      </g>
    </g>

    <!-- Cara bayar (collapsible) -->
    <g transform="translate(16, 540)">
      <rect width="348" height="44" rx="14" fill="white" stroke="#E2E8F0" stroke-width="0.75"/>
      <text x="20" y="22" font-size="11" font-weight="800" fill="#0F172A">Cara bayar dengan QRIS</text>
      <text x="20" y="36" font-size="9" fill="#94A3B8">Buka GoPay / OVO / Dana / m-banking → Scan</text>
      <text x="324" y="29" font-size="11" font-weight="700" fill="#1A8FBE">▾</text>
    </g>

    <!-- Status hint -->
    <g transform="translate(16, 596)">
      <rect width="348" height="36" rx="12" fill="#F0FDF4"/>
      <circle cx="20" cy="18" r="5" fill="#10B981"/>
      <text x="38" y="22" font-size="10.5" fill="#059669" font-weight="700">Status akan terupdate otomatis &lt; 1 menit</text>
    </g>

    <!-- Sticky footer -->
    <rect x="0" y="700" width="380" height="80" fill="white"/>
    <rect x="0" y="700" width="380" height="1" fill="#E2E8F0"/>
    <g transform="translate(16, 716)">
      <rect width="332" height="48" rx="14" fill="#1A8FBE"/>
      <text x="166" y="30" font-size="13" font-weight="800" fill="white" text-anchor="middle">Saya sudah bayar — Cek status</text>
    </g>
  </g>

  <text x="270" y="930" font-size="12" font-weight="700" fill="#1A8FBE" text-anchor="middle">1 · Bayar checkout (single-page, tab methods)</text>

  <!-- ============================================================== -->
  <!-- PHONE 2 — Pembayaran berhasil                                  -->
  <!-- ============================================================== -->
  <g transform="translate(540, 130)" filter="url(#phoneShadow)">
    <rect width="380" height="780" rx="36" fill="white"/>
    <rect width="380" height="780" rx="36" fill="none" stroke="#E2E8F0" stroke-width="1"/>

    <text x="28" y="32" font-size="12" font-weight="700" fill="#0F172A">9:41</text>
    <g transform="translate(320, 22)" fill="#0F172A">
      <rect x="0" y="2" width="14" height="10" rx="1"/>
      <rect x="18" y="0" width="22" height="12" rx="2" fill="none" stroke="#0F172A" stroke-width="1"/>
      <rect x="20" y="2" width="16" height="8" rx="1"/>
    </g>

    <rect x="0" y="44" width="380" height="240" fill="url(#successGrad)"/>
    <circle cx="80" cy="100" r="3" fill="rgba(255,255,255,0.5)"/>
    <circle cx="320" cy="120" r="4" fill="rgba(255,255,255,0.4)"/>
    <circle cx="60" cy="200" r="3" fill="rgba(255,255,255,0.5)"/>
    <circle cx="280" cy="180" r="2" fill="rgba(255,255,255,0.4)"/>
    <circle cx="190" cy="160" r="48" fill="white"/>
    <path d="M168 160 L184 176 L214 144" fill="none" stroke="#10B981" stroke-width="6" stroke-linecap="round" stroke-linejoin="round"/>
    <text x="190" y="232" font-size="22" font-weight="800" fill="white" text-anchor="middle">Pembayaran Berhasil</text>
    <text x="190" y="256" font-size="11" fill="rgba(255,255,255,0.92)" text-anchor="middle">SPP Maret · Salman · Kelas 5A</text>

    <!-- Big total card -->
    <g transform="translate(16, 304)">
      <rect width="348" height="98" rx="20" fill="white" filter="url(#cardShadow)"/>
      <text x="174" y="32" font-size="10" font-weight="800" fill="#94A3B8" text-anchor="middle" letter-spacing="0.6">JUMLAH DIBAYAR</text>
      <text x="174" y="68" font-size="28" font-weight="800" fill="#10B981" text-anchor="middle">Rp 854.000</text>
      <text x="174" y="86" font-size="10" fill="#64748B" text-anchor="middle">via QRIS · 31 Mar 2026, 09:38</text>
    </g>

    <!-- Receipt timeline -->
    <g transform="translate(16, 418)">
      <rect width="348" height="180" rx="20" fill="white" stroke="#E2E8F0" stroke-width="0.75"/>
      <text x="20" y="32" font-size="11" font-weight="800" fill="#94A3B8" letter-spacing="0.5">RIWAYAT</text>

      <!-- Step 1: Initiated -->
      <g transform="translate(20, 50)">
        <circle cx="10" cy="10" r="10" fill="#10B981"/>
        <path d="M5 10 L9 13 L15 7" fill="none" stroke="white" stroke-width="2"/>
        <line x1="10" y1="20" x2="10" y2="42" stroke="#10B981" stroke-width="2" stroke-dasharray="2 3"/>
      </g>
      <text x="50" y="58" font-size="11" font-weight="800" fill="#0F172A">Pembayaran dibuat</text>
      <text x="50" y="72" font-size="9" fill="#94A3B8">09:32 · QRIS</text>

      <!-- Step 2: Paid -->
      <g transform="translate(20, 92)">
        <circle cx="10" cy="10" r="10" fill="#10B981"/>
        <path d="M5 10 L9 13 L15 7" fill="none" stroke="white" stroke-width="2"/>
        <line x1="10" y1="20" x2="10" y2="42" stroke="#10B981" stroke-width="2" stroke-dasharray="2 3"/>
      </g>
      <text x="50" y="100" font-size="11" font-weight="800" fill="#0F172A">Pembayaran dikonfirmasi</text>
      <text x="50" y="114" font-size="9" fill="#94A3B8">09:38 · OVO</text>

      <!-- Step 3: Recorded -->
      <g transform="translate(20, 134)">
        <circle cx="10" cy="10" r="10" fill="#10B981"/>
        <path d="M5 10 L9 13 L15 7" fill="none" stroke="white" stroke-width="2"/>
      </g>
      <text x="50" y="142" font-size="11" font-weight="800" fill="#0F172A">Tagihan ditandai LUNAS</text>
      <text x="50" y="156" font-size="9" fill="#94A3B8">09:38 · Kuitansi tersedia</text>
    </g>

    <!-- Action row -->
    <g transform="translate(16, 614)">
      <rect width="160" height="44" rx="14" fill="#F0F9FF" stroke="#BAE6FD"/>
      <text x="80" y="28" font-size="11" font-weight="800" fill="#1A8FBE" text-anchor="middle">📥 Unduh PDF</text>
    </g>
    <g transform="translate(188, 614)">
      <rect width="160" height="44" rx="14" fill="#F0F9FF" stroke="#BAE6FD"/>
      <text x="80" y="28" font-size="11" font-weight="800" fill="#1A8FBE" text-anchor="middle">📤 Bagikan</text>
    </g>

    <g transform="translate(16, 670)">
      <rect width="348" height="48" rx="14" fill="#1A8FBE"/>
      <text x="174" y="30" font-size="13" font-weight="800" fill="white" text-anchor="middle">Selesai</text>
    </g>

    <text x="190" y="752" font-size="9.5" fill="#94A3B8" text-anchor="middle">Notifikasi lunas otomatis dikirim ke admin sekolah.</text>
  </g>

  <text x="730" y="930" font-size="12" font-weight="700" fill="#1A8FBE" text-anchor="middle">2 · Pembayaran berhasil + timeline</text>

  <!-- ============================================================== -->
  <!-- PHONE 3 — BAHASA picker bottom sheet                            -->
  <!-- ============================================================== -->
  <g transform="translate(1000, 130)" filter="url(#phoneShadow)">
    <rect width="380" height="780" rx="36" fill="white"/>
    <rect width="380" height="780" rx="36" fill="none" stroke="#E2E8F0" stroke-width="1"/>

    <text x="28" y="32" font-size="12" font-weight="700" fill="#0F172A">9:41</text>
    <g transform="translate(320, 22)" fill="#0F172A">
      <rect x="0" y="2" width="14" height="10" rx="1"/>
      <rect x="18" y="0" width="22" height="12" rx="2" fill="none" stroke="#0F172A" stroke-width="1"/>
      <rect x="20" y="2" width="16" height="8" rx="1"/>
    </g>

    <!-- dimmed dashboard behind -->
    <rect x="0" y="44" width="380" height="560" fill="#21AFE6" fill-opacity="0.4"/>
    <rect x="0" y="44" width="380" height="780" fill="#0F172A" fill-opacity="0.45"/>

    <!-- Sheet -->
    <g transform="translate(0, 280)">
      <path d="M0 28 Q0 0 28 0 H352 Q380 0 380 28 V500 H0 Z" fill="white"/>
      <rect x="170" y="10" width="40" height="4" rx="2" fill="#CBD5E1"/>

      <!-- Title -->
      <text x="190" y="46" font-size="16" font-weight="800" fill="#0F172A" text-anchor="middle">Pilih Bahasa</text>
      <text x="190" y="66" font-size="10.5" fill="#64748B" text-anchor="middle">Berlaku di seluruh aplikasi</text>

      <!-- Close X -->
      <g transform="translate(332, 24)">
        <rect width="30" height="30" rx="10" fill="#F1F5F9"/>
        <path d="M10 10 L20 20 M20 10 L10 20" stroke="#475569" stroke-width="2" stroke-linecap="round"/>
      </g>

      <line x1="24" y1="86" x2="356" y2="86" stroke="#F1F5F9"/>

      <!-- ID — selected -->
      <g transform="translate(24, 102)">
        <rect width="332" height="84" rx="16" fill="#F0F9FF" stroke="#21AFE6" stroke-width="1.5"/>
        <!-- flag -->
        <g transform="translate(16, 18)">
          <rect width="48" height="48" rx="12" fill="white"/>
          <rect x="4" y="6" width="40" height="36" rx="6" fill="#FF0000"/>
          <rect x="4" y="24" width="40" height="18" rx="0" fill="white"/>
          <path d="M4 6 a6 6 0 0 1 6 -6 H38 a6 6 0 0 1 6 6 v18 H4 Z" fill="#FF0000"/>
          <path d="M4 24 H44 V36 a6 6 0 0 1 -6 6 H10 a6 6 0 0 1 -6 -6 Z" fill="white"/>
        </g>
        <text x="80" y="36" font-size="14" font-weight="800" fill="#0F172A">Bahasa Indonesia</text>
        <text x="80" y="54" font-size="11" fill="#64748B">Indonesian · Resmi</text>
        <text x="80" y="70" font-size="9.5" font-weight="700" fill="#1A8FBE">Aktif sekarang</text>
        <!-- check -->
        <g transform="translate(296, 30)">
          <circle cx="14" cy="14" r="14" fill="#1A8FBE"/>
          <path d="M8 14 L12 18 L20 10" fill="none" stroke="white" stroke-width="2.5" stroke-linecap="round" stroke-linejoin="round"/>
        </g>
      </g>

      <!-- EN -->
      <g transform="translate(24, 202)">
        <rect width="332" height="84" rx="16" fill="white" stroke="#E2E8F0" stroke-width="0.75"/>
        <!-- flag UK -->
        <g transform="translate(16, 18)">
          <rect width="48" height="48" rx="12" fill="#012169"/>
          <path d="M0 0 L48 48 M48 0 L0 48" stroke="white" stroke-width="6"/>
          <path d="M0 0 L48 48 M48 0 L0 48" stroke="#C8102E" stroke-width="3"/>
          <rect x="20" y="0" width="8" height="48" fill="white"/>
          <rect x="0" y="20" width="48" height="8" fill="white"/>
          <rect x="22" y="0" width="4" height="48" fill="#C8102E"/>
          <rect x="0" y="22" width="48" height="4" fill="#C8102E"/>
        </g>
        <text x="80" y="36" font-size="14" font-weight="800" fill="#0F172A">English</text>
        <text x="80" y="54" font-size="11" fill="#64748B">Inggris · International</text>
        <text x="80" y="70" font-size="9.5" fill="#94A3B8">Tap untuk mengaktifkan</text>
        <circle cx="310" cy="44" r="10" fill="white" stroke="#CBD5E1" stroke-width="1.5"/>
      </g>

      <line x1="24" y1="306" x2="356" y2="306" stroke="#F1F5F9"/>

      <!-- Note -->
      <g transform="translate(24, 326)">
        <rect width="332" height="62" rx="12" fill="#FEF3C7"/>
        <g transform="translate(14, 14)">
          <circle cx="10" cy="10" r="10" fill="#F59E0B" fill-opacity="0.2"/>
          <text x="10" y="14" font-size="12" font-weight="800" fill="#B45309" text-anchor="middle">i</text>
        </g>
        <text x="44" y="28" font-size="11" font-weight="700" fill="#92400E">Aplikasi akan refresh setelah ganti bahasa</text>
        <text x="44" y="44" font-size="9.5" fill="#92400E">Data login + tab aktif tetap dipertahankan</text>
      </g>

      <!-- Tutup -->
      <g transform="translate(24, 408)">
        <rect width="332" height="44" rx="14" fill="#F1F5F9"/>
        <text x="166" y="28" font-size="12" font-weight="800" fill="#475569" text-anchor="middle">Tutup</text>
      </g>
    </g>
  </g>

  <text x="1190" y="930" font-size="12" font-weight="700" fill="#1A8FBE" text-anchor="middle">3 · Bahasa picker bottom sheet</text>

  <!-- ============================================================== -->
  <!-- PHONE 4 — Perlu Perhatian "Lihat Semua" full screen             -->
  <!-- ============================================================== -->
  <g transform="translate(1460, 130)" filter="url(#phoneShadow)">
    <rect width="380" height="780" rx="36" fill="white"/>
    <rect width="380" height="780" rx="36" fill="none" stroke="#E2E8F0" stroke-width="1"/>

    <text x="28" y="32" font-size="12" font-weight="700" fill="#0F172A">9:41</text>
    <g transform="translate(320, 22)" fill="#0F172A">
      <rect x="0" y="2" width="14" height="10" rx="1"/>
      <rect x="18" y="0" width="22" height="12" rx="2" fill="none" stroke="#0F172A" stroke-width="1"/>
      <rect x="20" y="2" width="16" height="8" rx="1"/>
    </g>

    <!-- Hero -->
    <rect x="0" y="44" width="380" height="160" fill="url(#heroGrad)"/>
    <g transform="translate(20, 64)">
      <rect width="40" height="40" rx="14" fill="rgba(255,255,255,0.18)"/>
      <path d="M24 13 L16 20 L24 27" fill="none" stroke="white" stroke-width="2.5" stroke-linecap="round" stroke-linejoin="round"/>
    </g>
    <text x="190" y="78" font-size="11" fill="rgba(255,255,255,0.85)" text-anchor="middle">Beranda · Anak</text>
    <text x="190" y="104" font-size="20" font-weight="800" fill="white" text-anchor="middle">Perlu Perhatian</text>
    <!-- Counter chip -->
    <g transform="translate(140, 120)">
      <rect width="100" height="22" rx="11" fill="rgba(255,255,255,0.18)"/>
      <text x="50" y="15" font-size="10" font-weight="700" fill="white" text-anchor="middle">12 belum dibaca</text>
    </g>
    <!-- Mark all read -->
    <g transform="translate(248, 152)">
      <rect width="120" height="28" rx="14" fill="rgba(255,255,255,0.18)"/>
      <text x="60" y="18" font-size="10" font-weight="800" fill="white" text-anchor="middle">✓ Tandai semua</text>
    </g>

    <!-- Filter chips -->
    <g transform="translate(8, 220)">
      <!-- Semua active -->
      <g transform="translate(8, 0)">
        <rect width="62" height="32" rx="16" fill="#1A8FBE"/>
        <text x="31" y="20" font-size="10.5" font-weight="800" fill="white" text-anchor="middle">Semua 12</text>
      </g>
      <!-- Tagihan -->
      <g transform="translate(78, 0)">
        <rect width="76" height="32" rx="16" fill="white" stroke="#E2E8F0" stroke-width="0.75"/>
        <text x="38" y="20" font-size="10.5" font-weight="700" fill="#475569" text-anchor="middle">Tagihan 2</text>
      </g>
      <!-- Nilai -->
      <g transform="translate(162, 0)">
        <rect width="56" height="32" rx="16" fill="white" stroke="#E2E8F0" stroke-width="0.75"/>
        <text x="28" y="20" font-size="10.5" font-weight="700" fill="#475569" text-anchor="middle">Nilai 4</text>
      </g>
      <!-- Pengumuman -->
      <g transform="translate(226, 0)">
        <rect width="106" height="32" rx="16" fill="white" stroke="#E2E8F0" stroke-width="0.75"/>
        <text x="53" y="20" font-size="10.5" font-weight="700" fill="#475569" text-anchor="middle">Pengumuman 3</text>
      </g>
      <!-- scrollable indicator -->
      <text x="346" y="20" font-size="14" fill="#94A3B8">›</text>
    </g>

    <!-- HARI INI section -->
    <text x="20" y="282" font-size="9.5" font-weight="800" fill="#94A3B8" letter-spacing="0.6">HARI INI</text>

    <!-- Item 1 — Tagihan jatuh tempo -->
    <g transform="translate(16, 296)">
      <rect width="348" height="64" rx="14" fill="white" filter="url(#cardShadow)"/>
      <rect width="348" height="64" rx="14" fill="none" stroke="#FEE2E2" stroke-width="1"/>
      <rect x="14" y="14" width="36" height="36" rx="10" fill="#EF4444" fill-opacity="0.12"/>
      <g transform="translate(22, 22)" fill="#EF4444">
        <rect width="20" height="22" rx="2"/>
      </g>
      <text x="60" y="28" font-size="11" font-weight="800" fill="#0F172A">SPP Maret jatuh tempo</text>
      <text x="60" y="44" font-size="10" fill="#64748B">Salman · Rp 850.000</text>
      <text x="60" y="56" font-size="9" fill="#EF4444" font-weight="700">Telat 6 hari</text>
      <!-- unread dot + time -->
      <text x="328" y="22" font-size="9" fill="#94A3B8" text-anchor="end">09:38</text>
      <circle cx="334" cy="44" r="4" fill="#EF4444"/>
    </g>

    <!-- Item 2 — Nilai baru -->
    <g transform="translate(16, 372)">
      <rect width="348" height="64" rx="14" fill="white" filter="url(#cardShadow)"/>
      <rect width="348" height="64" rx="14" fill="none" stroke="#E2E8F0" stroke-width="0.75"/>
      <rect x="14" y="14" width="36" height="36" rx="10" fill="#6366F1" fill-opacity="0.12"/>
      <g transform="translate(22, 22)" fill="#6366F1">
        <rect x="0" y="12" width="3" height="6" rx="1"/>
        <rect x="5" y="8" width="3" height="10" rx="1"/>
        <rect x="10" y="4" width="3" height="14" rx="1"/>
        <rect x="15" y="0" width="3" height="18" rx="1"/>
      </g>
      <text x="60" y="28" font-size="11" font-weight="800" fill="#0F172A">Nilai UTS Matematika</text>
      <text x="60" y="44" font-size="10" fill="#64748B">Salman · 89 (Sangat Baik)</text>
      <text x="60" y="56" font-size="9" fill="#10B981" font-weight="700">↑ 4 dari nilai sebelumnya</text>
      <text x="328" y="22" font-size="9" fill="#94A3B8" text-anchor="end">08:00</text>
      <circle cx="334" cy="44" r="4" fill="#1A8FBE"/>
    </g>

    <!-- Item 3 — Pengumuman -->
    <g transform="translate(16, 448)">
      <rect width="348" height="64" rx="14" fill="white" filter="url(#cardShadow)"/>
      <rect width="348" height="64" rx="14" fill="none" stroke="#E2E8F0" stroke-width="0.75"/>
      <rect x="14" y="14" width="36" height="36" rx="10" fill="#21AFE6" fill-opacity="0.14"/>
      <g transform="translate(20, 22)" fill="#1A8FBE">
        <path d="M0 6 L14 0 L14 18 L0 12 Z"/>
      </g>
      <text x="60" y="28" font-size="11" font-weight="800" fill="#0F172A">Studi Tour Kelas 5</text>
      <text x="60" y="44" font-size="10" fill="#64748B">SD Al-Kamil · pengumuman penting</text>
      <text x="60" y="56" font-size="9" fill="#94A3B8">Berlaku 30 Mar – 2 Apr</text>
      <text x="328" y="22" font-size="9" fill="#94A3B8" text-anchor="end">07:15</text>
    </g>

    <!-- KEMARIN section -->
    <text x="20" y="540" font-size="9.5" font-weight="800" fill="#94A3B8" letter-spacing="0.6">KEMARIN</text>

    <!-- Item 4 — Kehadiran (sakit) -->
    <g transform="translate(16, 554)">
      <rect width="348" height="64" rx="14" fill="white" filter="url(#cardShadow)"/>
      <rect width="348" height="64" rx="14" fill="none" stroke="#E2E8F0" stroke-width="0.75"/>
      <rect x="14" y="14" width="36" height="36" rx="10" fill="#F59E0B" fill-opacity="0.14"/>
      <g transform="translate(22, 22)" fill="#F59E0B">
        <circle cx="4" cy="4" r="2"/><circle cx="14" cy="4" r="2"/>
        <rect x="2" y="9" width="5" height="9" rx="2"/>
        <rect x="11" y="9" width="6" height="9" rx="2"/>
      </g>
      <text x="60" y="28" font-size="11" font-weight="800" fill="#0F172A">Khadijah tidak hadir (Sakit)</text>
      <text x="60" y="44" font-size="10" fill="#64748B">Kelas 2B · 30 Mar 2026</text>
      <text x="60" y="56" font-size="9" fill="#94A3B8">Surat dokter sudah masuk ✓</text>
      <text x="328" y="22" font-size="9" fill="#94A3B8" text-anchor="end">14:20</text>
    </g>

    <!-- Item 5 — Aktivitas Kelas -->
    <g transform="translate(16, 630)">
      <rect width="348" height="64" rx="14" fill="white" filter="url(#cardShadow)"/>
      <rect width="348" height="64" rx="14" fill="none" stroke="#E2E8F0" stroke-width="0.75"/>
      <rect x="14" y="14" width="36" height="36" rx="10" fill="#10B981" fill-opacity="0.14"/>
      <g transform="translate(22, 22)" fill="#10B981">
        <rect width="20" height="22" rx="2"/>
      </g>
      <text x="60" y="28" font-size="11" font-weight="800" fill="#0F172A">PR IPA: Ekosistem Sekolah</text>
      <text x="60" y="44" font-size="10" fill="#64748B">Salman · Kelas 5A</text>
      <text x="60" y="56" font-size="9" fill="#F59E0B" font-weight="700">Jatuh tempo 3 Apr</text>
      <text x="328" y="22" font-size="9" fill="#94A3B8" text-anchor="end">10:00</text>
    </g>

    <!-- Bottom nav -->
    <rect x="0" y="720" width="380" height="60" fill="white"/>
    <rect x="0" y="720" width="380" height="1" fill="#E2E8F0"/>
    <g transform="translate(0, 730)" font-size="9" font-weight="700" text-anchor="middle">
      <text x="48" y="38" fill="#1A8FBE">Beranda</text>
      <text x="143" y="38" fill="#94A3B8">Akademik</text>
      <text x="237" y="38" fill="#94A3B8">Kehadiran</text>
      <text x="332" y="38" fill="#94A3B8">Tagihan</text>
    </g>
  </g>

  <text x="1650" y="930" font-size="12" font-weight="700" fill="#1A8FBE" text-anchor="middle">4 · Perlu Perhatian (Lihat Semua)</text>

  <!-- ============================================================== -->
  <!-- ANNOTATIONS                                                    -->
  <!-- ============================================================== -->
  <g transform="translate(80, 970)">
    <rect width="1680" height="320" rx="20" fill="white" stroke="#E2E8F0" stroke-width="1"/>

    <text x="24" y="36" font-size="16" font-weight="800" fill="#0F172A">Spec &amp; integration plan</text>
    <text x="24" y="56" font-size="11" fill="#64748B">A simpler single-page Bayar checkout (vs the previous 4-step Phase-5 mockup), brand-aligned bahasa picker, and a unified Perlu-Perhatian inbox surface.</text>

    <g transform="translate(24, 80)" font-size="11" fill="#475569">
      <rect width="6" height="220" rx="3" fill="#1A8FBE"/>
      <text x="20" y="14" font-weight="800" fill="#0F172A">1 · Bayar checkout</text>
      <text x="20" y="32" font-weight="700" fill="#0F172A">One page, three tabs</text>
      <text x="20" y="48">• Compact title bar (no big hero)</text>
      <text x="20" y="64">• Bill recap card (anak · jenis · total)</text>
      <text x="20" y="80">• Method tabs: QRIS · Virtual Account · Manual</text>
      <text x="20" y="96">• Per-tab inline content (no separate detail screen)</text>
      <text x="20" y="112">• Sticky "Saya sudah bayar — Cek status" CTA</text>
      <text x="20" y="128">• Auto-status: hits /bill/{id}/status every 5s</text>
      <text x="20" y="156" font-weight="700" fill="#0F172A">Backend touched:</text>
      <text x="20" y="172" font-family="ui-monospace, monospace" font-size="10" fill="#0F172A">POST /bill/{id}/checkout (create session)</text>
      <text x="20" y="188" font-family="ui-monospace, monospace" font-size="10" fill="#0F172A">GET /bill/{id}/status (poll)</text>
      <text x="20" y="204" font-family="ui-monospace, monospace" font-size="10" fill="#0F172A">POST /webhook/midtrans (auto-confirm)</text>
    </g>

    <g transform="translate(434, 80)" font-size="11" fill="#475569">
      <rect width="6" height="220" rx="3" fill="#10B981"/>
      <text x="20" y="14" font-weight="800" fill="#0F172A">2 · Pembayaran berhasil</text>
      <text x="20" y="32" font-weight="700" fill="#0F172A">Timeline-style receipt</text>
      <text x="20" y="48">• Success-green hero with confetti accent</text>
      <text x="20" y="64">• Big amount card under hero</text>
      <text x="20" y="80">• 3-step timeline: created → confirmed → recorded</text>
      <text x="20" y="96">• Unduh PDF + Bagikan + Selesai actions</text>
      <text x="20" y="112">• Footnote: notif lunas dikirim ke admin</text>
      <text x="20" y="140" font-weight="700" fill="#0F172A">Pending variant:</text>
      <text x="20" y="156">For Manual flow → orange hero + "Menunggu</text>
      <text x="20" y="172">verifikasi admin" timeline ends at step 2</text>
      <text x="20" y="200" font-weight="700" fill="#0F172A">File:</text>
      <text x="20" y="216" font-family="ui-monospace, monospace" font-size="10" fill="#0F172A">features/finance/.../payment_status_screen.dart</text>
    </g>

    <g transform="translate(844, 80)" font-size="11" fill="#475569">
      <rect width="6" height="220" rx="3" fill="#21AFE6"/>
      <text x="20" y="14" font-weight="800" fill="#0F172A">3 · Bahasa picker</text>
      <text x="20" y="32" font-weight="700" fill="#0F172A">Bottom sheet replaces current dialog</text>
      <text x="20" y="48">• Drag handle + close X + title block</text>
      <text x="20" y="64">• 2 tiles (ID active / EN) with flag, native + intl</text>
      <text x="20" y="80">  name, "Aktif sekarang" / "Tap untuk mengaktifkan"</text>
      <text x="20" y="96">• Selected: brand-azure border + check disc</text>
      <text x="20" y="112">• Amber info box: "App akan refresh setelah ganti</text>
      <text x="20" y="128">  bahasa · login + tab aktif tetap dipertahankan"</text>
      <text x="20" y="156" font-weight="700" fill="#0F172A">Wiring:</text>
      <text x="20" y="172">Existing `languageRiverpod` + `LocalCacheService`</text>
      <text x="20" y="188">— no backend change, only widget swap.</text>
      <text x="20" y="216" font-family="ui-monospace, monospace" font-size="10" fill="#0F172A">core/widgets/language_picker_sheet.dart</text>
    </g>

    <g transform="translate(1254, 80)" font-size="11" fill="#475569">
      <rect width="6" height="220" rx="3" fill="#F59E0B"/>
      <text x="20" y="14" font-weight="800" fill="#0F172A">4 · Perlu Perhatian inbox</text>
      <text x="20" y="32" font-weight="700" fill="#0F172A">Full-screen "Lihat semua" destination</text>
      <text x="20" y="48">• Brand-azure hero with counter chip + Tandai semua</text>
      <text x="20" y="64">• Filter chips horizontal scroll: Semua · Tagihan ·</text>
      <text x="20" y="80">  Nilai · Pengumuman · Kehadiran · Aktivitas</text>
      <text x="20" y="96">• Items grouped by date (HARI INI / KEMARIN /</text>
      <text x="20" y="112">  MINGGU INI), all categories together</text>
      <text x="20" y="128">• Each row: icon + title + subtitle + meta + dot</text>
      <text x="20" y="144">• Tap → opens that item's existing detail sheet</text>
      <text x="20" y="172" font-weight="700" fill="#0F172A">Backend:</text>
      <text x="20" y="188" font-family="ui-monospace, monospace" font-size="10" fill="#0F172A">GET /dashboard/parent-inbox?type=all&amp;limit=50</text>
      <text x="20" y="204">Reuses existing notifications table; controller</text>
      <text x="20" y="220">groups by `data['type']`, sorts by created_at desc.</text>
    </g>
  </g>

  <g transform="translate(80, 1310)" font-size="11" fill="#475569">
    <text x="0" font-weight="800" fill="#0F172A">Flow:</text>
    <text x="42" fill="#1A8FBE" font-weight="700">Tagihan → tap Bayar →</text>
    <text x="200" fill="#1A8FBE" font-weight="700">Checkout (1) →</text>
    <text x="320">paid →</text>
    <text x="370" fill="#1A8FBE" font-weight="700">Berhasil (2)</text>
    <text x="490">·</text>
    <text x="510">Header globe →</text>
    <text x="610" fill="#1A8FBE" font-weight="700">Bahasa picker (3)</text>
    <text x="740">·</text>
    <text x="760">Beranda Perlu Perhatian "Lihat semua" →</text>
    <text x="1010" fill="#1A8FBE" font-weight="700">Inbox screen (4)</text>
  </g>
</svg>
