<svg xmlns="http://www.w3.org/2000/svg" viewBox="0 0 1840 1320" font-family="Inter, -apple-system, system-ui, sans-serif">
  <defs>
    <linearGradient id="heroGrad" x1="0" y1="0" x2="1" y2="1">
      <stop offset="0" stop-color="#21AFE6"/>
      <stop offset="1" stop-color="#1A8FBE"/>
    </linearGradient>
    <linearGradient id="successGrad" x1="0" y1="0" x2="1" y2="1">
      <stop offset="0" stop-color="#10B981"/>
      <stop offset="1" stop-color="#059669"/>
    </linearGradient>
    <filter id="cardShadow" x="-20%" y="-20%" width="140%" height="160%">
      <feDropShadow dx="0" dy="6" stdDeviation="10" flood-color="#0F172A" flood-opacity="0.06"/>
    </filter>
    <filter id="phoneShadow" x="-10%" y="-5%" width="120%" height="115%">
      <feDropShadow dx="0" dy="14" stdDeviation="20" flood-color="#0F172A" flood-opacity="0.08"/>
    </filter>
    <pattern id="qrPattern" x="0" y="0" width="6" height="6" patternUnits="userSpaceOnUse">
      <rect width="6" height="6" fill="white"/>
      <rect width="3" height="3" fill="#0F172A"/>
      <rect x="3" y="3" width="3" height="3" fill="#0F172A"/>
    </pattern>
  </defs>

  <rect width="1840" height="1320" fill="#F8FAFC"/>

  <!-- Title -->
  <text x="60" y="58" font-weight="800" font-size="26" fill="#0F172A">Parent · Bayar Tagihan Flow · Phase 5</text>
  <text x="60" y="84" font-size="13" fill="#64748B">4 surfaces — Bill detail with Bayar CTA · Method picker · VA / QRIS detail · Confirmation state</text>
  <rect x="60" y="100" width="1720" height="1" fill="#E2E8F0"/>

  <!-- ============================================================== -->
  <!-- PHONE 1 — Bill list + sticky Bayar CTA on detail               -->
  <!-- ============================================================== -->
  <g transform="translate(80, 130)" filter="url(#phoneShadow)">
    <rect width="380" height="780" rx="36" fill="white"/>
    <rect width="380" height="780" rx="36" fill="none" stroke="#E2E8F0" stroke-width="1"/>

    <!-- status bar -->
    <text x="28" y="32" font-size="12" font-weight="700" fill="#0F172A">9:41</text>
    <g transform="translate(320, 22)" fill="#0F172A">
      <rect x="0" y="2" width="14" height="10" rx="1"/>
      <rect x="18" y="0" width="22" height="12" rx="2" fill="none" stroke="#0F172A" stroke-width="1"/>
      <rect x="20" y="2" width="16" height="8" rx="1"/>
    </g>

    <!-- Hero -->
    <rect x="0" y="44" width="380" height="160" fill="url(#heroGrad)"/>
    <g transform="translate(20, 64)">
      <rect width="40" height="40" rx="14" fill="rgba(255,255,255,0.18)"/>
      <path d="M24 13 L16 20 L24 27" fill="none" stroke="white" stroke-width="2.5" stroke-linecap="round" stroke-linejoin="round"/>
    </g>
    <text x="190" y="82" font-size="11" fill="rgba(255,255,255,0.85)" text-anchor="middle">Akademik · Anak</text>
    <text x="190" y="106" font-size="20" font-weight="800" fill="white" text-anchor="middle">Tagihan</text>
    <text x="190" y="126" font-size="10.5" fill="rgba(255,255,255,0.85)" text-anchor="middle">Salman · Kelas 5A</text>

    <!-- KPI strip overlapping hero -->
    <g transform="translate(16, 158)">
      <rect width="348" height="66" rx="16" fill="white" filter="url(#cardShadow)"/>
      <rect width="348" height="66" rx="16" fill="none" stroke="#E2E8F0" stroke-width="0.75"/>
      <text x="20" y="22" font-size="9.5" font-weight="800" fill="#94A3B8" letter-spacing="0.5">PERLU DIBAYAR</text>
      <text x="20" y="48" font-size="20" font-weight="800" fill="#DC2626">Rp 1.250.000</text>
      <text x="180" y="22" font-size="9.5" font-weight="800" fill="#94A3B8" letter-spacing="0.5">JATUH TEMPO</text>
      <text x="180" y="48" font-size="13" font-weight="800" fill="#0F172A">2 tagihan</text>
      <text x="180" y="60" font-size="9.5" fill="#EF4444">tertua: 25 Mar</text>
    </g>

    <!-- Bill 1 — overdue, with prominent Bayar -->
    <g transform="translate(16, 244)">
      <rect width="348" height="120" rx="16" fill="white" filter="url(#cardShadow)"/>
      <rect width="348" height="120" rx="16" fill="none" stroke="#FEE2E2" stroke-width="1"/>
      <!-- type icon -->
      <rect x="14" y="14" width="36" height="36" rx="11" fill="#EF4444" fill-opacity="0.12"/>
      <g transform="translate(22, 22)" fill="#EF4444">
        <rect width="20" height="22" rx="2"/>
        <rect x="3" y="4" width="14" height="2" fill="white"/>
        <rect x="3" y="9" width="14" height="2" fill="white"/>
        <rect x="3" y="14" width="8" height="2" fill="white"/>
      </g>
      <text x="60" y="28" font-size="9.5" font-weight="800" fill="#94A3B8" letter-spacing="0.4">SPP BULANAN</text>
      <text x="60" y="44" font-size="13" font-weight="800" fill="#0F172A">SPP Maret 2026</text>
      <!-- amount + status -->
      <text x="14" y="74" font-size="18" font-weight="800" fill="#0F172A">Rp 850.000</text>
      <g transform="translate(252, 60)">
        <rect width="80" height="22" rx="11" fill="#FEE2E2"/>
        <text x="40" y="15" font-size="10" font-weight="800" fill="#DC2626" text-anchor="middle">Telat 6 hari</text>
      </g>
      <!-- Bayar CTA — primary -->
      <g transform="translate(14, 86)">
        <rect width="320" height="24" rx="12" fill="#1A8FBE"/>
        <text x="160" y="16" font-size="11" font-weight="800" fill="white" text-anchor="middle">Bayar Sekarang →</text>
      </g>
    </g>

    <!-- Bill 2 — pending -->
    <g transform="translate(16, 380)">
      <rect width="348" height="120" rx="16" fill="white" filter="url(#cardShadow)"/>
      <rect width="348" height="120" rx="16" fill="none" stroke="#E2E8F0" stroke-width="0.75"/>
      <rect x="14" y="14" width="36" height="36" rx="11" fill="#F59E0B" fill-opacity="0.12"/>
      <g transform="translate(22, 22)" fill="#F59E0B">
        <rect width="20" height="22" rx="2"/>
      </g>
      <text x="60" y="28" font-size="9.5" font-weight="800" fill="#94A3B8" letter-spacing="0.4">BUKU LKS</text>
      <text x="60" y="44" font-size="13" font-weight="800" fill="#0F172A">Buku LKS Sem. Genap</text>
      <text x="14" y="74" font-size="18" font-weight="800" fill="#0F172A">Rp 400.000</text>
      <g transform="translate(252, 60)">
        <rect width="80" height="22" rx="11" fill="#FEF3C7"/>
        <text x="40" y="15" font-size="10" font-weight="800" fill="#B45309" text-anchor="middle">Belum Bayar</text>
      </g>
      <g transform="translate(14, 86)">
        <rect width="320" height="24" rx="12" fill="#1A8FBE"/>
        <text x="160" y="16" font-size="11" font-weight="800" fill="white" text-anchor="middle">Bayar Sekarang →</text>
      </g>
    </g>

    <!-- Bill 3 — paid -->
    <g transform="translate(16, 516)">
      <rect width="348" height="74" rx="16" fill="#F0FDF4" stroke="#BBF7D0" stroke-width="0.75"/>
      <rect x="14" y="20" width="34" height="34" rx="11" fill="#10B981" fill-opacity="0.18"/>
      <path d="M22 38 L28 44 L40 32" fill="none" stroke="#059669" stroke-width="2.5" stroke-linecap="round" stroke-linejoin="round"/>
      <text x="60" y="34" font-size="9.5" font-weight="800" fill="#059669" letter-spacing="0.4">SPP FEBRUARI · LUNAS</text>
      <text x="60" y="52" font-size="13" font-weight="700" fill="#0F172A">Rp 850.000 · 28 Feb 2026</text>
      <text x="262" y="44" font-size="10" font-weight="700" fill="#1A8FBE">Lihat bukti →</text>
    </g>

    <!-- Bottom nav (faded) -->
    <rect x="0" y="720" width="380" height="60" fill="white"/>
    <rect x="0" y="720" width="380" height="1" fill="#E2E8F0"/>
    <g transform="translate(0, 730)" font-size="9" font-weight="700" text-anchor="middle">
      <text x="48" y="38" fill="#94A3B8">Beranda</text>
      <text x="143" y="38" fill="#94A3B8">Akademik</text>
      <text x="237" y="38" fill="#94A3B8">Kehadiran</text>
      <text x="332" y="38" fill="#1A8FBE">Tagihan</text>
    </g>
  </g>

  <text x="270" y="930" font-size="12" font-weight="700" fill="#1A8FBE" text-anchor="middle">1 · Tagihan list with Bayar CTA per row</text>

  <!-- ============================================================== -->
  <!-- PHONE 2 — Method picker bottom sheet                            -->
  <!-- ============================================================== -->
  <g transform="translate(540, 130)" filter="url(#phoneShadow)">
    <rect width="380" height="780" rx="36" fill="white"/>
    <rect width="380" height="780" rx="36" fill="none" stroke="#E2E8F0" stroke-width="1"/>

    <text x="28" y="32" font-size="12" font-weight="700" fill="#0F172A">9:41</text>
    <g transform="translate(320, 22)" fill="#0F172A">
      <rect x="0" y="2" width="14" height="10" rx="1"/>
      <rect x="18" y="0" width="22" height="12" rx="2" fill="none" stroke="#0F172A" stroke-width="1"/>
      <rect x="20" y="2" width="16" height="8" rx="1"/>
    </g>

    <!-- dimmed list behind -->
    <rect x="0" y="44" width="380" height="736" fill="#0F172A" fill-opacity="0.45"/>

    <!-- Bottom sheet -->
    <g transform="translate(0, 110)">
      <path d="M0 28 Q0 0 28 0 H352 Q380 0 380 28 V670 H0 Z" fill="white"/>
      <rect x="170" y="10" width="40" height="4" rx="2" fill="#CBD5E1"/>

      <!-- Header — bill summary recap -->
      <text x="190" y="42" font-size="14" font-weight="800" fill="#0F172A" text-anchor="middle">Pilih Metode Pembayaran</text>
      <text x="190" y="60" font-size="10.5" fill="#64748B" text-anchor="middle">SPP Maret 2026 · Salman</text>

      <g transform="translate(24, 80)">
        <rect width="332" height="64" rx="14" fill="#F0F9FF" stroke="#BAE6FD" stroke-width="0.75"/>
        <text x="14" y="22" font-size="9.5" font-weight="800" fill="#1A8FBE" letter-spacing="0.5">JUMLAH BAYAR</text>
        <text x="14" y="48" font-size="20" font-weight="800" fill="#0F172A">Rp 850.000</text>
        <text x="200" y="22" font-size="9.5" font-weight="800" fill="#1A8FBE" letter-spacing="0.5">JATUH TEMPO</text>
        <text x="200" y="48" font-size="12" font-weight="800" fill="#0F172A">25 Mar 2026</text>
        <text x="200" y="58" font-size="9" fill="#EF4444">Telat 6 hari</text>
      </g>

      <line x1="24" y1="166" x2="356" y2="166" stroke="#F1F5F9"/>
      <text x="24" y="190" font-size="10.5" font-weight="800" fill="#94A3B8" letter-spacing="0.5">METODE TERSEDIA</text>

      <!-- Method 1 — QRIS (recommended) -->
      <g transform="translate(24, 204)">
        <rect width="332" height="84" rx="16" fill="white" stroke="#21AFE6" stroke-width="1.5"/>
        <!-- ribbon "Tercepat" -->
        <g transform="translate(248, -8)">
          <rect width="80" height="20" rx="10" fill="#21AFE6"/>
          <text x="40" y="14" font-size="9" font-weight="800" fill="white" text-anchor="middle">⚡ Tercepat</text>
        </g>
        <rect x="14" y="14" width="44" height="44" rx="12" fill="#1A8FBE" fill-opacity="0.12"/>
        <g transform="translate(20, 20)" fill="#1A8FBE">
          <rect width="14" height="14" rx="1"/>
          <rect x="18" y="0" width="14" height="14" rx="1"/>
          <rect x="0" y="18" width="14" height="14" rx="1"/>
          <rect x="22" y="22" width="6" height="6"/>
          <rect x="18" y="18" width="4" height="4"/>
        </g>
        <text x="68" y="32" font-size="13" font-weight="800" fill="#0F172A">QRIS</text>
        <text x="68" y="48" font-size="10" fill="#64748B">Scan dengan e-wallet / m-banking</text>
        <text x="68" y="62" font-size="9.5" fill="#10B981" font-weight="700">Konfirmasi otomatis · biaya admin Rp 0</text>
        <!-- radio selected -->
        <circle cx="312" cy="42" r="10" fill="#1A8FBE"/>
        <circle cx="312" cy="42" r="4" fill="white"/>
      </g>

      <!-- Method 2 — Virtual Account -->
      <g transform="translate(24, 304)">
        <rect width="332" height="84" rx="16" fill="white" stroke="#E2E8F0" stroke-width="0.75"/>
        <rect x="14" y="14" width="44" height="44" rx="12" fill="#10B981" fill-opacity="0.12"/>
        <g transform="translate(22, 22)" fill="#10B981">
          <rect width="28" height="22" rx="2"/>
          <rect x="3" y="6" width="22" height="2" fill="white"/>
          <rect x="3" y="11" width="14" height="2" fill="white"/>
        </g>
        <text x="68" y="32" font-size="13" font-weight="800" fill="#0F172A">Virtual Account (BCA / Mandiri / BNI / BRI)</text>
        <text x="68" y="48" font-size="10" fill="#64748B">Transfer ke nomor VA per tagihan</text>
        <text x="68" y="62" font-size="9.5" fill="#10B981" font-weight="700">Konfirmasi otomatis · biaya admin Rp 4.000</text>
        <circle cx="312" cy="42" r="10" fill="white" stroke="#CBD5E1" stroke-width="1.5"/>
      </g>

      <!-- Method 3 — Manual transfer + upload bukti -->
      <g transform="translate(24, 404)">
        <rect width="332" height="84" rx="16" fill="white" stroke="#E2E8F0" stroke-width="0.75"/>
        <rect x="14" y="14" width="44" height="44" rx="12" fill="#94A3B8" fill-opacity="0.12"/>
        <g transform="translate(22, 22)" fill="#475569">
          <path d="M0 0 L26 0 L26 18 L0 18 Z" fill="none" stroke="#475569" stroke-width="1.5"/>
          <path d="M5 22 L13 14 L21 22" fill="none" stroke="#475569" stroke-width="1.5" stroke-linecap="round"/>
        </g>
        <text x="68" y="32" font-size="13" font-weight="800" fill="#0F172A">Transfer Manual + Bukti</text>
        <text x="68" y="48" font-size="10" fill="#64748B">Transfer ke rek sekolah, unggah bukti</text>
        <text x="68" y="62" font-size="9.5" fill="#94A3B8" font-weight="700">Verifikasi admin · 1–24 jam</text>
        <circle cx="312" cy="42" r="10" fill="white" stroke="#CBD5E1" stroke-width="1.5"/>
      </g>

      <line x1="24" y1="510" x2="356" y2="510" stroke="#F1F5F9"/>

      <!-- footnote about partial -->
      <text x="190" y="538" font-size="9.5" fill="#94A3B8" text-anchor="middle">Pembayaran sebagian (cicilan) tersedia setelah memilih metode.</text>

      <!-- Lanjut button -->
      <g transform="translate(24, 558)">
        <rect width="332" height="48" rx="14" fill="#1A8FBE"/>
        <text x="166" y="30" font-size="13" font-weight="800" fill="white" text-anchor="middle">Lanjut Bayar Rp 850.000</text>
      </g>

      <!-- Cancel button -->
      <g transform="translate(24, 614)">
        <rect width="332" height="44" rx="14" fill="#F1F5F9"/>
        <text x="166" y="28" font-size="12" font-weight="700" fill="#64748B" text-anchor="middle">Batal</text>
      </g>
    </g>
  </g>

  <text x="730" y="930" font-size="12" font-weight="700" fill="#1A8FBE" text-anchor="middle">2 · Method picker (3 methods)</text>

  <!-- ============================================================== -->
  <!-- PHONE 3 — Virtual Account detail                                -->
  <!-- ============================================================== -->
  <g transform="translate(1000, 130)" filter="url(#phoneShadow)">
    <rect width="380" height="780" rx="36" fill="white"/>
    <rect width="380" height="780" rx="36" fill="none" stroke="#E2E8F0" stroke-width="1"/>

    <text x="28" y="32" font-size="12" font-weight="700" fill="#0F172A">9:41</text>
    <g transform="translate(320, 22)" fill="#0F172A">
      <rect x="0" y="2" width="14" height="10" rx="1"/>
      <rect x="18" y="0" width="22" height="12" rx="2" fill="none" stroke="#0F172A" stroke-width="1"/>
      <rect x="20" y="2" width="16" height="8" rx="1"/>
    </g>

    <!-- Hero -->
    <rect x="0" y="44" width="380" height="160" fill="url(#heroGrad)"/>
    <g transform="translate(20, 64)">
      <rect width="40" height="40" rx="14" fill="rgba(255,255,255,0.18)"/>
      <path d="M24 13 L16 20 L24 27" fill="none" stroke="white" stroke-width="2.5" stroke-linecap="round" stroke-linejoin="round"/>
    </g>
    <text x="190" y="82" font-size="11" fill="rgba(255,255,255,0.85)" text-anchor="middle">Pembayaran</text>
    <text x="190" y="106" font-size="20" font-weight="800" fill="white" text-anchor="middle">Virtual Account</text>
    <!-- Countdown -->
    <g transform="translate(124, 124)">
      <rect width="132" height="30" rx="15" fill="rgba(255,255,255,0.18)"/>
      <text x="14" y="20" font-size="11" font-weight="700" fill="rgba(255,255,255,0.95)">⏱  Kedaluwarsa 23:42:18</text>
    </g>

    <!-- VA card -->
    <g transform="translate(16, 220)">
      <rect width="348" height="156" rx="20" fill="white" filter="url(#cardShadow)"/>
      <!-- BCA logo placeholder -->
      <g transform="translate(20, 20)">
        <rect width="56" height="20" rx="4" fill="#0F4FAA"/>
        <text x="28" y="14" font-size="11" font-weight="800" fill="white" text-anchor="middle">BCA</text>
      </g>
      <text x="20" y="62" font-size="10.5" font-weight="800" fill="#94A3B8" letter-spacing="0.5">NOMOR VIRTUAL ACCOUNT</text>
      <text x="20" y="92" font-size="22" font-weight="800" fill="#0F172A" letter-spacing="2">8077 0123 4567 8901</text>
      <!-- copy button -->
      <g transform="translate(252, 76)">
        <rect width="80" height="28" rx="10" fill="#F0F9FF" stroke="#BAE6FD"/>
        <text x="40" y="18" font-size="10" font-weight="800" fill="#1A8FBE" text-anchor="middle">📋 Salin</text>
      </g>
      <line x1="20" y1="110" x2="328" y2="110" stroke="#F1F5F9"/>
      <text x="20" y="130" font-size="9.5" font-weight="800" fill="#94A3B8" letter-spacing="0.5">JUMLAH</text>
      <text x="20" y="146" font-size="16" font-weight="800" fill="#0F172A">Rp 854.000</text>
      <text x="220" y="146" font-size="9.5" fill="#94A3B8">+ admin Rp 4.000</text>
    </g>

    <!-- Switch bank -->
    <g transform="translate(16, 392)">
      <rect width="348" height="40" rx="12" fill="#F1F5F9"/>
      <text x="174" y="26" font-size="11" font-weight="700" fill="#475569" text-anchor="middle">Ganti bank ▾</text>
    </g>

    <!-- Cara bayar -->
    <text x="32" y="458" font-size="13" font-weight="800" fill="#0F172A">Cara Bayar</text>
    <g transform="translate(16, 472)">
      <rect width="348" height="200" rx="16" fill="white" stroke="#E2E8F0" stroke-width="0.75"/>
      <!-- Step 1 -->
      <g transform="translate(16, 20)">
        <circle cx="10" cy="10" r="10" fill="#1A8FBE"/>
        <text x="10" y="14" font-size="10" font-weight="800" fill="white" text-anchor="middle">1</text>
        <text x="32" y="14" font-size="11" font-weight="700" fill="#0F172A">Buka m-BCA / KlikBCA</text>
      </g>
      <g transform="translate(16, 56)">
        <circle cx="10" cy="10" r="10" fill="#1A8FBE"/>
        <text x="10" y="14" font-size="10" font-weight="800" fill="white" text-anchor="middle">2</text>
        <text x="32" y="14" font-size="11" font-weight="700" fill="#0F172A">Pilih m-Transfer → BCA Virtual Account</text>
      </g>
      <g transform="translate(16, 92)">
        <circle cx="10" cy="10" r="10" fill="#1A8FBE"/>
        <text x="10" y="14" font-size="10" font-weight="800" fill="white" text-anchor="middle">3</text>
        <text x="32" y="14" font-size="11" font-weight="700" fill="#0F172A">Masukkan nomor VA di atas</text>
      </g>
      <g transform="translate(16, 128)">
        <circle cx="10" cy="10" r="10" fill="#1A8FBE"/>
        <text x="10" y="14" font-size="10" font-weight="800" fill="white" text-anchor="middle">4</text>
        <text x="32" y="14" font-size="11" font-weight="700" fill="#0F172A">Konfirmasi nominal &amp; selesaikan</text>
      </g>
      <g transform="translate(16, 164)">
        <circle cx="10" cy="10" r="10" fill="#10B981"/>
        <path d="M5 10 L9 13 L15 7" fill="none" stroke="white" stroke-width="2" stroke-linecap="round"/>
        <text x="32" y="14" font-size="11" font-weight="700" fill="#059669">Konfirmasi otomatis &lt; 1 menit</text>
      </g>
    </g>

    <!-- Sticky footer Selesai/Cek Status -->
    <rect x="0" y="700" width="380" height="80" fill="white"/>
    <rect x="0" y="700" width="380" height="1" fill="#E2E8F0"/>
    <g transform="translate(16, 716)">
      <rect width="332" height="48" rx="14" fill="#1A8FBE"/>
      <text x="166" y="30" font-size="13" font-weight="800" fill="white" text-anchor="middle">Cek Status Pembayaran</text>
    </g>
  </g>

  <text x="1190" y="930" font-size="12" font-weight="700" fill="#1A8FBE" text-anchor="middle">3 · Virtual Account detail</text>

  <!-- ============================================================== -->
  <!-- PHONE 4 — Confirmation: success & pending states               -->
  <!-- ============================================================== -->
  <g transform="translate(1460, 130)" filter="url(#phoneShadow)">
    <rect width="380" height="780" rx="36" fill="white"/>
    <rect width="380" height="780" rx="36" fill="none" stroke="#E2E8F0" stroke-width="1"/>

    <text x="28" y="32" font-size="12" font-weight="700" fill="#0F172A">9:41</text>
    <g transform="translate(320, 22)" fill="#0F172A">
      <rect x="0" y="2" width="14" height="10" rx="1"/>
      <rect x="18" y="0" width="22" height="12" rx="2" fill="none" stroke="#0F172A" stroke-width="1"/>
      <rect x="20" y="2" width="16" height="8" rx="1"/>
    </g>

    <!-- Success hero -->
    <rect x="0" y="44" width="380" height="220" fill="url(#successGrad)"/>
    <!-- Confetti dots -->
    <circle cx="60" cy="90" r="3" fill="rgba(255,255,255,0.5)"/>
    <circle cx="320" cy="100" r="4" fill="rgba(255,255,255,0.4)"/>
    <circle cx="280" cy="160" r="3" fill="rgba(255,255,255,0.5)"/>
    <circle cx="80" cy="180" r="2" fill="rgba(255,255,255,0.4)"/>
    <!-- Big check -->
    <circle cx="190" cy="140" r="44" fill="white"/>
    <path d="M170 140 L184 154 L210 124" fill="none" stroke="#10B981" stroke-width="5" stroke-linecap="round" stroke-linejoin="round"/>
    <text x="190" y="208" font-size="20" font-weight="800" fill="white" text-anchor="middle">Pembayaran Berhasil</text>
    <text x="190" y="232" font-size="11" fill="rgba(255,255,255,0.9)" text-anchor="middle">Terima kasih, Yahya</text>

    <!-- Receipt card -->
    <g transform="translate(16, 280)">
      <rect width="348" height="280" rx="20" fill="white" filter="url(#cardShadow)"/>
      <!-- top label -->
      <text x="20" y="32" font-size="10" font-weight="800" fill="#94A3B8" letter-spacing="0.5">RINCIAN PEMBAYARAN</text>
      <line x1="20" y1="48" x2="328" y2="48" stroke="#F1F5F9"/>

      <g transform="translate(20, 60)">
        <text x="0" y="14" font-size="10.5" fill="#64748B">Untuk</text>
        <text x="328" y="14" font-size="11" font-weight="800" fill="#0F172A" text-anchor="end">Salman · Kelas 5A</text>
      </g>
      <g transform="translate(20, 88)">
        <text x="0" y="14" font-size="10.5" fill="#64748B">Tagihan</text>
        <text x="328" y="14" font-size="11" font-weight="800" fill="#0F172A" text-anchor="end">SPP Maret 2026</text>
      </g>
      <g transform="translate(20, 116)">
        <text x="0" y="14" font-size="10.5" fill="#64748B">Metode</text>
        <text x="328" y="14" font-size="11" font-weight="800" fill="#0F172A" text-anchor="end">BCA Virtual Account</text>
      </g>
      <g transform="translate(20, 144)">
        <text x="0" y="14" font-size="10.5" fill="#64748B">Waktu</text>
        <text x="328" y="14" font-size="11" font-weight="800" fill="#0F172A" text-anchor="end">31 Mar 2026 · 09:38</text>
      </g>

      <line x1="20" y1="180" x2="328" y2="180" stroke="#F1F5F9" stroke-dasharray="3 3"/>

      <g transform="translate(20, 200)">
        <text x="0" y="14" font-size="10.5" fill="#64748B">Subtotal</text>
        <text x="328" y="14" font-size="11" fill="#475569" text-anchor="end">Rp 850.000</text>
      </g>
      <g transform="translate(20, 222)">
        <text x="0" y="14" font-size="10.5" fill="#64748B">Biaya admin</text>
        <text x="328" y="14" font-size="11" fill="#475569" text-anchor="end">Rp 4.000</text>
      </g>
      <g transform="translate(20, 250)">
        <text x="0" y="16" font-size="13" font-weight="800" fill="#0F172A">Total dibayar</text>
        <text x="328" y="16" font-size="16" font-weight="800" fill="#10B981" text-anchor="end">Rp 854.000</text>
      </g>
    </g>

    <!-- Action buttons -->
    <g transform="translate(16, 580)">
      <rect width="160" height="44" rx="14" fill="#F0F9FF" stroke="#BAE6FD"/>
      <text x="80" y="28" font-size="11" font-weight="800" fill="#1A8FBE" text-anchor="middle">📥 Unduh Kuitansi</text>
    </g>
    <g transform="translate(188, 580)">
      <rect width="160" height="44" rx="14" fill="#F0F9FF" stroke="#BAE6FD"/>
      <text x="80" y="28" font-size="11" font-weight="800" fill="#1A8FBE" text-anchor="middle">📤 Bagikan</text>
    </g>

    <g transform="translate(16, 638)">
      <rect width="348" height="48" rx="14" fill="#1A8FBE"/>
      <text x="174" y="30" font-size="13" font-weight="800" fill="white" text-anchor="middle">Kembali ke Tagihan</text>
    </g>

    <!-- Pending state preview chip (showing alternative outcome) -->
    <g transform="translate(16, 700)">
      <rect width="348" height="60" rx="14" fill="#FEF3C7" stroke="#FCD34D" stroke-width="0.75"/>
      <g transform="translate(16, 16)">
        <circle cx="14" cy="14" r="14" fill="#F59E0B" fill-opacity="0.2"/>
        <text x="14" y="19" font-size="14" font-weight="800" fill="#B45309" text-anchor="middle">⏱</text>
      </g>
      <text x="60" y="30" font-size="10.5" font-weight="800" fill="#B45309">Kalau pakai Transfer Manual</text>
      <text x="60" y="48" font-size="10" fill="#92400E">→ status: Menunggu verifikasi admin (1–24 jam)</text>
    </g>
  </g>

  <text x="1650" y="930" font-size="12" font-weight="700" fill="#1A8FBE" text-anchor="middle">4 · Pembayaran berhasil + receipt</text>

  <!-- ============================================================== -->
  <!-- ANNOTATIONS PANEL                                              -->
  <!-- ============================================================== -->
  <g transform="translate(80, 970)">
    <rect width="1680" height="320" rx="20" fill="white" stroke="#E2E8F0" stroke-width="1"/>

    <text x="24" y="36" font-size="16" font-weight="800" fill="#0F172A">Spec &amp; integration plan</text>
    <text x="24" y="56" font-size="11" fill="#64748B">Three payment methods, one consistent flow. QRIS + VA = auto-confirm via gateway webhook; manual = admin verifies receipt upload.</text>

    <!-- 4 columns -->
    <g transform="translate(24, 80)" font-size="11" fill="#475569">
      <rect width="6" height="220" rx="3" fill="#1A8FBE"/>
      <text x="20" y="14" font-weight="800" fill="#0F172A">1 · Bayar CTA on bill</text>
      <text x="20" y="32">Replaces the placeholder "Bayar via Transfer" alert.</text>
      <text x="20" y="48">• Bayar Sekarang full-width tile inside the bill card</text>
      <text x="20" y="64">  (only on unpaid + partial; paid rows show "Lihat bukti")</text>
      <text x="20" y="80">• Tap → opens Method picker sheet (surface 2)</text>
      <text x="20" y="100" font-weight="700" fill="#0F172A">Backend touched:</text>
      <text x="20" y="116">• POST /bill/{id}/checkout — creates payment session</text>
      <text x="20" y="132">  returns: token, redirect_url (gateway), va_number, qr_string</text>
      <text x="20" y="156" font-weight="700" fill="#0F172A">File:</text>
      <text x="20" y="172" font-family="ui-monospace, monospace" font-size="10" fill="#0F172A">features/finance/.../parent_bill_pay_button.dart</text>
    </g>

    <g transform="translate(434, 80)" font-size="11" fill="#475569">
      <rect width="6" height="220" rx="3" fill="#10B981"/>
      <text x="20" y="14" font-weight="800" fill="#0F172A">2 · Method picker sheet</text>
      <text x="20" y="32">Bottom sheet, recap card + 3 method tiles + Lanjut.</text>
      <text x="20" y="48">• QRIS — recommended ribbon "Tercepat", auto-confirm</text>
      <text x="20" y="64">• Virtual Account — bank picker (BCA/Mandiri/BNI/BRI)</text>
      <text x="20" y="80">• Manual transfer — verifikasi admin 1–24 jam</text>
      <text x="20" y="96">• Single-radio selection · sticky Lanjut button shows total</text>
      <text x="20" y="120" font-weight="700" fill="#0F172A">Gateway:</text>
      <text x="20" y="136">Midtrans Snap API (recommended) atau Xendit Invoice.</text>
      <text x="20" y="152">School pilih provider via env config.</text>
      <text x="20" y="172" font-weight="700" fill="#0F172A">File:</text>
      <text x="20" y="188" font-family="ui-monospace, monospace" font-size="10" fill="#0F172A">features/finance/.../bill_payment_method_sheet.dart</text>
    </g>

    <g transform="translate(844, 80)" font-size="11" fill="#475569">
      <rect width="6" height="220" rx="3" fill="#6366F1"/>
      <text x="20" y="14" font-weight="800" fill="#0F172A">3 · Method detail screens</text>
      <text x="20" y="32">Per-method follow-up surface. Examples:</text>
      <text x="20" y="48">• <tspan font-weight="700">VA</tspan> — bank logo, VA number with copy, expiry timer,</text>
      <text x="20" y="64">  step-by-step instructions, "Cek Status" button (polls)</text>
      <text x="20" y="80">• <tspan font-weight="700">QRIS</tspan> — big QR (CustomPaint), copyable amount,</text>
      <text x="20" y="96">  expiry timer, "Sudah bayar?" button</text>
      <text x="20" y="112">• <tspan font-weight="700">Manual</tspan> — list rek sekolah + upload bukti picker</text>
      <text x="20" y="128">  (image_picker + multipart POST /bill/{id}/proof)</text>
      <text x="20" y="152" font-weight="700" fill="#0F172A">Polling vs webhook:</text>
      <text x="20" y="168">Webhook is canonical; client polls /bill/{id}/status as a</text>
      <text x="20" y="184">UX accelerator. Once webhook lands → push notification.</text>
    </g>

    <g transform="translate(1254, 80)" font-size="11" fill="#475569">
      <rect width="6" height="220" rx="3" fill="#F59E0B"/>
      <text x="20" y="14" font-weight="800" fill="#0F172A">4 · Confirmation + receipt</text>
      <text x="20" y="32">Two final states:</text>
      <text x="20" y="48">• <tspan font-weight="700">Berhasil</tspan> (success-green hero, big check, receipt</text>
      <text x="20" y="64">  card with breakdown, Unduh / Bagikan / Kembali)</text>
      <text x="20" y="80">• <tspan font-weight="700">Menunggu verifikasi</tspan> (warning-amber hero, "Lihat</text>
      <text x="20" y="96">  status di tab Tagihan", admin akan verifikasi 1–24 jam)</text>
      <text x="20" y="120" font-weight="700" fill="#0F172A">Backend additions:</text>
      <text x="20" y="136">• migration: payments add columns gateway_provider,</text>
      <text x="20" y="152">  gateway_session_id, va_number, qr_string, expires_at</text>
      <text x="20" y="168">• POST /webhook/{provider} — gateway → server</text>
      <text x="20" y="184">• POST /bill/{id}/proof — multipart for manual flow</text>
      <text x="20" y="200">• GET  /bill/{id}/status — polling endpoint</text>
    </g>
  </g>

  <g transform="translate(80, 1310)" font-size="11" fill="#475569">
    <text x="0" font-weight="800" fill="#0F172A">Flow:</text>
    <text x="42" fill="#1A8FBE" font-weight="700">Tagihan list (1)</text>
    <text x="160" >→ tap Bayar →</text>
    <text x="262" fill="#1A8FBE" font-weight="700">Method picker (2)</text>
    <text x="392">→ pilih → Lanjut →</text>
    <text x="514" fill="#1A8FBE" font-weight="700">Detail VA / QRIS / Manual (3)</text>
    <text x="720">→ paid →</text>
    <text x="775" fill="#1A8FBE" font-weight="700">Berhasil + Receipt (4)</text>
  </g>
</svg>
