<svg xmlns="http://www.w3.org/2000/svg" viewBox="0 0 1440 1240" font-family="Inter, -apple-system, system-ui, sans-serif">
  <!-- ========== DEFS ========== -->
  <defs>
    <linearGradient id="heroGrad" x1="0" y1="0" x2="1" y2="1">
      <stop offset="0" stop-color="#21AFE6"/>
      <stop offset="1" stop-color="#1A8FBE"/>
    </linearGradient>
    <filter id="cardShadow" x="-20%" y="-20%" width="140%" height="160%">
      <feDropShadow dx="0" dy="6" stdDeviation="10" flood-color="#0F172A" flood-opacity="0.06"/>
    </filter>
    <filter id="phoneShadow" x="-10%" y="-5%" width="120%" height="115%">
      <feDropShadow dx="0" dy="14" stdDeviation="20" flood-color="#0F172A" flood-opacity="0.08"/>
    </filter>
  </defs>

  <rect width="1440" height="1240" fill="#F8FAFC"/>

  <!-- ========== TITLE ========== -->
  <text x="60" y="58" font-weight="800" font-size="26" fill="#0F172A">Parent Dashboard · Per-card Context Cycle</text>
  <text x="60" y="84" font-size="13" fill="#64748B">Each KPI card has its own Stories-style progress bar at the top edge · all cards sync to the same active slice · auto-slides 6s · same component for admin/teacher/parent</text>
  <rect x="60" y="100" width="1320" height="1" fill="#E2E8F0"/>

  <!-- ============================================================ -->
  <!-- PHONE 1 — Parent · Salman active · KPI page 1                -->
  <!-- ============================================================ -->
  <g transform="translate(80, 130)" filter="url(#phoneShadow)">
    <rect width="380" height="780" rx="36" fill="white"/>
    <rect width="380" height="780" rx="36" fill="none" stroke="#E2E8F0" stroke-width="1"/>

    <!-- status bar -->
    <text x="28" y="32" font-size="12" font-weight="700" fill="#0F172A">9:41</text>
    <g transform="translate(320, 22)" fill="#0F172A">
      <rect x="0" y="2" width="14" height="10" rx="1"/>
      <rect x="18" y="0" width="22" height="12" rx="2" fill="none" stroke="#0F172A" stroke-width="1"/>
      <rect x="20" y="2" width="16" height="8" rx="1"/>
    </g>

    <!-- HERO — now ROLE-AGNOSTIC, no child selector -->
    <rect x="16" y="56" width="348" height="200" rx="22" fill="url(#heroGrad)"/>

    <!-- bell + account -->
    <g transform="translate(248, 78)" fill="white">
      <circle cx="12" cy="12" r="14" fill="rgba(255,255,255,0.18)"/>
      <path d="M9 8 a3 3 0 0 1 6 0 v3 l1 2 h-8 l1 -2 z M11 16 a1 1 0 0 0 2 0"/>
      <circle cx="17" cy="6" r="3" fill="#EF4444"/>
    </g>
    <g transform="translate(296, 76)">
      <rect width="56" height="28" rx="14" fill="rgba(255,255,255,0.2)"/>
      <circle cx="14" cy="14" r="9" fill="rgba(255,255,255,0.9)"/>
      <text x="28" y="18" font-size="11" font-weight="700" fill="white">YH</text>
    </g>

    <!-- greeting -->
    <text x="32" y="104" font-size="12" fill="rgba(255,255,255,0.85)" font-weight="500">Selamat pagi 👋</text>
    <text x="32" y="132" font-size="22" font-weight="800" fill="white">Yahya Al Hasymi</text>
    <text x="32" y="154" font-size="11" fill="rgba(255,255,255,0.85)">Wali Murid · SD Al-Kamil Bekasi</text>

    <!-- school pill -->
    <g transform="translate(32, 174)">
      <rect width="146" height="30" rx="15" fill="rgba(255,255,255,0.2)"/>
      <text x="14" y="14" font-size="9" font-weight="800" fill="rgba(255,255,255,0.85)" letter-spacing="1">SEKOLAH AKTIF</text>
      <text x="14" y="25" font-size="10.5" font-weight="700" fill="white">SD Al-Kamil Bekasi ▾</text>
    </g>

    <!-- ===== KPI strip — page 1 ===== -->
    <!-- CARD 1 — KEHADIRAN (Salman) -->
    <g transform="translate(20, 220)">
      <g filter="url(#cardShadow)">
        <rect width="166" height="124" rx="16" fill="white"/>
        <rect width="166" height="124" rx="16" fill="none" stroke="#E2E8F0" stroke-width="0.75"/>
      </g>

      <!-- segmented progress strip — INSIDE the card, top edge -->
      <g transform="translate(14, 12)">
        <!-- base bars -->
        <rect width="44" height="3" rx="1.5" fill="#E2E8F0"/>
        <rect x="48" width="44" height="3" rx="1.5" fill="#E2E8F0"/>
        <rect x="96" width="44" height="3" rx="1.5" fill="#E2E8F0"/>
        <!-- active fill: segment 1 at 40% -->
        <rect width="18" height="3" rx="1.5" fill="#1A8FBE"/>
      </g>

      <!-- icon + label -->
      <rect x="14" y="26" width="34" height="34" rx="11" fill="#10B981" fill-opacity="0.12"/>
      <g transform="translate(22, 34)" fill="#10B981">
        <circle cx="4" cy="4" r="2.4"/><circle cx="14" cy="4" r="2.4"/>
        <rect x="2" y="9" width="5" height="9" rx="2"/>
        <rect x="11" y="9" width="6" height="9" rx="2"/>
      </g>
      <text x="56" y="40" font-size="10" font-weight="700" fill="#64748B" letter-spacing="0.5">KEHADIRAN</text>
      <text x="56" y="54" font-size="9" fill="#94A3B8"><tspan font-weight="700" fill="#1A8FBE">Salman</tspan> · 30 hari</text>

      <text x="14" y="92" font-size="26" font-weight="800" fill="#0F172A">94<tspan font-size="16" fill="#64748B">%</tspan></text>
      <g transform="translate(82, 78)">
        <rect width="68" height="20" rx="10" fill="#DCFCE7"/>
        <text x="34" y="14" font-size="10" font-weight="800" fill="#059669" text-anchor="middle">↑ 3% bln ini</text>
      </g>
      <text x="14" y="111" font-size="10.5" fill="#64748B">2 sakit · 1 izin · 0 alpa</text>
    </g>

    <!-- CARD 2 — TAGIHAN (Salman) -->
    <g transform="translate(194, 220)">
      <g filter="url(#cardShadow)">
        <rect width="166" height="124" rx="16" fill="white"/>
        <rect width="166" height="124" rx="16" fill="none" stroke="#E2E8F0" stroke-width="0.75"/>
      </g>
      <!-- progress strip in sync -->
      <g transform="translate(14, 12)">
        <rect width="44" height="3" rx="1.5" fill="#E2E8F0"/>
        <rect x="48" width="44" height="3" rx="1.5" fill="#E2E8F0"/>
        <rect x="96" width="44" height="3" rx="1.5" fill="#E2E8F0"/>
        <rect width="18" height="3" rx="1.5" fill="#1A8FBE"/>
      </g>

      <rect x="14" y="26" width="34" height="34" rx="11" fill="#EF4444" fill-opacity="0.12"/>
      <g transform="translate(22, 34)" fill="#EF4444">
        <rect x="0" y="0" width="14" height="18" rx="1.5"/>
        <rect x="3" y="4" width="8" height="1.5" fill="white"/>
        <rect x="3" y="8" width="8" height="1.5" fill="white"/>
        <rect x="3" y="12" width="5" height="1.5" fill="white"/>
      </g>
      <text x="56" y="40" font-size="10" font-weight="700" fill="#64748B" letter-spacing="0.5">TAGIHAN</text>
      <text x="56" y="54" font-size="9" fill="#94A3B8"><tspan font-weight="700" fill="#1A8FBE">Salman</tspan> · jatuh tempo</text>

      <text x="14" y="92" font-size="22" font-weight="800" fill="#0F172A">Rp 450<tspan font-size="14" fill="#64748B">K</tspan></text>
      <g transform="translate(96, 78)">
        <rect width="54" height="20" rx="10" fill="#FEE2E2"/>
        <text x="27" y="14" font-size="10" font-weight="800" fill="#DC2626" text-anchor="middle">2 tagihan</text>
      </g>
      <text x="14" y="111" font-size="10.5" fill="#EF4444" font-weight="600">SPP Apr · Buku LKS</text>
    </g>

    <!-- KPI page dots -->
    <g transform="translate(170, 360)">
      <rect width="20" height="6" rx="3" fill="#1A8FBE"/>
      <circle cx="30" cy="3" r="3" fill="#CBD5E1"/>
    </g>

    <!-- placeholders -->
    <text x="32" y="402" font-size="13" font-weight="800" fill="#0F172A">Aksi Cepat</text>
    <g transform="translate(20, 416)">
      <rect width="84" height="84" rx="14" fill="white" stroke="#E2E8F0" stroke-width="0.75"/>
      <rect x="92" width="84" height="84" rx="14" fill="white" stroke="#E2E8F0" stroke-width="0.75"/>
      <rect x="184" width="84" height="84" rx="14" fill="white" stroke="#E2E8F0" stroke-width="0.75"/>
      <rect x="276" width="64" height="84" rx="14" fill="#F1F5F9"/>
    </g>
    <text x="32" y="528" font-size="13" font-weight="800" fill="#0F172A">Aktivitas Terbaru</text>
    <rect x="20" y="542" width="340" height="64" rx="14" fill="white" stroke="#E2E8F0" stroke-width="0.75"/>
    <rect x="20" y="612" width="340" height="64" rx="14" fill="white" stroke="#E2E8F0" stroke-width="0.75"/>

    <rect y="720" width="380" height="60" fill="white"/>
    <rect y="720" width="380" height="1" fill="#E2E8F0"/>
    <g transform="translate(0, 730)" font-size="9" font-weight="700" text-anchor="middle">
      <text x="38" y="38" fill="#1A8FBE">Beranda</text>
      <text x="114" y="38" fill="#94A3B8">Akademik</text>
      <text x="190" y="38" fill="#94A3B8">Keuangan</text>
      <text x="266" y="38" fill="#94A3B8">Pengumuman</text>
      <text x="342" y="38" fill="#94A3B8">Profil</text>
    </g>
  </g>

  <!-- transition arrow -->
  <g transform="translate(484, 268)">
    <text x="0" y="0" font-size="10" font-weight="800" fill="#1A8FBE" letter-spacing="1.5">AUTO ⟳ 6s</text>
    <path d="M-4 22 H42 M34 14 L44 22 L34 30" fill="none" stroke="#1A8FBE" stroke-width="2.5" stroke-linecap="round" stroke-linejoin="round"/>
    <text x="20" y="56" font-size="10" font-weight="600" fill="#64748B" text-anchor="middle">+ swipe</text>
    <text x="20" y="72" font-size="10" font-weight="600" fill="#64748B" text-anchor="middle">halaman</text>
  </g>

  <!-- ============================================================ -->
  <!-- PHONE 2 — Parent · Khadijah active · KPI page 2              -->
  <!-- ============================================================ -->
  <g transform="translate(540, 130)" filter="url(#phoneShadow)">
    <rect width="380" height="780" rx="36" fill="white"/>
    <rect width="380" height="780" rx="36" fill="none" stroke="#E2E8F0" stroke-width="1"/>

    <text x="28" y="32" font-size="12" font-weight="700" fill="#0F172A">9:41</text>
    <g transform="translate(320, 22)" fill="#0F172A">
      <rect x="0" y="2" width="14" height="10" rx="1"/>
      <rect x="18" y="0" width="22" height="12" rx="2" fill="none" stroke="#0F172A" stroke-width="1"/>
      <rect x="20" y="2" width="16" height="8" rx="1"/>
    </g>

    <rect x="16" y="56" width="348" height="200" rx="22" fill="url(#heroGrad)"/>
    <g transform="translate(248, 78)" fill="white">
      <circle cx="12" cy="12" r="14" fill="rgba(255,255,255,0.18)"/>
      <path d="M9 8 a3 3 0 0 1 6 0 v3 l1 2 h-8 l1 -2 z M11 16 a1 1 0 0 0 2 0"/>
      <circle cx="17" cy="6" r="3" fill="#EF4444"/>
    </g>
    <g transform="translate(296, 76)">
      <rect width="56" height="28" rx="14" fill="rgba(255,255,255,0.2)"/>
      <circle cx="14" cy="14" r="9" fill="rgba(255,255,255,0.9)"/>
      <text x="28" y="18" font-size="11" font-weight="700" fill="white">YH</text>
    </g>
    <text x="32" y="104" font-size="12" fill="rgba(255,255,255,0.85)" font-weight="500">Selamat pagi 👋</text>
    <text x="32" y="132" font-size="22" font-weight="800" fill="white">Yahya Al Hasymi</text>
    <text x="32" y="154" font-size="11" fill="rgba(255,255,255,0.85)">Wali Murid · SD Al-Kamil Bekasi</text>
    <g transform="translate(32, 174)">
      <rect width="146" height="30" rx="15" fill="rgba(255,255,255,0.2)"/>
      <text x="14" y="14" font-size="9" font-weight="800" fill="rgba(255,255,255,0.85)" letter-spacing="1">SEKOLAH AKTIF</text>
      <text x="14" y="25" font-size="10.5" font-weight="700" fill="white">SD Al-Kamil Bekasi ▾</text>
    </g>

    <!-- CARD 3 — RATA-RATA (Khadijah) -->
    <g transform="translate(20, 220)">
      <g filter="url(#cardShadow)">
        <rect width="166" height="124" rx="16" fill="white"/>
        <rect width="166" height="124" rx="16" fill="none" stroke="#E2E8F0" stroke-width="0.75"/>
      </g>
      <!-- progress: segment 1 done, segment 2 ~70% -->
      <g transform="translate(14, 12)">
        <rect width="44" height="3" rx="1.5" fill="#E2E8F0"/>
        <rect x="48" width="44" height="3" rx="1.5" fill="#E2E8F0"/>
        <rect x="96" width="44" height="3" rx="1.5" fill="#E2E8F0"/>
        <rect width="44" height="3" rx="1.5" fill="#1A8FBE"/>
        <rect x="48" width="31" height="3" rx="1.5" fill="#1A8FBE"/>
      </g>

      <rect x="14" y="26" width="34" height="34" rx="11" fill="#6366F1" fill-opacity="0.12"/>
      <g transform="translate(22, 34)" fill="#6366F1">
        <rect x="0" y="12" width="3" height="6" rx="1"/>
        <rect x="5" y="8" width="3" height="10" rx="1"/>
        <rect x="10" y="4" width="3" height="14" rx="1"/>
        <rect x="15" y="0" width="3" height="18" rx="1"/>
      </g>
      <text x="56" y="40" font-size="10" font-weight="700" fill="#64748B" letter-spacing="0.5">RATA-RATA</text>
      <text x="56" y="54" font-size="9" fill="#94A3B8"><tspan font-weight="700" fill="#1A8FBE">Khadijah</tspan> · 6 mapel</text>
      <text x="14" y="92" font-size="26" font-weight="800" fill="#0F172A">88.<tspan font-size="20">6</tspan></text>
      <g transform="translate(82, 78)">
        <rect width="68" height="20" rx="10" fill="#E0E7FF"/>
        <text x="34" y="14" font-size="10" font-weight="800" fill="#4F46E5" text-anchor="middle">Sem. Ganjil</text>
      </g>
      <text x="14" y="111" font-size="10.5" fill="#64748B">↑ 2.1 dari sem. lalu</text>
    </g>

    <!-- CARD 4 — PENGUMUMAN (Khadijah's class) -->
    <g transform="translate(194, 220)">
      <g filter="url(#cardShadow)">
        <rect width="166" height="124" rx="16" fill="white"/>
        <rect width="166" height="124" rx="16" fill="none" stroke="#E2E8F0" stroke-width="0.75"/>
      </g>
      <g transform="translate(14, 12)">
        <rect width="44" height="3" rx="1.5" fill="#E2E8F0"/>
        <rect x="48" width="44" height="3" rx="1.5" fill="#E2E8F0"/>
        <rect x="96" width="44" height="3" rx="1.5" fill="#E2E8F0"/>
        <rect width="44" height="3" rx="1.5" fill="#1A8FBE"/>
        <rect x="48" width="31" height="3" rx="1.5" fill="#1A8FBE"/>
      </g>

      <rect x="14" y="26" width="34" height="34" rx="11" fill="#21AFE6" fill-opacity="0.14"/>
      <g transform="translate(20, 36)" fill="#1A8FBE">
        <path d="M0 6 L14 0 L14 18 L0 12 Z"/>
        <rect x="14" y="4" width="3" height="10" rx="1"/>
      </g>
      <text x="56" y="40" font-size="10" font-weight="700" fill="#64748B" letter-spacing="0.5">PENGUMUMAN</text>
      <text x="56" y="54" font-size="9" fill="#94A3B8"><tspan font-weight="700" fill="#1A8FBE">Kelas 2B</tspan> · belum dibaca</text>
      <text x="14" y="92" font-size="26" font-weight="800" fill="#0F172A">1</text>
      <g transform="translate(40, 78)">
        <rect width="62" height="20" rx="10" fill="#E0F2FE"/>
        <text x="31" y="14" font-size="10" font-weight="800" fill="#0369A1" text-anchor="middle">+1 hari ini</text>
      </g>
      <text x="14" y="111" font-size="10.5" fill="#64748B">Lomba menggambar 2B</text>
    </g>

    <!-- KPI page dots — page 2 -->
    <g transform="translate(170, 360)">
      <circle cx="3" cy="3" r="3" fill="#CBD5E1"/>
      <rect x="14" y="0" width="20" height="6" rx="3" fill="#1A8FBE"/>
    </g>

    <text x="32" y="402" font-size="13" font-weight="800" fill="#0F172A">Aksi Cepat</text>
    <g transform="translate(20, 416)">
      <rect width="84" height="84" rx="14" fill="white" stroke="#E2E8F0" stroke-width="0.75"/>
      <rect x="92" width="84" height="84" rx="14" fill="white" stroke="#E2E8F0" stroke-width="0.75"/>
      <rect x="184" width="84" height="84" rx="14" fill="white" stroke="#E2E8F0" stroke-width="0.75"/>
      <rect x="276" width="64" height="84" rx="14" fill="#F1F5F9"/>
    </g>
    <text x="32" y="528" font-size="13" font-weight="800" fill="#0F172A">Aktivitas Terbaru</text>
    <rect x="20" y="542" width="340" height="64" rx="14" fill="white" stroke="#E2E8F0" stroke-width="0.75"/>
    <rect x="20" y="612" width="340" height="64" rx="14" fill="white" stroke="#E2E8F0" stroke-width="0.75"/>

    <rect y="720" width="380" height="60" fill="white"/>
    <rect y="720" width="380" height="1" fill="#E2E8F0"/>
    <g transform="translate(0, 730)" font-size="9" font-weight="700" text-anchor="middle">
      <text x="38" y="38" fill="#1A8FBE">Beranda</text>
      <text x="114" y="38" fill="#94A3B8">Akademik</text>
      <text x="190" y="38" fill="#94A3B8">Keuangan</text>
      <text x="266" y="38" fill="#94A3B8">Pengumuman</text>
      <text x="342" y="38" fill="#94A3B8">Profil</text>
    </g>
  </g>

  <!-- ============================================================ -->
  <!-- ANNOTATIONS PANEL                                            -->
  <!-- ============================================================ -->
  <g transform="translate(960, 130)">
    <rect width="420" height="780" rx="20" fill="white" stroke="#E2E8F0" stroke-width="1"/>

    <text x="24" y="40" font-size="16" font-weight="800" fill="#0F172A">Anatomy &amp; behaviour</text>
    <text x="24" y="62" font-size="11" fill="#64748B">Setiap kartu KPI berisi mini cycle slider sendiri. Semua kartu sinkron pada satu &quot;active slice&quot;.</text>

    <!-- card anatomy diagram (large mock card) -->
    <g transform="translate(24, 80)">
      <rect width="372" height="180" rx="18" fill="white" stroke="#E2E8F0" stroke-width="0.75" filter="url(#cardShadow)"/>

      <!-- segmented progress bar inside -->
      <g transform="translate(20, 16)">
        <rect width="100" height="3" rx="1.5" fill="#E2E8F0"/>
        <rect x="108" width="100" height="3" rx="1.5" fill="#E2E8F0"/>
        <rect x="216" width="100" height="3" rx="1.5" fill="#E2E8F0"/>
        <rect width="40" height="3" rx="1.5" fill="#1A8FBE"/>
      </g>
      <!-- icon -->
      <rect x="20" y="36" width="40" height="40" rx="12" fill="#10B981" fill-opacity="0.12"/>
      <g transform="translate(30, 46)" fill="#10B981">
        <circle cx="4" cy="4" r="3"/><circle cx="16" cy="4" r="3"/>
        <rect x="2" y="11" width="6" height="11" rx="2"/>
        <rect x="13" y="11" width="7" height="11" rx="2"/>
      </g>
      <text x="72" y="52" font-size="11" font-weight="700" fill="#64748B" letter-spacing="0.5">KEHADIRAN</text>
      <text x="72" y="68" font-size="10" fill="#94A3B8"><tspan font-weight="700" fill="#1A8FBE">Salman</tspan> · 30 hari terakhir</text>

      <text x="20" y="118" font-size="32" font-weight="800" fill="#0F172A">94<tspan font-size="20" fill="#64748B">%</tspan></text>
      <g transform="translate(112, 100)">
        <rect width="84" height="22" rx="11" fill="#DCFCE7"/>
        <text x="42" y="15" font-size="11" font-weight="800" fill="#059669" text-anchor="middle">↑ 3% bln ini</text>
      </g>
      <text x="20" y="148" font-size="11.5" fill="#64748B">2 sakit · 1 izin · 0 alpa</text>

      <!-- anatomy callouts -->
      <g font-size="10" font-weight="700" fill="#1A8FBE">
        <line x1="100" y1="17" x2="240" y2="-12" stroke="#1A8FBE" stroke-width="0.75"/>
        <text x="244" y="-10">Stories progress strip · 3px tinggi · gap 4px</text>

        <line x1="160" y1="60" x2="270" y2="38" stroke="#1A8FBE" stroke-width="0.75"/>
        <text x="274" y="40">Active slice label</text>

        <line x1="280" y1="115" x2="350" y2="170" stroke="#1A8FBE" stroke-width="0.75"/>
        <text x="160" y="186">↑ Trend chip · ↓ Caption</text>
      </g>
    </g>

    <rect x="24" y="282" width="372" height="1" fill="#E2E8F0"/>

    <text x="24" y="312" font-size="13" font-weight="800" fill="#0F172A">Slice strategy per role</text>
    <g transform="translate(24, 332)" font-size="11" fill="#475569">
      <!-- Parent -->
      <rect width="6" height="36" rx="3" fill="#21AFE6"/>
      <text x="20" y="14" font-weight="800" fill="#0F172A">Parent (multi-anak)</text>
      <text x="20" y="32" fill="#475569">slices = anak · cycle 6s · single anak → no strip</text>

      <!-- Teacher -->
      <g transform="translate(0, 50)">
        <rect width="6" height="36" rx="3" fill="#10B981"/>
        <text x="20" y="14" font-weight="800" fill="#0F172A">Guru biasa</text>
        <text x="20" y="32" fill="#475569">slices = "Semua kelas" + per-kelas yang diajar</text>
      </g>

      <!-- Wali Kelas -->
      <g transform="translate(0, 100)">
        <rect width="6" height="36" rx="3" fill="#6366F1"/>
        <text x="20" y="14" font-weight="800" fill="#0F172A">Wali Kelas</text>
        <text x="20" y="32" fill="#475569">slice 1 = homeroom · 2..N = kelas yang diajar</text>
      </g>

      <!-- Admin -->
      <g transform="translate(0, 150)">
        <rect width="6" height="36" rx="3" fill="#EF4444"/>
        <text x="20" y="14" font-weight="800" fill="#0F172A">Admin</text>
        <text x="20" y="32" fill="#475569">slice = "Sekolah" tunggal · no strip · drill-down di screen lain</text>
      </g>
    </g>

    <rect x="24" y="540" width="372" height="1" fill="#E2E8F0"/>

    <text x="24" y="570" font-size="13" font-weight="800" fill="#0F172A">Komponen shared</text>
    <g transform="translate(24, 588)" font-size="11" fill="#475569">
      <text y="0"><tspan font-weight="800" fill="#0F172A">BrandDashboardHeader</tspan> (semua role)</text>
      <text y="14">  greeting · sub-role · school-pill · bell · account</text>
      <text y="34"><tspan font-weight="800" fill="#0F172A">BrandKpiCarousel</tspan> (semua role)</text>
      <text y="48">  cards: List&lt;HeroStatsCard&gt;, perPage = 2</text>
      <text y="62">  slices &amp; activeSliceProvider · auto-cycle Duration</text>
      <text y="82"><tspan font-weight="800" fill="#0F172A">HeroStatsCard</tspan> · sudah ada</text>
      <text y="96">  + new prop: progress (0..1, segments) untuk top strip</text>
      <text y="110">  + new prop: sliceLabel untuk subtitle</text>
      <text y="130"><tspan font-weight="800" fill="#0F172A">activeSliceProvider</tspan> · Riverpod</text>
      <text y="144">  StateNotifier yang me-rotate index tiap 6s, pause 30s saat tap</text>
    </g>
  </g>

  <!-- ============================================================ -->
  <!-- ROLE × SLICE TABLE (bottom)                                  -->
  <!-- ============================================================ -->
  <g transform="translate(80, 950)">
    <rect width="1280" height="260" rx="20" fill="white" stroke="#E2E8F0" stroke-width="1"/>

    <text x="24" y="36" font-size="16" font-weight="800" fill="#0F172A">Per-role slice examples</text>
    <text x="24" y="58" font-size="11" fill="#64748B">Komponen kartu sama; data slice berbeda. Backend men-emit array slices keyed by role.</text>

    <!-- header -->
    <g transform="translate(24, 86)" font-size="11" font-weight="800" fill="#0F172A">
      <text x="0" y="0">Role</text>
      <text x="160" y="0">Slice 1</text>
      <text x="380" y="0">Slice 2</text>
      <text x="600" y="0">Slice 3</text>
      <text x="820" y="0">Slice N</text>
      <text x="1020" y="0">Cycle?</text>
    </g>
    <line x1="24" y1="98" x2="1256" y2="98" stroke="#E2E8F0"/>

    <g transform="translate(24, 124)" font-size="11" fill="#475569">
      <!-- Parent -->
      <text x="0" y="0" font-weight="800" fill="#21AFE6">Wali Murid</text>
      <text x="0" y="16" fill="#94A3B8">3 anak terdaftar</text>
      <text x="160" y="0" fill="#0F172A">Salman · Kelas 5A</text>
      <text x="380" y="0" fill="#0F172A">Khadijah · Kelas 2B</text>
      <text x="600" y="0" fill="#0F172A">Maryam · PAUD A</text>
      <text x="820" y="0" fill="#94A3B8">—</text>
      <text x="1020" y="0" font-weight="800" fill="#10B981">YA · 6s</text>

      <!-- Guru -->
      <g transform="translate(0, 56)">
        <text x="0" y="0" font-weight="800" fill="#10B981">Guru biasa</text>
        <text x="0" y="16" fill="#94A3B8">4 kelas diajar</text>
        <text x="160" y="0" fill="#0F172A">Semua kelas (kumulatif)</text>
        <text x="380" y="0" fill="#0F172A">Kelas 4A · Matematika</text>
        <text x="600" y="0" fill="#0F172A">Kelas 4B · Matematika</text>
        <text x="820" y="0" fill="#0F172A">Kelas 5A · IPA</text>
        <text x="1020" y="0" font-weight="800" fill="#10B981">YA · 6s</text>
      </g>

      <!-- Wali Kelas -->
      <g transform="translate(0, 88)">
        <text x="0" y="0" font-weight="800" fill="#6366F1">Wali Kelas</text>
        <text x="0" y="16" fill="#94A3B8">homeroom 5A + 3 mengajar</text>
        <text x="160" y="0" fill="#0F172A">Wali Kelas 5A (homeroom)</text>
        <text x="380" y="0" fill="#0F172A">Kelas 5A · Bahasa Indonesia</text>
        <text x="600" y="0" fill="#0F172A">Kelas 6A · Bahasa Indonesia</text>
        <text x="820" y="0" fill="#0F172A">Kelas 6B · Bahasa Indonesia</text>
        <text x="1020" y="0" font-weight="800" fill="#10B981">YA · 6s</text>
      </g>

      <!-- Admin -->
      <g transform="translate(0, 120)">
        <text x="0" y="0" font-weight="800" fill="#EF4444">Admin</text>
        <text x="0" y="16" fill="#94A3B8">school-wide</text>
        <text x="160" y="0" fill="#0F172A">Sekolah (kumulatif)</text>
        <text x="380" y="0" fill="#94A3B8">—</text>
        <text x="600" y="0" fill="#94A3B8">—</text>
        <text x="820" y="0" fill="#94A3B8">—</text>
        <text x="1020" y="0" font-weight="800" fill="#94A3B8">TIDAK</text>
      </g>
    </g>

    <!-- legend at bottom -->
    <text x="24" y="244" font-size="10.5" fill="#64748B"><tspan font-weight="700" fill="#0F172A">Edge cases:</tspan>  1 slice → strip + cycle dimatikan, kartu tampil seperti static stats card · tap kartu pause cycle 30s · scroll halaman pause cycle</text>
  </g>

  <!-- bottom phone labels -->
  <g transform="translate(80, 930)" font-size="12" font-weight="700">
    <text x="190" y="0" fill="#1A8FBE" text-anchor="middle">t = 2s · slice: Salman · KPI Hal 1</text>
  </g>
  <g transform="translate(540, 930)" font-size="12" font-weight="700">
    <text x="190" y="0" fill="#1A8FBE" text-anchor="middle">t = 10s · slice: Khadijah · KPI Hal 2</text>
  </g>
</svg>
