<svg viewBox="0 0 400 960" xmlns="http://www.w3.org/2000/svg" role="img" style="display:block;margin:0 auto;max-width:400px;width:100%;background:#F8FAFC;border-radius:24px;border:0.5px solid rgba(0,0,0,0.08)">
  <title>Parent Kehadiran v2 - multi-child row, single filter, no refresh icon</title>
  <desc>Phase-3 mockup with horizontal child chip row in the hero, single filter icon (opens bottom sheet), pull-to-refresh, and "Lihat kalender penuh" CTA. Brand colors from ColorUtils.brandGradient('wali').</desc>
  <defs>
    <linearGradient id="azureGradV2" x1="0" y1="0" x2="1" y2="1">
      <stop offset="0%" stop-color="#21AFE6"/>
      <stop offset="100%" stop-color="#1A8FBE"/>
    </linearGradient>
  </defs>
  <rect x="0" y="0" width="400" height="288" fill="url(#azureGradV2)"/>
  <text x="24" y="28" font-family="system-ui,sans-serif" font-size="11" fill="#FFFFFF" opacity="0.7" font-weight="500">08:14</text>
  <g transform="translate(352,22)" fill="#FFFFFF" opacity="0.8">
    <rect x="0" y="0" width="14" height="9" rx="2"/>
    <rect x="16" y="2" width="10" height="5" rx="1"/>
  </g>
  <rect x="20" y="58" width="36" height="36" rx="10" fill="#FFFFFF" fill-opacity="0.18"/>
  <path d="M37 70 l-6 6 l6 6" fill="none" stroke="#FFFFFF" stroke-width="1.8" stroke-linecap="round" stroke-linejoin="round"/>
  <text x="68" y="76" font-family="system-ui,sans-serif" font-size="11" fill="#FFFFFF" opacity="0.78" font-weight="500">Akademik · Anak</text>
  <text x="68" y="96" font-family="system-ui,sans-serif" font-size="20" fill="#FFFFFF" font-weight="700" letter-spacing="0.1">Kehadiran</text>
  <rect x="348" y="60" width="36" height="36" rx="10" fill="#FFFFFF" fill-opacity="0.18"/>
  <g transform="translate(358,70)" fill="none" stroke="#FFFFFF" stroke-width="1.6" stroke-linecap="round" stroke-linejoin="round">
    <path d="M2 4h12M4 9h8M6 14h4"/>
  </g>
  <circle cx="370" cy="64" r="5" fill="#EF4444" stroke="#1A8FBE" stroke-width="1.5"/>
  <text x="370" y="68" font-family="system-ui,sans-serif" font-size="8" fill="#FFFFFF" font-weight="700" text-anchor="middle">2</text>
  <circle cx="31" cy="120" r="3" fill="#4ADE80"/>
  <text x="40" y="123" font-family="system-ui,sans-serif" font-size="10.5" fill="#FFFFFF" opacity="0.78" font-weight="500">Terhubung realtime · 08:14</text>
  <text x="20" y="156" font-family="system-ui,sans-serif" font-size="10.5" fill="#FFFFFF" opacity="0.7" font-weight="600" letter-spacing="0.6">PILIH ANAK</text>
  <rect x="20" y="166" width="120" height="46" rx="14" fill="#FFFFFF"/>
  <circle cx="44" cy="189" r="14" fill="#1A8FBE"/>
  <text x="44" y="194" font-family="system-ui,sans-serif" font-size="11" fill="#FFFFFF" font-weight="700" text-anchor="middle">RA</text>
  <text x="64" y="186" font-family="system-ui,sans-serif" font-size="12" fill="#0F172A" font-weight="700">Rania</text>
  <text x="64" y="200" font-family="system-ui,sans-serif" font-size="10" fill="#64748B" font-weight="500">Kelas 8B</text>
  <rect x="148" y="166" width="120" height="46" rx="14" fill="#FFFFFF" fill-opacity="0.16" stroke="#FFFFFF" stroke-opacity="0.28"/>
  <circle cx="172" cy="189" r="14" fill="#FFFFFF" fill-opacity="0.28"/>
  <text x="172" y="194" font-family="system-ui,sans-serif" font-size="11" fill="#FFFFFF" font-weight="700" text-anchor="middle">FA</text>
  <text x="192" y="186" font-family="system-ui,sans-serif" font-size="12" fill="#FFFFFF" font-weight="700">Faiz</text>
  <text x="192" y="200" font-family="system-ui,sans-serif" font-size="10" fill="#FFFFFF" opacity="0.78" font-weight="500">Kelas 5A</text>
  <rect x="276" y="166" width="120" height="46" rx="14" fill="#FFFFFF" fill-opacity="0.16" stroke="#FFFFFF" stroke-opacity="0.28"/>
  <circle cx="300" cy="189" r="14" fill="#FFFFFF" fill-opacity="0.28"/>
  <text x="300" y="194" font-family="system-ui,sans-serif" font-size="11" fill="#FFFFFF" font-weight="700" text-anchor="middle">NU</text>
  <text x="320" y="186" font-family="system-ui,sans-serif" font-size="12" fill="#FFFFFF" font-weight="700">Nuha</text>
  <text x="320" y="200" font-family="system-ui,sans-serif" font-size="10" fill="#FFFFFF" opacity="0.78" font-weight="500">Kelas 2C</text>
  <rect x="20" y="232" width="172" height="36" rx="12" fill="#FFFFFF" fill-opacity="0.14" stroke="#FFFFFF" stroke-opacity="0.18"/>
  <g transform="translate(34,243)" fill="none" stroke="#FFFFFF" stroke-width="1.5" stroke-linecap="round" stroke-linejoin="round">
    <rect x="0" y="2" width="14" height="12" rx="2"/>
    <path d="M0 6h14M4 0v3M10 0v3"/>
  </g>
  <text x="58" y="256" font-family="system-ui,sans-serif" font-size="12.5" fill="#FFFFFF" font-weight="600">Oktober 2025 · Ganjil</text>
  <rect x="200" y="232" width="80" height="36" rx="12" fill="#FFFFFF" fill-opacity="0.18"/>
  <text x="240" y="256" font-family="system-ui,sans-serif" font-size="11.5" fill="#FFFFFF" font-weight="600" text-anchor="middle">Hadir</text>
  <rect x="288" y="232" width="80" height="36" rx="12" fill="#FFFFFF" fill-opacity="0.14" stroke="#FFFFFF" stroke-opacity="0.28" stroke-dasharray="3 3"/>
  <text x="300" y="256" font-family="system-ui,sans-serif" font-size="14" fill="#FFFFFF" font-weight="800">+</text>
  <text x="328" y="256" font-family="system-ui,sans-serif" font-size="11" fill="#FFFFFF" opacity="0.78" font-weight="600" text-anchor="middle">Status</text>
  <rect x="16" y="276" width="368" height="180" rx="20" fill="#FFFFFF" stroke="#E2E8F0" stroke-width="0.75"/>
  <circle cx="92" cy="366" r="52" fill="none" stroke="#E2E8F0" stroke-width="10"/>
  <circle cx="92" cy="366" r="52" fill="none" stroke="#1A8FBE" stroke-width="10" stroke-linecap="round" stroke-dasharray="295 327" stroke-dashoffset="73" transform="rotate(-90 92 366)"/>
  <text x="92" y="364" font-family="system-ui,sans-serif" font-size="22" fill="#0F172A" font-weight="800" text-anchor="middle">90,3%</text>
  <text x="92" y="382" font-family="system-ui,sans-serif" font-size="10" fill="#64748B" font-weight="500" text-anchor="middle">Kehadiran</text>
  <text x="170" y="308" font-family="system-ui,sans-serif" font-size="11" fill="#64748B" font-weight="500">Bulan ini · 22 hari sekolah</text>
  <circle cx="178" cy="328" r="5" fill="#16A34A"/>
  <text x="190" y="332" font-family="system-ui,sans-serif" font-size="12" fill="#0F172A" font-weight="600">Hadir</text>
  <text x="358" y="332" font-family="system-ui,sans-serif" font-size="12" fill="#0F172A" font-weight="700" text-anchor="end">19 hari</text>
  <circle cx="178" cy="352" r="5" fill="#0891B2"/>
  <text x="190" y="356" font-family="system-ui,sans-serif" font-size="12" fill="#0F172A" font-weight="600">Izin</text>
  <text x="358" y="356" font-family="system-ui,sans-serif" font-size="12" fill="#0F172A" font-weight="700" text-anchor="end">2 hari</text>
  <circle cx="178" cy="376" r="5" fill="#F59E0B"/>
  <text x="190" y="380" font-family="system-ui,sans-serif" font-size="12" fill="#0F172A" font-weight="600">Sakit</text>
  <text x="358" y="380" font-family="system-ui,sans-serif" font-size="12" fill="#0F172A" font-weight="700" text-anchor="end">1 hari</text>
  <circle cx="178" cy="400" r="5" fill="#EF4444"/>
  <text x="190" y="404" font-family="system-ui,sans-serif" font-size="12" fill="#0F172A" font-weight="600">Alpha</text>
  <text x="358" y="404" font-family="system-ui,sans-serif" font-size="12" fill="#0F172A" font-weight="700" text-anchor="end">0 hari</text>
  <line x1="32" y1="426" x2="368" y2="426" stroke="#F1F5F9" stroke-width="1"/>
  <text x="32" y="446" font-family="system-ui,sans-serif" font-size="11" fill="#64748B" font-weight="500">vs bulan lalu</text>
  <rect x="296" y="434" width="68" height="18" rx="9" fill="#DCFCE7"/>
  <path d="M306 446 l4 -4 l3 2 l5 -5" fill="none" stroke="#15803D" stroke-width="1.4" stroke-linecap="round" stroke-linejoin="round"/>
  <text x="324" y="447" font-family="system-ui,sans-serif" font-size="10.5" fill="#15803D" font-weight="700">+1,4%</text>
  <text x="24" y="488" font-family="system-ui,sans-serif" font-size="14" fill="#0F172A" font-weight="700">Riwayat harian</text>
  <text x="376" y="488" font-family="system-ui,sans-serif" font-size="11.5" fill="#64748B" font-weight="500" text-anchor="end">Tarik untuk segarkan ↓</text>
  <rect x="16" y="500" width="368" height="60" rx="14" fill="#FFFFFF" stroke="#E2E8F0" stroke-width="0.75"/>
  <rect x="28" y="512" width="44" height="36" rx="10" fill="#F0F9FF"/>
  <text x="50" y="528" font-family="system-ui,sans-serif" font-size="11" fill="#0891B2" font-weight="700" text-anchor="middle">SEN</text>
  <text x="50" y="542" font-family="system-ui,sans-serif" font-size="13" fill="#0F172A" font-weight="800" text-anchor="middle">28</text>
  <text x="84" y="524" font-family="system-ui,sans-serif" font-size="13" fill="#0F172A" font-weight="600">Hadir</text>
  <text x="84" y="542" font-family="system-ui,sans-serif" font-size="11" fill="#64748B" font-weight="500">Datang 06:54 · Pulang 14:30</text>
  <rect x="306" y="520" width="60" height="22" rx="11" fill="#DCFCE7"/>
  <circle cx="316" cy="531" r="3" fill="#16A34A"/>
  <text x="354" y="535" font-family="system-ui,sans-serif" font-size="11" fill="#15803D" font-weight="700" text-anchor="end">Hadir</text>
  <rect x="16" y="566" width="368" height="60" rx="14" fill="#FFFFFF" stroke="#E2E8F0" stroke-width="0.75"/>
  <rect x="28" y="578" width="44" height="36" rx="10" fill="#FEF3C7"/>
  <text x="50" y="594" font-family="system-ui,sans-serif" font-size="11" fill="#B45309" font-weight="700" text-anchor="middle">SEL</text>
  <text x="50" y="608" font-family="system-ui,sans-serif" font-size="13" fill="#0F172A" font-weight="800" text-anchor="middle">29</text>
  <text x="84" y="590" font-family="system-ui,sans-serif" font-size="13" fill="#0F172A" font-weight="600">Hadir, terlambat 12 mnt</text>
  <text x="84" y="608" font-family="system-ui,sans-serif" font-size="11" fill="#64748B" font-weight="500">Datang 07:12 · Catatan: macet</text>
  <rect x="296" y="586" width="70" height="22" rx="11" fill="#FEF3C7"/>
  <circle cx="306" cy="597" r="3" fill="#F59E0B"/>
  <text x="354" y="601" font-family="system-ui,sans-serif" font-size="11" fill="#B45309" font-weight="700" text-anchor="end">Terlambat</text>
  <rect x="16" y="632" width="368" height="60" rx="14" fill="#FFFFFF" stroke="#E2E8F0" stroke-width="0.75"/>
  <rect x="28" y="644" width="44" height="36" rx="10" fill="#E0F2FE"/>
  <text x="50" y="660" font-family="system-ui,sans-serif" font-size="11" fill="#0891B2" font-weight="700" text-anchor="middle">RAB</text>
  <text x="50" y="674" font-family="system-ui,sans-serif" font-size="13" fill="#0F172A" font-weight="800" text-anchor="middle">30</text>
  <text x="84" y="656" font-family="system-ui,sans-serif" font-size="13" fill="#0F172A" font-weight="600">Izin keluarga</text>
  <text x="84" y="674" font-family="system-ui,sans-serif" font-size="11" fill="#64748B" font-weight="500">Surat dikirim · Disetujui wali kelas</text>
  <rect x="316" y="652" width="50" height="22" rx="11" fill="#E0F2FE"/>
  <circle cx="326" cy="663" r="3" fill="#0891B2"/>
  <text x="354" y="667" font-family="system-ui,sans-serif" font-size="11" fill="#0E7490" font-weight="700" text-anchor="end">Izin</text>
  <rect x="16" y="698" width="368" height="60" rx="14" fill="#FFFFFF" stroke="#E2E8F0" stroke-width="0.75"/>
  <rect x="28" y="710" width="44" height="36" rx="10" fill="#FEF3C7"/>
  <text x="50" y="726" font-family="system-ui,sans-serif" font-size="11" fill="#B45309" font-weight="700" text-anchor="middle">KAM</text>
  <text x="50" y="740" font-family="system-ui,sans-serif" font-size="13" fill="#0F172A" font-weight="800" text-anchor="middle">31</text>
  <text x="84" y="722" font-family="system-ui,sans-serif" font-size="13" fill="#0F172A" font-weight="600">Sakit (demam)</text>
  <text x="84" y="740" font-family="system-ui,sans-serif" font-size="11" fill="#64748B" font-weight="500">Surat dokter terlampir</text>
  <rect x="312" y="718" width="54" height="22" rx="11" fill="#FEF3C7"/>
  <circle cx="322" cy="729" r="3" fill="#F59E0B"/>
  <text x="354" y="733" font-family="system-ui,sans-serif" font-size="11" fill="#B45309" font-weight="700" text-anchor="end">Sakit</text>
  <rect x="16" y="770" width="368" height="48" rx="14" fill="#F0F9FF" stroke="#BAE6FD" stroke-width="1"/>
  <g transform="translate(118,786)" fill="none" stroke="#1A8FBE" stroke-width="1.7" stroke-linecap="round" stroke-linejoin="round">
    <rect x="0" y="2" width="16" height="14" rx="2"/>
    <path d="M0 7h16M4 0v4M12 0v4"/>
  </g>
  <text x="200" y="799" font-family="system-ui,sans-serif" font-size="13" fill="#1A8FBE" font-weight="700" text-anchor="middle">Lihat kalender penuh →</text>
  <rect x="0" y="876" width="400" height="84" fill="#FFFFFF"/>
  <line x1="0" y1="876" x2="400" y2="876" stroke="#E2E8F0" stroke-width="1"/>
  <g transform="translate(40,894)" fill="none" stroke="#94A3B8" stroke-width="1.7" stroke-linecap="round" stroke-linejoin="round">
    <path d="M2 12 L12 2 L22 12 v10 a2 2 0 0 1 -2 2 H4 a2 2 0 0 1 -2 -2 z"/>
  </g>
  <text x="50" y="934" font-family="system-ui,sans-serif" font-size="10" fill="#94A3B8" font-weight="500" text-anchor="middle">Beranda</text>
  <g transform="translate(120,894)" fill="none" stroke="#94A3B8" stroke-width="1.7" stroke-linecap="round" stroke-linejoin="round">
    <path d="M0 6 L12 0 L24 6 L12 12 z"/>
    <path d="M5 9 v6 c0 2 3 3 7 3 s7 -1 7 -3 v-6"/>
  </g>
  <text x="132" y="934" font-family="system-ui,sans-serif" font-size="10" fill="#94A3B8" font-weight="500" text-anchor="middle">Akademik</text>
  <g transform="translate(200,894)" fill="none" stroke="#1A8FBE" stroke-width="1.9" stroke-linecap="round" stroke-linejoin="round">
    <rect x="0.5" y="2" width="22" height="20" rx="3"/>
    <path d="M0 8h23M6 0v4M17 0v4"/>
    <path d="M7 14l3 3l6 -7"/>
  </g>
  <text x="212" y="934" font-family="system-ui,sans-serif" font-size="10" fill="#1A8FBE" font-weight="700" text-anchor="middle">Kehadiran</text>
  <g transform="translate(280,894)" fill="none" stroke="#94A3B8" stroke-width="1.7" stroke-linecap="round" stroke-linejoin="round">
    <rect x="1" y="3" width="22" height="18" rx="3"/>
    <path d="M1 9h22"/>
    <circle cx="18" cy="15" r="2"/>
  </g>
  <text x="292" y="934" font-family="system-ui,sans-serif" font-size="10" fill="#94A3B8" font-weight="500" text-anchor="middle">Keuangan</text>
  <g transform="translate(360,898)" fill="none" stroke="#94A3B8" stroke-width="1.7" stroke-linecap="round" stroke-linejoin="round">
    <circle cx="11" cy="7" r="4"/>
    <path d="M2 20c1.5-4 5.5-6 9-6s7.5 2 9 6"/>
  </g>
  <text x="371" y="934" font-family="system-ui,sans-serif" font-size="10" fill="#94A3B8" font-weight="500" text-anchor="middle">Profil</text>
</svg>
