<svg viewBox="0 0 400 960" xmlns="http://www.w3.org/2000/svg" role="img" style="display:block;margin:0 auto;max-width:400px;width:100%;background:#F8FAFC;border-radius:24px;border:0.5px solid rgba(0,0,0,0.08)">
  <title>Parent Aktivitas Kelas (Class Activity feed) - Phase 3</title>
  <desc>Class-activity feed for the selected child. Azure gradient hero with child selector chips, filter chip, and an activity card list — each card has teacher avatar, title, date, photo grid (when present), description, and engagement counters.</desc>
  <defs>
    <linearGradient id="azA" x1="0" y1="0" x2="1" y2="1">
      <stop offset="0%" stop-color="#21AFE6"/>
      <stop offset="100%" stop-color="#1A8FBE"/>
    </linearGradient>
  </defs>
  <rect x="0" y="0" width="400" height="266" fill="url(#azA)"/>
  <text x="24" y="28" font-family="system-ui,sans-serif" font-size="11" fill="#FFFFFF" opacity="0.7" font-weight="500">08:14</text>
  <g transform="translate(352,22)" fill="#FFFFFF" opacity="0.8">
    <rect x="0" y="0" width="14" height="9" rx="2"/><rect x="16" y="2" width="10" height="5" rx="1"/>
  </g>
  <rect x="20" y="58" width="36" height="36" rx="10" fill="#FFFFFF" fill-opacity="0.18"/>
  <path d="M37 70 l-6 6 l6 6" fill="none" stroke="#FFFFFF" stroke-width="1.8" stroke-linecap="round" stroke-linejoin="round"/>
  <text x="68" y="76" font-family="system-ui,sans-serif" font-size="11" fill="#FFFFFF" opacity="0.78" font-weight="500">Akademik · Anak</text>
  <text x="68" y="96" font-family="system-ui,sans-serif" font-size="20" fill="#FFFFFF" font-weight="700">Aktivitas Kelas</text>
  <rect x="348" y="60" width="36" height="36" rx="10" fill="#FFFFFF" fill-opacity="0.18"/>
  <g transform="translate(358,70)" fill="none" stroke="#FFFFFF" stroke-width="1.6" stroke-linecap="round" stroke-linejoin="round">
    <path d="M2 4h12M4 9h8M6 14h4"/>
  </g>
  <circle cx="370" cy="64" r="5" fill="#EF4444" stroke="#1A8FBE" stroke-width="1.5"/>
  <text x="370" y="68" font-family="system-ui,sans-serif" font-size="8" fill="#FFFFFF" font-weight="700" text-anchor="middle">3</text>
  <circle cx="31" cy="120" r="3" fill="#4ADE80"/>
  <text x="40" y="123" font-family="system-ui,sans-serif" font-size="10.5" fill="#FFFFFF" opacity="0.78" font-weight="500">Terhubung realtime · 08:14</text>
  <text x="20" y="156" font-family="system-ui,sans-serif" font-size="10.5" fill="#FFFFFF" opacity="0.7" font-weight="600" letter-spacing="0.6">PILIH ANAK</text>
  <rect x="20" y="166" width="120" height="46" rx="14" fill="#FFFFFF"/>
  <circle cx="44" cy="189" r="14" fill="#1A8FBE"/>
  <text x="44" y="194" font-family="system-ui,sans-serif" font-size="11" fill="#FFFFFF" font-weight="700" text-anchor="middle">RA</text>
  <text x="64" y="186" font-family="system-ui,sans-serif" font-size="12" fill="#0F172A" font-weight="700">Rania</text>
  <text x="64" y="200" font-family="system-ui,sans-serif" font-size="10" fill="#64748B" font-weight="500">Kelas 8B</text>
  <rect x="148" y="166" width="120" height="46" rx="14" fill="#FFFFFF" fill-opacity="0.16" stroke="#FFFFFF" stroke-opacity="0.28"/>
  <circle cx="172" cy="189" r="14" fill="#FFFFFF" fill-opacity="0.28"/>
  <text x="172" y="194" font-family="system-ui,sans-serif" font-size="11" fill="#FFFFFF" font-weight="700" text-anchor="middle">FA</text>
  <text x="192" y="186" font-family="system-ui,sans-serif" font-size="12" fill="#FFFFFF" font-weight="700">Faiz</text>
  <text x="192" y="200" font-family="system-ui,sans-serif" font-size="10" fill="#FFFFFF" opacity="0.78" font-weight="500">Kelas 5A</text>
  <rect x="276" y="166" width="120" height="46" rx="14" fill="#FFFFFF" fill-opacity="0.16" stroke="#FFFFFF" stroke-opacity="0.28"/>
  <circle cx="300" cy="189" r="14" fill="#FFFFFF" fill-opacity="0.28"/>
  <text x="300" y="194" font-family="system-ui,sans-serif" font-size="11" fill="#FFFFFF" font-weight="700" text-anchor="middle">NU</text>
  <text x="320" y="186" font-family="system-ui,sans-serif" font-size="12" fill="#FFFFFF" font-weight="700">Nuha</text>
  <text x="320" y="200" font-family="system-ui,sans-serif" font-size="10" fill="#FFFFFF" opacity="0.78" font-weight="500">Kelas 2C</text>
  <rect x="20" y="232" width="116" height="34" rx="12" fill="#FFFFFF" fill-opacity="0.18"/>
  <text x="78" y="254" font-family="system-ui,sans-serif" font-size="12" fill="#FFFFFF" font-weight="700" text-anchor="middle">Bulan ini</text>
  <rect x="144" y="232" width="100" height="34" rx="12" fill="#FFFFFF" fill-opacity="0.14" stroke="#FFFFFF" stroke-opacity="0.28" stroke-dasharray="3 3"/>
  <text x="194" y="254" font-family="system-ui,sans-serif" font-size="11" fill="#FFFFFF" opacity="0.78" font-weight="600" text-anchor="middle">+ Jenis</text>
  <text x="376" y="254" font-family="system-ui,sans-serif" font-size="11" fill="#FFFFFF" opacity="0.78" font-weight="500" text-anchor="end">8 aktivitas</text>

  <text x="24" y="294" font-family="system-ui,sans-serif" font-size="11" fill="#64748B" font-weight="600" letter-spacing="0.4">28 OKTOBER 2025</text>

  <rect x="16" y="306" width="368" height="248" rx="16" fill="#FFFFFF" stroke="#E2E8F0" stroke-width="0.75"/>
  <circle cx="42" cy="334" r="18" fill="#DBEAFE"/>
  <text x="42" y="339" font-family="system-ui,sans-serif" font-size="13" fill="#1D4ED8" font-weight="700" text-anchor="middle">BS</text>
  <text x="68" y="328" font-family="system-ui,sans-serif" font-size="11" fill="#64748B" font-weight="500">Bu Sari · Wali kelas</text>
  <text x="368" y="328" font-family="system-ui,sans-serif" font-size="11" fill="#94A3B8" font-weight="500" text-anchor="end">Hari ini · 10:24</text>
  <text x="68" y="348" font-family="system-ui,sans-serif" font-size="14" fill="#0F172A" font-weight="700">Praktikum IPA — Sistem Pernapasan</text>
  <rect x="68" y="358" width="62" height="20" rx="10" fill="#DCFCE7"/>
  <text x="99" y="372" font-family="system-ui,sans-serif" font-size="10" fill="#15803D" font-weight="700" text-anchor="middle">Praktikum</text>
  <text x="68" y="396" font-family="system-ui,sans-serif" font-size="12" fill="#475569" font-weight="500">Anak-anak melakukan eksperimen kapasitas paru-paru dengan balon dan</text>
  <text x="68" y="414" font-family="system-ui,sans-serif" font-size="12" fill="#475569" font-weight="500">sedotan. Rania jadi presenter kelompok 3, mantap! 🎉</text>
  <rect x="68" y="426" width="98" height="74" rx="10" fill="#E2E8F0"/>
  <g transform="translate(108,452)" fill="none" stroke="#94A3B8" stroke-width="1.6" stroke-linecap="round" stroke-linejoin="round">
    <rect x="0" y="0" width="20" height="16" rx="2"/><circle cx="6" cy="6" r="2"/><path d="M0 14l6 -6l6 6l4 -4l4 4"/>
  </g>
  <rect x="172" y="426" width="98" height="74" rx="10" fill="#E2E8F0"/>
  <g transform="translate(212,452)" fill="none" stroke="#94A3B8" stroke-width="1.6" stroke-linecap="round" stroke-linejoin="round">
    <rect x="0" y="0" width="20" height="16" rx="2"/><circle cx="6" cy="6" r="2"/><path d="M0 14l6 -6l6 6l4 -4l4 4"/>
  </g>
  <rect x="276" y="426" width="98" height="74" rx="10" fill="#0F172A"/>
  <text x="325" y="468" font-family="system-ui,sans-serif" font-size="22" fill="#FFFFFF" font-weight="800" text-anchor="middle">+3</text>
  <line x1="68" y1="514" x2="368" y2="514" stroke="#F1F5F9" stroke-width="1"/>
  <g transform="translate(68,524)" fill="none" stroke="#64748B" stroke-width="1.6" stroke-linecap="round" stroke-linejoin="round">
    <path d="M2 11V6a4 4 0 0 1 4 -4h4a4 4 0 0 1 4 4v5l-3 -1l-3 3l-3 -3l-3 1Z"/>
  </g>
  <text x="92" y="536" font-family="system-ui,sans-serif" font-size="11" fill="#475569" font-weight="600">12</text>
  <g transform="translate(120,524)" fill="none" stroke="#64748B" stroke-width="1.6" stroke-linecap="round" stroke-linejoin="round">
    <path d="M0 4a4 4 0 0 1 4 -4h8a4 4 0 0 1 4 4v6a4 4 0 0 1 -4 4H6l-4 4v-4H4a4 4 0 0 1 -4 -4z"/>
  </g>
  <text x="146" y="536" font-family="system-ui,sans-serif" font-size="11" fill="#475569" font-weight="600">3</text>
  <text x="368" y="536" font-family="system-ui,sans-serif" font-size="11" fill="#1A8FBE" font-weight="700" text-anchor="end">Lihat detail →</text>

  <text x="24" y="582" font-family="system-ui,sans-serif" font-size="11" fill="#64748B" font-weight="600" letter-spacing="0.4">27 OKTOBER 2025</text>

  <rect x="16" y="594" width="368" height="148" rx="16" fill="#FFFFFF" stroke="#E2E8F0" stroke-width="0.75"/>
  <circle cx="42" cy="622" r="18" fill="#FEF3C7"/>
  <text x="42" y="627" font-family="system-ui,sans-serif" font-size="13" fill="#B45309" font-weight="700" text-anchor="middle">PA</text>
  <text x="68" y="616" font-family="system-ui,sans-serif" font-size="11" fill="#64748B" font-weight="500">Pak Adi · Guru Olahraga</text>
  <text x="368" y="616" font-family="system-ui,sans-serif" font-size="11" fill="#94A3B8" font-weight="500" text-anchor="end">Kemarin · 14:02</text>
  <text x="68" y="636" font-family="system-ui,sans-serif" font-size="14" fill="#0F172A" font-weight="700">Lomba lari estafet antar kelas</text>
  <rect x="68" y="646" width="50" height="20" rx="10" fill="#FEF3C7"/>
  <text x="93" y="660" font-family="system-ui,sans-serif" font-size="10" fill="#B45309" font-weight="700" text-anchor="middle">Lomba</text>
  <text x="68" y="684" font-family="system-ui,sans-serif" font-size="12" fill="#475569" font-weight="500">Kelas 8B sukses meraih juara 2! Selamat untuk tim Rania, Aulia, Bagus, Citra.</text>
  <line x1="68" y1="704" x2="368" y2="704" stroke="#F1F5F9" stroke-width="1"/>
  <g transform="translate(68,714)" fill="none" stroke="#64748B" stroke-width="1.6" stroke-linecap="round" stroke-linejoin="round">
    <path d="M2 11V6a4 4 0 0 1 4 -4h4a4 4 0 0 1 4 4v5l-3 -1l-3 3l-3 -3l-3 1Z"/>
  </g>
  <text x="92" y="726" font-family="system-ui,sans-serif" font-size="11" fill="#475569" font-weight="600">24</text>
  <g transform="translate(120,714)" fill="none" stroke="#64748B" stroke-width="1.6" stroke-linecap="round" stroke-linejoin="round">
    <path d="M0 4a4 4 0 0 1 4 -4h8a4 4 0 0 1 4 4v6a4 4 0 0 1 -4 4H6l-4 4v-4H4a4 4 0 0 1 -4 -4z"/>
  </g>
  <text x="146" y="726" font-family="system-ui,sans-serif" font-size="11" fill="#475569" font-weight="600">8</text>
  <text x="368" y="726" font-family="system-ui,sans-serif" font-size="11" fill="#1A8FBE" font-weight="700" text-anchor="end">Lihat detail →</text>

  <text x="24" y="770" font-family="system-ui,sans-serif" font-size="11" fill="#64748B" font-weight="600" letter-spacing="0.4">25 OKTOBER 2025</text>
  <rect x="16" y="782" width="368" height="84" rx="16" fill="#FFFFFF" stroke="#E2E8F0" stroke-width="0.75"/>
  <circle cx="42" cy="810" r="18" fill="#EDE9FE"/>
  <text x="42" y="815" font-family="system-ui,sans-serif" font-size="13" fill="#6D28D9" font-weight="700" text-anchor="middle">BR</text>
  <text x="68" y="804" font-family="system-ui,sans-serif" font-size="11" fill="#64748B" font-weight="500">Bu Rini · Guru Bahasa</text>
  <text x="368" y="804" font-family="system-ui,sans-serif" font-size="11" fill="#94A3B8" font-weight="500" text-anchor="end">3 hari lalu</text>
  <text x="68" y="824" font-family="system-ui,sans-serif" font-size="14" fill="#0F172A" font-weight="700">Diskusi puisi karya siswa</text>
  <rect x="68" y="834" width="60" height="20" rx="10" fill="#EDE9FE"/>
  <text x="98" y="848" font-family="system-ui,sans-serif" font-size="10" fill="#6D28D9" font-weight="700" text-anchor="middle">Diskusi</text>

  <rect x="0" y="876" width="400" height="84" fill="#FFFFFF"/>
  <line x1="0" y1="876" x2="400" y2="876" stroke="#E2E8F0" stroke-width="1"/>
  <g transform="translate(40,894)" fill="none" stroke="#94A3B8" stroke-width="1.7" stroke-linecap="round" stroke-linejoin="round">
    <path d="M2 12 L12 2 L22 12 v10 a2 2 0 0 1 -2 2 H4 a2 2 0 0 1 -2 -2 z"/>
  </g>
  <text x="50" y="934" font-family="system-ui,sans-serif" font-size="10" fill="#94A3B8" font-weight="500" text-anchor="middle">Beranda</text>
  <g transform="translate(120,894)" fill="none" stroke="#1A8FBE" stroke-width="1.9" stroke-linecap="round" stroke-linejoin="round">
    <path d="M0 6 L12 0 L24 6 L12 12 z"/><path d="M5 9 v6 c0 2 3 3 7 3 s7 -1 7 -3 v-6"/>
  </g>
  <text x="132" y="934" font-family="system-ui,sans-serif" font-size="10" fill="#1A8FBE" font-weight="700" text-anchor="middle">Akademik</text>
  <g transform="translate(200,894)" fill="none" stroke="#94A3B8" stroke-width="1.7" stroke-linecap="round" stroke-linejoin="round">
    <rect x="0.5" y="2" width="22" height="20" rx="3"/><path d="M0 8h23M6 0v4M17 0v4"/><path d="M7 14l3 3l6 -7"/>
  </g>
  <text x="212" y="934" font-family="system-ui,sans-serif" font-size="10" fill="#94A3B8" font-weight="500" text-anchor="middle">Kehadiran</text>
  <g transform="translate(280,894)" fill="none" stroke="#94A3B8" stroke-width="1.7" stroke-linecap="round" stroke-linejoin="round">
    <rect x="1" y="3" width="22" height="18" rx="3"/><path d="M1 9h22"/><circle cx="18" cy="15" r="2"/>
  </g>
  <text x="292" y="934" font-family="system-ui,sans-serif" font-size="10" fill="#94A3B8" font-weight="500" text-anchor="middle">Keuangan</text>
  <g transform="translate(360,898)" fill="none" stroke="#94A3B8" stroke-width="1.7" stroke-linecap="round" stroke-linejoin="round">
    <circle cx="11" cy="7" r="4"/><path d="M2 20c1.5-4 5.5-6 9-6s7.5 2 9 6"/>
  </g>
  <text x="371" y="934" font-family="system-ui,sans-serif" font-size="10" fill="#94A3B8" font-weight="500" text-anchor="middle">Profil</text>
</svg>
