<svg viewBox="0 0 400 960" xmlns="http://www.w3.org/2000/svg" role="img" style="display:block;margin:0 auto;max-width:400px;width:100%;background:#F8FAFC;border-radius:24px;border:0.5px solid rgba(0,0,0,0.08)">
  <title>Parent Pengumuman (Announcements) - Phase 3</title>
  <desc>Announcements list with azure gradient hero, inline search, source-filter chips, and announcement cards each showing sender avatar, title, preview, timestamp, attachment icon and unread dot.</desc>
  <defs>
    <linearGradient id="azP" x1="0" y1="0" x2="1" y2="1">
      <stop offset="0%" stop-color="#21AFE6"/>
      <stop offset="100%" stop-color="#1A8FBE"/>
    </linearGradient>
  </defs>
  <rect x="0" y="0" width="400" height="234" fill="url(#azP)"/>
  <text x="24" y="28" font-family="system-ui,sans-serif" font-size="11" fill="#FFFFFF" opacity="0.7" font-weight="500">08:14</text>
  <g transform="translate(352,22)" fill="#FFFFFF" opacity="0.8">
    <rect x="0" y="0" width="14" height="9" rx="2"/><rect x="16" y="2" width="10" height="5" rx="1"/>
  </g>
  <rect x="20" y="58" width="36" height="36" rx="10" fill="#FFFFFF" fill-opacity="0.18"/>
  <path d="M37 70 l-6 6 l6 6" fill="none" stroke="#FFFFFF" stroke-width="1.8" stroke-linecap="round" stroke-linejoin="round"/>
  <text x="68" y="76" font-family="system-ui,sans-serif" font-size="11" fill="#FFFFFF" opacity="0.78" font-weight="500">Akademik</text>
  <text x="68" y="96" font-family="system-ui,sans-serif" font-size="20" fill="#FFFFFF" font-weight="700">Pengumuman</text>
  <rect x="348" y="60" width="36" height="36" rx="10" fill="#FFFFFF" fill-opacity="0.18"/>
  <g transform="translate(358,70)" fill="none" stroke="#FFFFFF" stroke-width="1.6" stroke-linecap="round" stroke-linejoin="round">
    <path d="M2 4h12M4 9h8M6 14h4"/>
  </g>
  <circle cx="370" cy="64" r="5" fill="#EF4444" stroke="#1A8FBE" stroke-width="1.5"/>
  <text x="370" y="68" font-family="system-ui,sans-serif" font-size="8" fill="#FFFFFF" font-weight="700" text-anchor="middle">5</text>
  <circle cx="31" cy="120" r="3" fill="#4ADE80"/>
  <text x="40" y="123" font-family="system-ui,sans-serif" font-size="10.5" fill="#FFFFFF" opacity="0.78" font-weight="500">Terhubung realtime · 08:14</text>
  <rect x="20" y="138" width="360" height="48" rx="14" fill="#FFFFFF"/>
  <g transform="translate(36,154)" fill="none" stroke="#94A3B8" stroke-width="1.7" stroke-linecap="round" stroke-linejoin="round">
    <circle cx="6" cy="6" r="5"/><path d="M10 10l5 5"/>
  </g>
  <text x="62" y="167" font-family="system-ui,sans-serif" font-size="13" fill="#94A3B8" font-weight="500">Cari pengumuman…</text>
  <rect x="20" y="200" width="78" height="28" rx="14" fill="#FFFFFF"/>
  <text x="59" y="218" font-family="system-ui,sans-serif" font-size="11" fill="#1A8FBE" font-weight="700" text-anchor="middle">Semua</text>
  <rect x="106" y="200" width="78" height="28" rx="14" fill="#FFFFFF" fill-opacity="0.18"/>
  <text x="145" y="218" font-family="system-ui,sans-serif" font-size="11" fill="#FFFFFF" font-weight="600" text-anchor="middle">Sekolah</text>
  <rect x="192" y="200" width="60" height="28" rx="14" fill="#FFFFFF" fill-opacity="0.18"/>
  <text x="222" y="218" font-family="system-ui,sans-serif" font-size="11" fill="#FFFFFF" font-weight="600" text-anchor="middle">Kelas</text>
  <rect x="260" y="200" width="78" height="28" rx="14" fill="#FFFFFF" fill-opacity="0.18"/>
  <text x="299" y="218" font-family="system-ui,sans-serif" font-size="11" fill="#FFFFFF" font-weight="600" text-anchor="middle">Penting</text>

  <text x="24" y="266" font-family="system-ui,sans-serif" font-size="11" fill="#64748B" font-weight="600" letter-spacing="0.4">HARI INI</text>
  <text x="376" y="266" font-family="system-ui,sans-serif" font-size="11" fill="#64748B" font-weight="500" text-anchor="end">Tarik untuk segarkan ↓</text>

  <rect x="16" y="278" width="368" height="120" rx="16" fill="#FFFFFF" stroke="#E2E8F0" stroke-width="0.75"/>
  <circle cx="42" cy="304" r="18" fill="#FEE2E2"/>
  <g transform="translate(33,295)" fill="none" stroke="#DC2626" stroke-width="1.8" stroke-linecap="round" stroke-linejoin="round">
    <path d="M9 0v12M9 16h0"/><circle cx="9" cy="9" r="9"/>
  </g>
  <text x="68" y="298" font-family="system-ui,sans-serif" font-size="11" fill="#64748B" font-weight="500">Sekolah · Kepala Sekolah</text>
  <text x="368" y="298" font-family="system-ui,sans-serif" font-size="11" fill="#94A3B8" font-weight="500" text-anchor="end">2 jam lalu</text>
  <text x="68" y="318" font-family="system-ui,sans-serif" font-size="14" fill="#0F172A" font-weight="700">Libur HUT Sekolah · 30 Oktober</text>
  <text x="68" y="338" font-family="system-ui,sans-serif" font-size="12" fill="#475569" font-weight="500">Kegiatan belajar diliburkan tanggal 30/10. Upacara dimulai 07:30 di lapangan...</text>
  <rect x="68" y="354" width="62" height="22" rx="11" fill="#FEE2E2"/>
  <circle cx="78" cy="365" r="3" fill="#DC2626"/>
  <text x="116" y="369" font-family="system-ui,sans-serif" font-size="11" fill="#991B1B" font-weight="700" text-anchor="end">Penting</text>
  <g transform="translate(140,358)" fill="none" stroke="#94A3B8" stroke-width="1.5" stroke-linecap="round" stroke-linejoin="round">
    <path d="M2 0v8a3 3 0 0 0 6 0V2a2 2 0 0 0 -4 0v6a1 1 0 0 0 2 0V2"/>
  </g>
  <text x="156" y="368" font-family="system-ui,sans-serif" font-size="11" fill="#64748B" font-weight="600">Surat-edaran.pdf</text>
  <circle cx="368" cy="288" r="5" fill="#1A8FBE"/>

  <rect x="16" y="408" width="368" height="100" rx="16" fill="#FFFFFF" stroke="#E2E8F0" stroke-width="0.75"/>
  <circle cx="42" cy="434" r="18" fill="#DBEAFE"/>
  <text x="42" y="439" font-family="system-ui,sans-serif" font-size="13" fill="#1D4ED8" font-weight="700" text-anchor="middle">BS</text>
  <text x="68" y="428" font-family="system-ui,sans-serif" font-size="11" fill="#64748B" font-weight="500">Kelas 8B · Bu Sari (Wali kelas)</text>
  <text x="368" y="428" font-family="system-ui,sans-serif" font-size="11" fill="#94A3B8" font-weight="500" text-anchor="end">3 jam lalu</text>
  <text x="68" y="448" font-family="system-ui,sans-serif" font-size="14" fill="#0F172A" font-weight="700">Pengumpulan tugas IPA Senin depan</text>
  <text x="68" y="468" font-family="system-ui,sans-serif" font-size="12" fill="#475569" font-weight="500">Tugas kelompok bab Sistem Pernapasan dikumpulkan dalam bentuk PDF...</text>
  <rect x="68" y="484" width="44" height="20" rx="10" fill="#F1F5F9"/>
  <text x="90" y="498" font-family="system-ui,sans-serif" font-size="10" fill="#475569" font-weight="600" text-anchor="middle">Tugas</text>
  <text x="118" y="498" font-family="system-ui,sans-serif" font-size="11" fill="#1A8FBE" font-weight="600">Untuk Rania</text>
  <circle cx="368" cy="418" r="5" fill="#1A8FBE"/>

  <text x="24" y="538" font-family="system-ui,sans-serif" font-size="11" fill="#64748B" font-weight="600" letter-spacing="0.4">KEMARIN</text>

  <rect x="16" y="550" width="368" height="92" rx="16" fill="#FFFFFF" stroke="#E2E8F0" stroke-width="0.75"/>
  <circle cx="42" cy="576" r="18" fill="#DCFCE7"/>
  <text x="42" y="581" font-family="system-ui,sans-serif" font-size="13" fill="#15803D" font-weight="700" text-anchor="middle">PT</text>
  <text x="68" y="570" font-family="system-ui,sans-serif" font-size="11" fill="#64748B" font-weight="500">Sekolah · Pengelola TU</text>
  <text x="368" y="570" font-family="system-ui,sans-serif" font-size="11" fill="#94A3B8" font-weight="500" text-anchor="end">1 hari lalu</text>
  <text x="68" y="590" font-family="system-ui,sans-serif" font-size="14" fill="#0F172A" font-weight="700">Jadwal UTS Ganjil</text>
  <text x="68" y="610" font-family="system-ui,sans-serif" font-size="12" fill="#475569" font-weight="500">UTS dilaksanakan 4-15 November. Jadwal lengkap pada lampiran.</text>
  <g transform="translate(68,622)" fill="none" stroke="#94A3B8" stroke-width="1.5" stroke-linecap="round" stroke-linejoin="round">
    <path d="M2 0v8a3 3 0 0 0 6 0V2a2 2 0 0 0 -4 0v6a1 1 0 0 0 2 0V2"/>
  </g>
  <text x="84" y="632" font-family="system-ui,sans-serif" font-size="11" fill="#64748B" font-weight="600">Jadwal-UTS-Ganjil-2025.pdf</text>

  <rect x="16" y="652" width="368" height="92" rx="16" fill="#FFFFFF" stroke="#E2E8F0" stroke-width="0.75"/>
  <circle cx="42" cy="678" r="18" fill="#FEF3C7"/>
  <text x="42" y="683" font-family="system-ui,sans-serif" font-size="13" fill="#B45309" font-weight="700" text-anchor="middle">P5</text>
  <text x="68" y="672" font-family="system-ui,sans-serif" font-size="11" fill="#64748B" font-weight="500">Kelas 5A · Pak Adi (Wali kelas)</text>
  <text x="368" y="672" font-family="system-ui,sans-serif" font-size="11" fill="#94A3B8" font-weight="500" text-anchor="end">2 hari lalu</text>
  <text x="68" y="692" font-family="system-ui,sans-serif" font-size="14" fill="#0F172A" font-weight="700">Field trip Museum Geologi</text>
  <text x="68" y="712" font-family="system-ui,sans-serif" font-size="12" fill="#475569" font-weight="500">Berangkat 06:30, kembali 14:00. Bawa bekal &amp; air minum...</text>
  <text x="68" y="730" font-family="system-ui,sans-serif" font-size="11" fill="#1A8FBE" font-weight="600">Untuk Faiz</text>

  <rect x="16" y="754" width="368" height="92" rx="16" fill="#FFFFFF" stroke="#E2E8F0" stroke-width="0.75"/>
  <circle cx="42" cy="780" r="18" fill="#EDE9FE"/>
  <text x="42" y="785" font-family="system-ui,sans-serif" font-size="13" fill="#6D28D9" font-weight="700" text-anchor="middle">BB</text>
  <text x="68" y="774" font-family="system-ui,sans-serif" font-size="11" fill="#64748B" font-weight="500">Sekolah · Bagian Beasiswa</text>
  <text x="368" y="774" font-family="system-ui,sans-serif" font-size="11" fill="#94A3B8" font-weight="500" text-anchor="end">3 hari lalu</text>
  <text x="68" y="794" font-family="system-ui,sans-serif" font-size="14" fill="#0F172A" font-weight="700">Pendaftaran Beasiswa Prestasi</text>
  <text x="68" y="814" font-family="system-ui,sans-serif" font-size="12" fill="#475569" font-weight="500">Terbuka untuk siswa peringkat 1-5 tiap kelas. Daftar via wali kelas...</text>
  <rect x="68" y="826" width="60" height="20" rx="10" fill="#F1F5F9"/>
  <text x="98" y="840" font-family="system-ui,sans-serif" font-size="10" fill="#475569" font-weight="600" text-anchor="middle">Beasiswa</text>

  <rect x="0" y="876" width="400" height="84" fill="#FFFFFF"/>
  <line x1="0" y1="876" x2="400" y2="876" stroke="#E2E8F0" stroke-width="1"/>
  <g transform="translate(40,894)" fill="none" stroke="#94A3B8" stroke-width="1.7" stroke-linecap="round" stroke-linejoin="round">
    <path d="M2 12 L12 2 L22 12 v10 a2 2 0 0 1 -2 2 H4 a2 2 0 0 1 -2 -2 z"/>
  </g>
  <text x="50" y="934" font-family="system-ui,sans-serif" font-size="10" fill="#94A3B8" font-weight="500" text-anchor="middle">Beranda</text>
  <g transform="translate(120,894)" fill="none" stroke="#1A8FBE" stroke-width="1.9" stroke-linecap="round" stroke-linejoin="round">
    <path d="M0 6 L12 0 L24 6 L12 12 z"/><path d="M5 9 v6 c0 2 3 3 7 3 s7 -1 7 -3 v-6"/>
  </g>
  <text x="132" y="934" font-family="system-ui,sans-serif" font-size="10" fill="#1A8FBE" font-weight="700" text-anchor="middle">Akademik</text>
  <g transform="translate(200,894)" fill="none" stroke="#94A3B8" stroke-width="1.7" stroke-linecap="round" stroke-linejoin="round">
    <rect x="0.5" y="2" width="22" height="20" rx="3"/><path d="M0 8h23M6 0v4M17 0v4"/><path d="M7 14l3 3l6 -7"/>
  </g>
  <text x="212" y="934" font-family="system-ui,sans-serif" font-size="10" fill="#94A3B8" font-weight="500" text-anchor="middle">Kehadiran</text>
  <g transform="translate(280,894)" fill="none" stroke="#94A3B8" stroke-width="1.7" stroke-linecap="round" stroke-linejoin="round">
    <rect x="1" y="3" width="22" height="18" rx="3"/><path d="M1 9h22"/><circle cx="18" cy="15" r="2"/>
  </g>
  <text x="292" y="934" font-family="system-ui,sans-serif" font-size="10" fill="#94A3B8" font-weight="500" text-anchor="middle">Keuangan</text>
  <g transform="translate(360,898)" fill="none" stroke="#94A3B8" stroke-width="1.7" stroke-linecap="round" stroke-linejoin="round">
    <circle cx="11" cy="7" r="4"/><path d="M2 20c1.5-4 5.5-6 9-6s7.5 2 9 6"/>
  </g>
  <text x="371" y="934" font-family="system-ui,sans-serif" font-size="10" fill="#94A3B8" font-weight="500" text-anchor="middle">Profil</text>
</svg>
