<svg viewBox="0 0 400 720" xmlns="http://www.w3.org/2000/svg" role="img" style="display:block;margin:0 auto;max-width:400px;width:100%;background:rgba(15,23,42,0.55);border-radius:24px;border:0.5px solid rgba(0,0,0,0.08)">
  <title>Parent Kehadiran filter bottom sheet</title>
  <desc>Mockup of the AppFilterBottomSheet that opens when the period or status chips in the Kehadiran hero are tapped. Sections: Periode (month + semester), Status (multi-select), Cancel/Apply footer with selected-count badge.</desc>
  <rect x="0" y="200" width="400" height="520" fill="#FFFFFF" rx="24"/>
  <rect x="180" y="216" width="40" height="4" rx="2" fill="#E2E8F0"/>
  <text x="24" y="252" font-family="system-ui,sans-serif" font-size="16" fill="#0F172A" font-weight="700">Filter Kehadiran</text>
  <text x="376" y="252" font-family="system-ui,sans-serif" font-size="12" fill="#64748B" font-weight="500" text-anchor="end">Reset</text>
  <line x1="0" y1="272" x2="400" y2="272" stroke="#F1F5F9" stroke-width="1"/>
  <g transform="translate(24,294)" fill="none" stroke="#1A8FBE" stroke-width="1.6" stroke-linecap="round" stroke-linejoin="round">
    <rect x="0" y="2" width="14" height="12" rx="2"/>
    <path d="M0 6h14M4 0v3M10 0v3"/>
  </g>
  <text x="46" y="306" font-family="system-ui,sans-serif" font-size="13" fill="#0F172A" font-weight="700">Periode</text>
  <rect x="24" y="320" width="352" height="44" rx="12" fill="#F8FAFC" stroke="#E2E8F0" stroke-width="0.75"/>
  <text x="40" y="346" font-family="system-ui,sans-serif" font-size="13" fill="#0F172A" font-weight="600">Oktober 2025</text>
  <path d="M348 340 l5 5 l5 -5" fill="none" stroke="#64748B" stroke-width="1.5" stroke-linecap="round" stroke-linejoin="round"/>
  <rect x="24" y="376" width="110" height="36" rx="12" fill="#1A8FBE"/>
  <text x="79" y="399" font-family="system-ui,sans-serif" font-size="12" fill="#FFFFFF" font-weight="600" text-anchor="middle">Sem. Ganjil</text>
  <rect x="142" y="376" width="110" height="36" rx="12" fill="#FFFFFF" stroke="#E2E8F0"/>
  <text x="197" y="399" font-family="system-ui,sans-serif" font-size="12" fill="#475569" font-weight="600" text-anchor="middle">Sem. Genap</text>
  <line x1="0" y1="436" x2="400" y2="436" stroke="#F1F5F9" stroke-width="1"/>
  <g transform="translate(24,460)" fill="none" stroke="#1A8FBE" stroke-width="1.6" stroke-linecap="round" stroke-linejoin="round">
    <path d="M0 7l4 4l8 -8"/>
    <rect x="-1" y="-1" width="16" height="16" rx="3"/>
  </g>
  <text x="46" y="474" font-family="system-ui,sans-serif" font-size="13" fill="#0F172A" font-weight="700">Status</text>
  <text x="376" y="474" font-family="system-ui,sans-serif" font-size="11" fill="#64748B" font-weight="500" text-anchor="end">Pilih beberapa</text>
  <rect x="24" y="490" width="76" height="34" rx="12" fill="#DCFCE7"/>
  <circle cx="38" cy="507" r="4" fill="#16A34A"/>
  <text x="62" y="511" font-family="system-ui,sans-serif" font-size="12" fill="#15803D" font-weight="700" text-anchor="middle">Hadir</text>
  <path d="M85 502 l3 3 l5 -5" fill="none" stroke="#15803D" stroke-width="1.5" stroke-linecap="round" stroke-linejoin="round"/>
  <rect x="108" y="490" width="98" height="34" rx="12" fill="#FFFFFF" stroke="#E2E8F0"/>
  <circle cx="122" cy="507" r="4" fill="#F59E0B"/>
  <text x="160" y="511" font-family="system-ui,sans-serif" font-size="12" fill="#475569" font-weight="600" text-anchor="middle">Terlambat</text>
  <rect x="214" y="490" width="68" height="34" rx="12" fill="#FFFFFF" stroke="#E2E8F0"/>
  <circle cx="228" cy="507" r="4" fill="#0891B2"/>
  <text x="252" y="511" font-family="system-ui,sans-serif" font-size="12" fill="#475569" font-weight="600" text-anchor="middle">Izin</text>
  <rect x="290" y="490" width="76" height="34" rx="12" fill="#FFFFFF" stroke="#E2E8F0"/>
  <circle cx="304" cy="507" r="4" fill="#F59E0B"/>
  <text x="328" y="511" font-family="system-ui,sans-serif" font-size="12" fill="#475569" font-weight="600" text-anchor="middle">Sakit</text>
  <rect x="24" y="534" width="80" height="34" rx="12" fill="#FFFFFF" stroke="#E2E8F0"/>
  <circle cx="38" cy="551" r="4" fill="#EF4444"/>
  <text x="64" y="555" font-family="system-ui,sans-serif" font-size="12" fill="#475569" font-weight="600" text-anchor="middle">Alpha</text>
  <line x1="0" y1="608" x2="400" y2="608" stroke="#F1F5F9" stroke-width="1"/>
  <rect x="24" y="624" width="120" height="48" rx="14" fill="#FFFFFF" stroke="#E2E8F0"/>
  <text x="84" y="654" font-family="system-ui,sans-serif" font-size="13" fill="#475569" font-weight="600" text-anchor="middle">Batal</text>
  <rect x="156" y="624" width="220" height="48" rx="14" fill="#1A8FBE"/>
  <text x="266" y="654" font-family="system-ui,sans-serif" font-size="13" fill="#FFFFFF" font-weight="700" text-anchor="middle">Terapkan filter (1)</text>
</svg>
