<svg viewBox="0 0 1240 1080" xmlns="http://www.w3.org/2000/svg" role="img" style="display:block;margin:0 auto;max-width:1240px;width:100%;background:#E2E8F0;border-radius:16px;padding:24px 0">
  <title>BrandEmptyState — shared empty/error/filtered state component</title>
  <desc>Three variants of a shared parent-screen empty state widget. Each variant takes the same props (icon, kicker, title, subtitle, primary/secondary action) and renders the same chrome. Variant 1 default no-data, variant 2 filtered with Reset CTA, variant 3 connection error with Retry CTA.</desc>
  <defs>
    <linearGradient id="azEmpty" x1="0" y1="0" x2="1" y2="1">
      <stop offset="0%" stop-color="#21AFE6"/>
      <stop offset="100%" stop-color="#1A8FBE"/>
    </linearGradient>
  </defs>

  <text x="40" y="36" font-family="system-ui,sans-serif" font-size="14" fill="#0F172A" font-weight="700" letter-spacing="0.4">VARIANT 1 · DEFAULT (no data)</text>
  <text x="40" y="56" font-family="system-ui,sans-serif" font-size="11" fill="#64748B" font-weight="500">tone: info · primary action: none</text>

  <rect x="40" y="76" width="370" height="800" rx="32" fill="#F8FAFC" stroke="#CBD5E1" stroke-width="0.5"/>

  <rect x="40" y="76" width="370" height="240" rx="32" fill="url(#azEmpty)"/>
  <rect x="40" y="296" width="370" height="20" fill="url(#azEmpty)"/>
  <rect x="60" y="118" width="36" height="36" rx="10" fill="#FFFFFF" fill-opacity="0.18"/>
  <path d="M77 130 l-6 6 l6 6" fill="none" stroke="#FFFFFF" stroke-width="1.8" stroke-linecap="round" stroke-linejoin="round"/>
  <text x="108" y="136" font-family="system-ui,sans-serif" font-size="11" fill="#FFFFFF" opacity="0.78" font-weight="500">Akademik</text>
  <text x="108" y="156" font-family="system-ui,sans-serif" font-size="20" fill="#FFFFFF" font-weight="700">Pengumuman</text>
  <circle cx="71" cy="184" r="3" fill="#4ADE80"/>
  <text x="80" y="187" font-family="system-ui,sans-serif" font-size="10.5" fill="#FFFFFF" opacity="0.78" font-weight="500">Terhubung realtime · 15:46</text>
  <rect x="60" y="206" width="330" height="44" rx="12" fill="#FFFFFF"/>
  <g transform="translate(76,222)" fill="none" stroke="#94A3B8" stroke-width="1.7" stroke-linecap="round" stroke-linejoin="round">
    <circle cx="6" cy="6" r="5"/><path d="M10 10l5 5"/>
  </g>
  <text x="102" y="235" font-family="system-ui,sans-serif" font-size="13" fill="#94A3B8" font-weight="500">Cari pengumuman…</text>

  <rect x="56" y="346" width="338" height="370" rx="20" fill="#FFFFFF" stroke="#E2E8F0" stroke-width="0.75"/>

  <circle cx="225" cy="436" r="44" fill="#F0F9FF"/>
  <circle cx="225" cy="436" r="44" fill="none" stroke="#BAE6FD" stroke-width="1"/>
  <g transform="translate(205,416)" fill="none" stroke="#1A8FBE" stroke-width="1.8" stroke-linecap="round" stroke-linejoin="round">
    <path d="M2 4a2 2 0 0 1 2 -2h32a2 2 0 0 1 2 2v22a2 2 0 0 1 -2 2H14l-7 6v-6H4a2 2 0 0 1 -2 -2z"/>
    <path d="M12 12h16M12 18h10"/>
  </g>

  <text x="225" y="510" font-family="system-ui,sans-serif" font-size="11" fill="#1A8FBE" font-weight="700" text-anchor="middle" letter-spacing="0.6">BELUM ADA DATA</text>
  <text x="225" y="540" font-family="system-ui,sans-serif" font-size="17" fill="#0F172A" font-weight="800" text-anchor="middle">Belum ada pengumuman</text>
  <text x="225" y="566" font-family="system-ui,sans-serif" font-size="12" fill="#475569" font-weight="500" text-anchor="middle">Pengumuman dari sekolah dan wali kelas</text>
  <text x="225" y="582" font-family="system-ui,sans-serif" font-size="12" fill="#475569" font-weight="500" text-anchor="middle">akan muncul di sini ketika tersedia.</text>

  <rect x="116" y="624" width="218" height="44" rx="12" fill="#FFFFFF" stroke="#E2E8F0" stroke-width="1"/>
  <g transform="translate(146,640)" fill="none" stroke="#475569" stroke-width="1.6" stroke-linecap="round" stroke-linejoin="round">
    <path d="M2 8a8 8 0 1 1 1 4M3 14h-3v-3"/>
  </g>
  <text x="225" y="652" font-family="system-ui,sans-serif" font-size="13" fill="#0F172A" font-weight="700" text-anchor="middle">Tarik untuk segarkan</text>

  <rect x="56" y="740" width="338" height="56" rx="14" fill="#F8FAFC" stroke="#E2E8F0" stroke-width="0.5"/>
  <g transform="translate(74,756)" fill="none" stroke="#94A3B8" stroke-width="1.5" stroke-linecap="round" stroke-linejoin="round">
    <circle cx="12" cy="12" r="10"/><path d="M12 8v4M12 16v.1"/>
  </g>
  <text x="106" y="765" font-family="system-ui,sans-serif" font-size="11" fill="#475569" font-weight="600">Belum diaktifkan oleh sekolah?</text>
  <text x="106" y="781" font-family="system-ui,sans-serif" font-size="11" fill="#64748B" font-weight="500">Hubungi wali kelas untuk diaktifkan.</text>

  <text x="450" y="36" font-family="system-ui,sans-serif" font-size="14" fill="#0F172A" font-weight="700" letter-spacing="0.4">VARIANT 2 · FILTERED</text>
  <text x="450" y="56" font-family="system-ui,sans-serif" font-size="11" fill="#64748B" font-weight="500">tone: warning · primary: Reset filter</text>

  <rect x="450" y="76" width="370" height="800" rx="32" fill="#F8FAFC" stroke="#CBD5E1" stroke-width="0.5"/>
  <rect x="450" y="76" width="370" height="240" rx="32" fill="url(#azEmpty)"/>
  <rect x="450" y="296" width="370" height="20" fill="url(#azEmpty)"/>
  <rect x="470" y="118" width="36" height="36" rx="10" fill="#FFFFFF" fill-opacity="0.18"/>
  <path d="M487 130 l-6 6 l6 6" fill="none" stroke="#FFFFFF" stroke-width="1.8" stroke-linecap="round" stroke-linejoin="round"/>
  <text x="518" y="136" font-family="system-ui,sans-serif" font-size="11" fill="#FFFFFF" opacity="0.78" font-weight="500">Akademik · Anak</text>
  <text x="518" y="156" font-family="system-ui,sans-serif" font-size="20" fill="#FFFFFF" font-weight="700">Aktivitas Kelas</text>
  <circle cx="481" cy="184" r="3" fill="#4ADE80"/>
  <text x="490" y="187" font-family="system-ui,sans-serif" font-size="10.5" fill="#FFFFFF" opacity="0.78" font-weight="500">Terhubung realtime · 15:46</text>
  <rect x="470" y="206" width="170" height="44" rx="14" fill="#FFFFFF"/>
  <g transform="translate(488,222)" fill="none" stroke="#94A3B8" stroke-width="1.6" stroke-linecap="round" stroke-linejoin="round">
    <circle cx="6" cy="6" r="2.5"/><path d="M3 12c1 -2 4 -3 6 -3"/>
    <circle cx="18" cy="6" r="2.5"/><path d="M15 12c1 -2 4 -3 6 -3"/>
  </g>
  <text x="528" y="220" font-family="system-ui,sans-serif" font-size="11" fill="#0F172A" font-weight="700">Rania</text>
  <text x="528" y="234" font-family="system-ui,sans-serif" font-size="9" fill="#64748B" font-weight="500">Kelas 8B</text>
  <rect x="650" y="206" width="160" height="44" rx="14" fill="#FFFFFF" fill-opacity="0.16" stroke="#FFFFFF" stroke-opacity="0.28"/>
  <text x="730" y="232" font-family="system-ui,sans-serif" font-size="12" fill="#FFFFFF" font-weight="700" text-anchor="middle">Bulan ini</text>
  <rect x="470" y="262" width="120" height="36" rx="12" fill="#FFFFFF" fill-opacity="0.22"/>
  <text x="530" y="284" font-family="system-ui,sans-serif" font-size="11.5" fill="#FFFFFF" font-weight="700" text-anchor="middle">Jenis: Tugas</text>

  <rect x="466" y="346" width="338" height="408" rx="20" fill="#FFFFFF" stroke="#E2E8F0" stroke-width="0.75"/>

  <circle cx="635" cy="436" r="44" fill="#FEF3C7"/>
  <circle cx="635" cy="436" r="44" fill="none" stroke="#FCD34D" stroke-width="1"/>
  <g transform="translate(615,416)" fill="none" stroke="#B45309" stroke-width="1.8" stroke-linecap="round" stroke-linejoin="round">
    <path d="M0 4l40 0 -16 18 0 14 -8 0 0 -14z"/>
  </g>

  <text x="635" y="510" font-family="system-ui,sans-serif" font-size="11" fill="#B45309" font-weight="700" text-anchor="middle" letter-spacing="0.6">FILTER AKTIF</text>
  <text x="635" y="540" font-family="system-ui,sans-serif" font-size="17" fill="#0F172A" font-weight="800" text-anchor="middle">Tidak ada hasil</text>
  <text x="635" y="566" font-family="system-ui,sans-serif" font-size="12" fill="#475569" font-weight="500" text-anchor="middle">Tidak ada aktivitas yang cocok dengan</text>
  <text x="635" y="582" font-family="system-ui,sans-serif" font-size="12" fill="#475569" font-weight="500" text-anchor="middle">filter Jenis: Tugas pada bulan ini.</text>

  <rect x="498" y="624" width="274" height="44" rx="12" fill="#1A8FBE"/>
  <g transform="translate(528,640)" fill="none" stroke="#FFFFFF" stroke-width="1.7" stroke-linecap="round" stroke-linejoin="round">
    <path d="M2 8h12M8 4l-6 4l6 4"/>
  </g>
  <text x="635" y="652" font-family="system-ui,sans-serif" font-size="13" fill="#FFFFFF" font-weight="700" text-anchor="middle">Reset filter</text>

  <rect x="498" y="680" width="274" height="44" rx="12" fill="#FFFFFF" stroke="#E2E8F0" stroke-width="1"/>
  <text x="635" y="708" font-family="system-ui,sans-serif" font-size="13" fill="#475569" font-weight="700" text-anchor="middle">Lihat semua aktivitas</text>

  <text x="466" y="780" font-family="system-ui,sans-serif" font-size="11" fill="#94A3B8" font-weight="500" text-anchor="middle" font-style="italic" textLength="338">Filter aktif: Bulan ini, Jenis Tugas — coba lebarkan rentangnya.</text>

  <text x="860" y="36" font-family="system-ui,sans-serif" font-size="14" fill="#0F172A" font-weight="700" letter-spacing="0.4">VARIANT 3 · ERROR</text>
  <text x="860" y="56" font-family="system-ui,sans-serif" font-size="11" fill="#64748B" font-weight="500">tone: danger · primary: Coba lagi</text>

  <rect x="860" y="76" width="370" height="800" rx="32" fill="#F8FAFC" stroke="#CBD5E1" stroke-width="0.5"/>
  <rect x="860" y="76" width="370" height="240" rx="32" fill="url(#azEmpty)"/>
  <rect x="860" y="296" width="370" height="20" fill="url(#azEmpty)"/>
  <rect x="880" y="118" width="36" height="36" rx="10" fill="#FFFFFF" fill-opacity="0.18"/>
  <path d="M897 130 l-6 6 l6 6" fill="none" stroke="#FFFFFF" stroke-width="1.8" stroke-linecap="round" stroke-linejoin="round"/>
  <text x="928" y="136" font-family="system-ui,sans-serif" font-size="11" fill="#FFFFFF" opacity="0.78" font-weight="500">Keuangan</text>
  <text x="928" y="156" font-family="system-ui,sans-serif" font-size="20" fill="#FFFFFF" font-weight="700">Tagihan</text>
  <circle cx="891" cy="184" r="3" fill="#94A3B8"/>
  <text x="900" y="187" font-family="system-ui,sans-serif" font-size="10.5" fill="#FFFFFF" opacity="0.78" font-weight="500">Mencoba menyambung ulang…</text>
  <rect x="880" y="206" width="170" height="44" rx="14" fill="#FFFFFF"/>
  <text x="965" y="232" font-family="system-ui,sans-serif" font-size="11" fill="#0F172A" font-weight="700" text-anchor="middle">Rania</text>
  <rect x="1060" y="206" width="150" height="44" rx="14" fill="#FFFFFF" fill-opacity="0.16" stroke="#FFFFFF" stroke-opacity="0.28"/>
  <text x="1135" y="232" font-family="system-ui,sans-serif" font-size="12" fill="#FFFFFF" font-weight="700" text-anchor="middle">Belum lunas</text>

  <rect x="876" y="346" width="338" height="408" rx="20" fill="#FFFFFF" stroke="#E2E8F0" stroke-width="0.75"/>

  <circle cx="1045" cy="436" r="44" fill="#FEE2E2"/>
  <circle cx="1045" cy="436" r="44" fill="none" stroke="#FCA5A5" stroke-width="1"/>
  <g transform="translate(1025,416)" fill="none" stroke="#B91C1C" stroke-width="1.8" stroke-linecap="round" stroke-linejoin="round">
    <circle cx="20" cy="20" r="18"/>
    <path d="M20 12v10M20 26v.1"/>
  </g>

  <text x="1045" y="510" font-family="system-ui,sans-serif" font-size="11" fill="#B91C1C" font-weight="700" text-anchor="middle" letter-spacing="0.6">SAMBUNGAN BERMASALAH</text>
  <text x="1045" y="540" font-family="system-ui,sans-serif" font-size="17" fill="#0F172A" font-weight="800" text-anchor="middle">Tidak dapat memuat data</text>
  <text x="1045" y="566" font-family="system-ui,sans-serif" font-size="12" fill="#475569" font-weight="500" text-anchor="middle">Periksa koneksi internet, lalu coba</text>
  <text x="1045" y="582" font-family="system-ui,sans-serif" font-size="12" fill="#475569" font-weight="500" text-anchor="middle">muat ulang halaman ini.</text>

  <rect x="908" y="624" width="274" height="44" rx="12" fill="#1A8FBE"/>
  <g transform="translate(938,640)" fill="none" stroke="#FFFFFF" stroke-width="1.7" stroke-linecap="round" stroke-linejoin="round">
    <path d="M2 8a8 8 0 1 1 1 4M3 14h-3v-3"/>
  </g>
  <text x="1045" y="652" font-family="system-ui,sans-serif" font-size="13" fill="#FFFFFF" font-weight="700" text-anchor="middle">Coba lagi</text>

  <rect x="908" y="680" width="274" height="44" rx="12" fill="#FFFFFF" stroke="#E2E8F0" stroke-width="1"/>
  <text x="1045" y="708" font-family="system-ui,sans-serif" font-size="13" fill="#475569" font-weight="700" text-anchor="middle">Hubungi sekolah</text>

  <rect x="908" y="740" width="274" height="14" rx="0" fill="none"/>

  <text x="40" y="940" font-family="system-ui,sans-serif" font-size="13" fill="#0F172A" font-weight="700" letter-spacing="0.4">PROPS (Vue-style)</text>
  <text x="40" y="964" font-family="ui-monospace,Menlo,monospace" font-size="11" fill="#475569">icon: IconData          // round 88px tinted bubble icon</text>
  <text x="40" y="982" font-family="ui-monospace,Menlo,monospace" font-size="11" fill="#475569">tone: 'info'|'warning'|'danger'|'success'  // routes the kicker color + bubble palette</text>
  <text x="40" y="1000" font-family="ui-monospace,Menlo,monospace" font-size="11" fill="#475569">kicker?: String         // small SCREAMING label above title (auto-uppercased)</text>
  <text x="40" y="1018" font-family="ui-monospace,Menlo,monospace" font-size="11" fill="#475569">title: String           // 17px slate-900 800</text>
  <text x="40" y="1036" font-family="ui-monospace,Menlo,monospace" font-size="11" fill="#475569">message?: String        // slate-600 12px, multi-line</text>
  <text x="40" y="1054" font-family="ui-monospace,Menlo,monospace" font-size="11" fill="#475569">primaryAction?: ({ label, icon?, onTap }) // azure-deep filled button</text>
  <text x="640" y="964" font-family="ui-monospace,Menlo,monospace" font-size="11" fill="#475569">secondaryAction?: ({ label, icon?, onTap }) // outline slate-700 button</text>
  <text x="640" y="982" font-family="ui-monospace,Menlo,monospace" font-size="11" fill="#475569">helper?: String         // small italic slate-400 line under buttons</text>
  <text x="640" y="1000" font-family="ui-monospace,Menlo,monospace" font-size="11" fill="#475569">// All variants share the same chrome: white card, slate-200 border,</text>
  <text x="640" y="1018" font-family="ui-monospace,Menlo,monospace" font-size="11" fill="#475569">// 20px radius, centered content, 88px tinted icon bubble. Only the</text>
  <text x="640" y="1036" font-family="ui-monospace,Menlo,monospace" font-size="11" fill="#475569">// tone changes bubble fg/bg + kicker color. Buttons are conditional.</text>
</svg>
