<svg xmlns="http://www.w3.org/2000/svg" viewBox="0 0 1320 1340" font-family="Inter, -apple-system, system-ui, sans-serif">
  <!-- ============================================================== -->
  <!-- DEFS                                                           -->
  <!-- ============================================================== -->
  <defs>
    <linearGradient id="adminGrad" x1="0" y1="0" x2="0" y2="1">
      <stop offset="0" stop-color="#143068"/>
      <stop offset="1" stop-color="#1F4A8F"/>
    </linearGradient>
    <linearGradient id="guruGrad" x1="0" y1="0" x2="0" y2="1">
      <stop offset="0" stop-color="#143068"/>
      <stop offset="1" stop-color="#21AFE6"/>
    </linearGradient>
    <linearGradient id="waliGrad" x1="0" y1="0" x2="0" y2="1">
      <stop offset="0" stop-color="#21AFE6"/>
      <stop offset="1" stop-color="#1A8FBE"/>
    </linearGradient>
    <linearGradient id="brandHero" x1="0" y1="0" x2="1" y2="1">
      <stop offset="0" stop-color="#21AFE6"/>
      <stop offset="1" stop-color="#1A8FBE"/>
    </linearGradient>
    <linearGradient id="adminHeroFlat" x1="0" y1="0" x2="1" y2="1">
      <stop offset="0" stop-color="#143068"/>
      <stop offset="1" stop-color="#1F4A8F"/>
    </linearGradient>
    <filter id="phoneShadow" x="-10%" y="-5%" width="120%" height="115%">
      <feDropShadow dx="0" dy="14" stdDeviation="20" flood-color="#0F172A" flood-opacity="0.12"/>
    </filter>
    <filter id="cardShadow" x="-20%" y="-20%" width="140%" height="160%">
      <feDropShadow dx="0" dy="6" stdDeviation="10" flood-color="#0F172A" flood-opacity="0.08"/>
    </filter>
    <filter id="sheetShadow" x="-20%" y="-5%" width="140%" height="115%">
      <feDropShadow dx="0" dy="-12" stdDeviation="14" flood-color="#0F172A" flood-opacity="0.10"/>
    </filter>
    <filter id="checkShadow" x="-50%" y="-50%" width="200%" height="200%">
      <feDropShadow dx="0" dy="2" stdDeviation="3" flood-color="#143068" flood-opacity="0.25"/>
    </filter>
  </defs>

  <rect width="1320" height="1340" fill="#F8FAFC"/>

  <!-- ============================================================== -->
  <!-- TITLE BAR                                                      -->
  <!-- ============================================================== -->
  <text x="60" y="58" font-weight="800" font-size="26" fill="#0F172A">Switcher Sheets · 3 Design Variants</text>
  <text x="60" y="84" font-size="13" fill="#64748B">Same content, three takes on selection affordance — pick one for both Pilih Peran &amp; Pilih Sekolah</text>
  <rect x="60" y="100" width="1200" height="1" fill="#E2E8F0"/>

  <!-- column headers -->
  <g transform="translate(80, 130)">
    <rect width="380" height="38" rx="12" fill="#DBEAFE"/>
    <text x="20" y="24" font-weight="800" font-size="13" fill="#1E40AF">A — Radio list</text>
    <text x="180" y="24" font-size="11" fill="#1E40AF">classic, instantly familiar</text>
  </g>
  <g transform="translate(480, 130)">
    <rect width="380" height="38" rx="12" fill="#DCFCE7"/>
    <text x="20" y="24" font-weight="800" font-size="13" fill="#15803D">B — Tile-only (no trailing)</text>
    <text x="220" y="24" font-size="11" fill="#15803D">cleanest, premium feel</text>
  </g>
  <g transform="translate(880, 130)">
    <rect width="380" height="38" rx="12" fill="#FEF3C7"/>
    <text x="20" y="24" font-weight="800" font-size="13" fill="#B45309">C — Hero "Saat ini" + options</text>
    <text x="240" y="24" font-size="11" fill="#B45309">richest context</text>
  </g>

  <!-- ============================================================== -->
  <!-- VARIANT A — RADIO LIST (left column)                          -->
  <!-- ============================================================== -->
  <g transform="translate(80, 190)" filter="url(#phoneShadow)">
    <rect width="380" height="540" rx="36" fill="white"/>
    <rect width="380" height="540" rx="36" fill="none" stroke="#E2E8F0" stroke-width="1"/>

    <!-- dimmed peek -->
    <rect x="0" y="36" width="380" height="80" fill="#F1F5F9"/>
    <rect x="0" y="36" width="380" height="80" fill="#0F172A" opacity="0.45"/>

    <!-- sheet -->
    <g filter="url(#sheetShadow)">
      <path d="M 0 136 L 0 540 L 380 540 L 380 136 Q 380 116 360 116 L 20 116 Q 0 116 0 136 Z" fill="white"/>
    </g>
    <rect x="170" y="130" width="40" height="4" rx="2" fill="#CBD5E1"/>

    <!-- header -->
    <g transform="translate(20, 152)">
      <rect width="40" height="40" rx="13" fill="#21AFE6" opacity="0.12"/>
      <g transform="translate(10, 10)" fill="none" stroke="#1A8FBE" stroke-width="2.2" stroke-linecap="round" stroke-linejoin="round">
        <path d="M3 6 L17 6 M14 3 L17 6 L14 9"/>
        <path d="M17 14 L3 14 M6 11 L3 14 L6 17"/>
      </g>
      <text x="52" y="18" font-weight="800" font-size="16" fill="#0F172A">Pilih Peran</text>
      <text x="52" y="34" font-size="11" fill="#64748B">Akun terdaftar di 3 peran</text>
    </g>

    <rect x="20" y="208" width="340" height="1" fill="#F1F5F9"/>

    <!-- ROW 1 admin (selected) -->
    <g transform="translate(20, 224)">
      <rect width="340" height="64" rx="14" fill="white"/>
      <rect width="340" height="64" rx="14" fill="none" stroke="#143068" stroke-width="1.5"/>
      <rect x="12" y="12" width="40" height="40" rx="13" fill="url(#adminGrad)"/>
      <g transform="translate(23, 23)" fill="none" stroke="white" stroke-width="2" stroke-linecap="round" stroke-linejoin="round">
        <path d="M9 1 L1 4 V11 C1 14 4 17 9 19 C14 17 17 14 17 11 V4 Z M7 9 L9 11 L13 7"/>
      </g>
      <text x="64" y="28" font-weight="800" font-size="13.5" fill="#0F172A">Administrator</text>
      <text x="64" y="46" font-size="10.5" fill="#64748B">Kelola sekolah, guru, dan siswa</text>
      <!-- radio FILLED -->
      <circle cx="316" cy="32" r="11" fill="none" stroke="#143068" stroke-width="2"/>
      <circle cx="316" cy="32" r="6" fill="#143068"/>
    </g>

    <!-- ROW 2 guru -->
    <g transform="translate(20, 296)">
      <rect width="340" height="64" rx="14" fill="white"/>
      <rect width="340" height="64" rx="14" fill="none" stroke="#E2E8F0" stroke-width="1"/>
      <rect x="12" y="12" width="40" height="40" rx="13" fill="url(#guruGrad)"/>
      <g transform="translate(24, 23)" fill="none" stroke="white" stroke-width="2" stroke-linecap="round" stroke-linejoin="round">
        <circle cx="8" cy="5" r="3.5"/>
        <path d="M2 18 C2 13 5 11 8 11 C11 11 14 13 14 18"/>
      </g>
      <text x="64" y="28" font-weight="800" font-size="13.5" fill="#0F172A">Guru</text>
      <text x="64" y="46" font-size="10.5" fill="#64748B">Mengajar dan mengelola kelas</text>
      <!-- radio EMPTY -->
      <circle cx="316" cy="32" r="11" fill="none" stroke="#CBD5E1" stroke-width="2"/>
    </g>

    <!-- ROW 3 wali -->
    <g transform="translate(20, 368)">
      <rect width="340" height="64" rx="14" fill="white"/>
      <rect width="340" height="64" rx="14" fill="none" stroke="#E2E8F0" stroke-width="1"/>
      <rect x="12" y="12" width="40" height="40" rx="13" fill="url(#waliGrad)"/>
      <g transform="translate(23, 22)" fill="none" stroke="white" stroke-width="2" stroke-linecap="round" stroke-linejoin="round">
        <circle cx="8" cy="5" r="3"/>
        <circle cx="14" cy="7" r="2.5"/>
        <path d="M2 18 C2 14 4 12 8 12 C11 12 13 14 13 18"/>
      </g>
      <text x="64" y="28" font-weight="800" font-size="13.5" fill="#0F172A">Wali Murid</text>
      <text x="64" y="46" font-size="10.5" fill="#64748B">Pantau perkembangan anak</text>
      <circle cx="316" cy="32" r="11" fill="none" stroke="#CBD5E1" stroke-width="2"/>
    </g>

    <!-- footer hint -->
    <text x="190" y="490" text-anchor="middle" font-size="10" fill="#94A3B8">Tarik ke bawah untuk menutup</text>
  </g>

  <!-- ============================================================== -->
  <!-- VARIANT B — TILE ONLY, NO TRAILING (middle column)             -->
  <!-- ============================================================== -->
  <g transform="translate(480, 190)" filter="url(#phoneShadow)">
    <rect width="380" height="540" rx="36" fill="white"/>
    <rect width="380" height="540" rx="36" fill="none" stroke="#E2E8F0" stroke-width="1"/>

    <rect x="0" y="36" width="380" height="80" fill="#F1F5F9"/>
    <rect x="0" y="36" width="380" height="80" fill="#0F172A" opacity="0.45"/>

    <g filter="url(#sheetShadow)">
      <path d="M 0 136 L 0 540 L 380 540 L 380 136 Q 380 116 360 116 L 20 116 Q 0 116 0 136 Z" fill="white"/>
    </g>
    <rect x="170" y="130" width="40" height="4" rx="2" fill="#CBD5E1"/>

    <g transform="translate(20, 152)">
      <rect width="40" height="40" rx="13" fill="#21AFE6" opacity="0.12"/>
      <g transform="translate(10, 10)" fill="none" stroke="#1A8FBE" stroke-width="2.2" stroke-linecap="round" stroke-linejoin="round">
        <path d="M3 6 L17 6 M14 3 L17 6 L14 9"/>
        <path d="M17 14 L3 14 M6 11 L3 14 L6 17"/>
      </g>
      <text x="52" y="18" font-weight="800" font-size="16" fill="#0F172A">Pilih Peran</text>
      <text x="52" y="34" font-size="11" fill="#64748B">Akun terdaftar di 3 peran</text>
    </g>

    <rect x="20" y="208" width="340" height="1" fill="#F1F5F9"/>

    <!-- ROW 1 admin (selected) — rich tinted card with avatar overlay check -->
    <g transform="translate(20, 224)">
      <rect width="340" height="78" rx="16" fill="#143068" opacity="0.06"/>
      <rect width="340" height="78" rx="16" fill="none" stroke="#143068" stroke-width="1.5"/>
      <rect x="14" y="14" width="50" height="50" rx="16" fill="url(#adminGrad)"/>
      <g transform="translate(28, 27)" fill="none" stroke="white" stroke-width="2.2" stroke-linecap="round" stroke-linejoin="round">
        <path d="M11 1 L1 5 V13 C1 17 5 21 11 23 C17 21 21 17 21 13 V5 Z M8 11 L11 14 L15 9"/>
      </g>
      <!-- check disc OVERLAY on avatar corner -->
      <g transform="translate(54, 50)" filter="url(#checkShadow)">
        <circle cx="9" cy="9" r="9" fill="white"/>
        <circle cx="9" cy="9" r="7" fill="#143068"/>
        <path d="M5 9 L8 12 L13 7" fill="none" stroke="white" stroke-width="2" stroke-linecap="round" stroke-linejoin="round"/>
      </g>
      <text x="78" y="34" font-weight="800" font-size="14" fill="#0F172A">Administrator</text>
      <text x="78" y="52" font-size="11.5" fill="#64748B">Kelola sekolah, guru, dan siswa</text>
      <!-- inline AKTIF chip -->
      <rect x="78" y="58" width="40" height="14" rx="7" fill="#143068"/>
      <text x="83" y="68" font-size="9" font-weight="800" fill="white">AKTIF</text>
    </g>

    <!-- ROW 2 guru -->
    <g transform="translate(20, 312)">
      <rect width="340" height="74" rx="16" fill="white"/>
      <rect width="340" height="74" rx="16" fill="none" stroke="#E2E8F0" stroke-width="1"/>
      <rect x="14" y="12" width="50" height="50" rx="16" fill="url(#guruGrad)"/>
      <g transform="translate(28, 25)" fill="none" stroke="white" stroke-width="2.2" stroke-linecap="round" stroke-linejoin="round">
        <circle cx="11" cy="6" r="4"/>
        <path d="M3 22 C3 16 7 13 11 13 C15 13 19 16 19 22"/>
      </g>
      <text x="78" y="32" font-weight="800" font-size="14" fill="#0F172A">Guru</text>
      <text x="78" y="50" font-size="11.5" fill="#64748B">Mengajar dan mengelola kelas</text>
    </g>

    <!-- ROW 3 wali -->
    <g transform="translate(20, 396)">
      <rect width="340" height="74" rx="16" fill="white"/>
      <rect width="340" height="74" rx="16" fill="none" stroke="#E2E8F0" stroke-width="1"/>
      <rect x="14" y="12" width="50" height="50" rx="16" fill="url(#waliGrad)"/>
      <g transform="translate(27, 24)" fill="none" stroke="white" stroke-width="2.2" stroke-linecap="round" stroke-linejoin="round">
        <circle cx="9" cy="6" r="3.5"/>
        <circle cx="17" cy="9" r="3"/>
        <path d="M2 22 C2 17 5 14 9 14 C13 14 16 17 16 22"/>
        <path d="M14 22 C14 19 16 16 19 16 C22 16 24 19 24 22"/>
      </g>
      <text x="78" y="32" font-weight="800" font-size="14" fill="#0F172A">Wali Murid</text>
      <text x="78" y="50" font-size="11.5" fill="#64748B">Pantau perkembangan anak</text>
    </g>

    <text x="190" y="500" text-anchor="middle" font-size="10" fill="#94A3B8">Tarik ke bawah untuk menutup</text>
  </g>

  <!-- ============================================================== -->
  <!-- VARIANT C — HERO + OPTIONS (right column)                     -->
  <!-- ============================================================== -->
  <g transform="translate(880, 190)" filter="url(#phoneShadow)">
    <rect width="380" height="540" rx="36" fill="white"/>
    <rect width="380" height="540" rx="36" fill="none" stroke="#E2E8F0" stroke-width="1"/>

    <rect x="0" y="36" width="380" height="80" fill="#F1F5F9"/>
    <rect x="0" y="36" width="380" height="80" fill="#0F172A" opacity="0.45"/>

    <g filter="url(#sheetShadow)">
      <path d="M 0 136 L 0 540 L 380 540 L 380 136 Q 380 116 360 116 L 20 116 Q 0 116 0 136 Z" fill="white"/>
    </g>
    <rect x="170" y="130" width="40" height="4" rx="2" fill="#CBD5E1"/>

    <g transform="translate(20, 152)">
      <rect width="40" height="40" rx="13" fill="#21AFE6" opacity="0.12"/>
      <g transform="translate(10, 10)" fill="none" stroke="#1A8FBE" stroke-width="2.2" stroke-linecap="round" stroke-linejoin="round">
        <path d="M3 6 L17 6 M14 3 L17 6 L14 9"/>
        <path d="M17 14 L3 14 M6 11 L3 14 L6 17"/>
      </g>
      <text x="52" y="18" font-weight="800" font-size="16" fill="#0F172A">Pilih Peran</text>
      <text x="52" y="34" font-size="11" fill="#64748B">Akun terdaftar di 3 peran</text>
    </g>

    <!-- "Saat ini" hero card — admin, gradient bg, white text -->
    <g transform="translate(20, 208)">
      <rect width="340" height="92" rx="18" fill="url(#adminHeroFlat)"/>
      <text x="16" y="22" font-size="9.5" font-weight="800" fill="white" opacity="0.7" letter-spacing="0.6">SAAT INI</text>
      <rect x="16" y="32" width="50" height="50" rx="16" fill="white" opacity="0.15"/>
      <g transform="translate(30, 45)" fill="none" stroke="white" stroke-width="2.2" stroke-linecap="round" stroke-linejoin="round">
        <path d="M11 1 L1 5 V13 C1 17 5 21 11 23 C17 21 21 17 21 13 V5 Z M8 11 L11 14 L15 9"/>
      </g>
      <text x="80" y="52" font-weight="800" font-size="15" fill="white">Administrator</text>
      <text x="80" y="70" font-size="11" fill="white" opacity="0.8">Kelola sekolah, guru, dan siswa</text>
      <!-- AKTIF chip -->
      <rect x="280" y="14" width="44" height="18" rx="9" fill="white" opacity="0.22"/>
      <text x="286" y="26" font-size="9.5" font-weight="800" fill="white">AKTIF</text>
    </g>

    <!-- "Ganti ke" section header -->
    <text x="32" y="332" font-size="9.5" font-weight="800" fill="#94A3B8" letter-spacing="0.6">GANTI KE</text>

    <!-- Option Guru -->
    <g transform="translate(20, 344)">
      <rect width="340" height="56" rx="14" fill="white"/>
      <rect width="340" height="56" rx="14" fill="none" stroke="#E2E8F0" stroke-width="1"/>
      <rect x="10" y="10" width="36" height="36" rx="12" fill="url(#guruGrad)"/>
      <g transform="translate(20, 19)" fill="none" stroke="white" stroke-width="1.8" stroke-linecap="round" stroke-linejoin="round">
        <circle cx="8" cy="5" r="3.5"/>
        <path d="M2 17 C2 12 5 10 8 10 C11 10 14 12 14 17"/>
      </g>
      <text x="58" y="24" font-weight="800" font-size="13" fill="#0F172A">Guru</text>
      <text x="58" y="40" font-size="10.5" fill="#64748B">Mengajar dan mengelola kelas</text>
    </g>

    <!-- Option Wali -->
    <g transform="translate(20, 408)">
      <rect width="340" height="56" rx="14" fill="white"/>
      <rect width="340" height="56" rx="14" fill="none" stroke="#E2E8F0" stroke-width="1"/>
      <rect x="10" y="10" width="36" height="36" rx="12" fill="url(#waliGrad)"/>
      <g transform="translate(19, 18)" fill="none" stroke="white" stroke-width="1.8" stroke-linecap="round" stroke-linejoin="round">
        <circle cx="7" cy="5" r="3"/>
        <circle cx="13" cy="7" r="2.5"/>
        <path d="M1 17 C1 13 3 11 7 11 C10 11 12 13 12 17"/>
      </g>
      <text x="58" y="24" font-weight="800" font-size="13" fill="#0F172A">Wali Murid</text>
      <text x="58" y="40" font-size="10.5" fill="#64748B">Pantau perkembangan anak</text>
    </g>

    <text x="190" y="494" text-anchor="middle" font-size="10" fill="#94A3B8">Tarik ke bawah untuk menutup</text>
  </g>

  <!-- ============================================================== -->
  <!-- ROW 2 — same variants applied to PILIH SEKOLAH                 -->
  <!-- ============================================================== -->

  <!-- A · Sekolah -->
  <g transform="translate(80, 760)" filter="url(#phoneShadow)">
    <rect width="380" height="540" rx="36" fill="white"/>
    <rect width="380" height="540" rx="36" fill="none" stroke="#E2E8F0" stroke-width="1"/>

    <rect x="0" y="36" width="380" height="80" fill="#F1F5F9"/>
    <rect x="0" y="36" width="380" height="80" fill="#0F172A" opacity="0.45"/>

    <g filter="url(#sheetShadow)">
      <path d="M 0 136 L 0 540 L 380 540 L 380 136 Q 380 116 360 116 L 20 116 Q 0 116 0 136 Z" fill="white"/>
    </g>
    <rect x="170" y="130" width="40" height="4" rx="2" fill="#CBD5E1"/>

    <g transform="translate(20, 152)">
      <rect width="40" height="40" rx="13" fill="#21AFE6" opacity="0.12"/>
      <g transform="translate(9, 9)" fill="none" stroke="#1A8FBE" stroke-width="2" stroke-linecap="round" stroke-linejoin="round">
        <path d="M11 2 L21 7 L11 12 L1 7 Z"/>
        <path d="M5 10 V16 C5 18 8 19 11 19 C14 19 17 18 17 16 V10"/>
      </g>
      <text x="52" y="18" font-weight="800" font-size="16" fill="#0F172A">Pilih Sekolah</text>
      <text x="52" y="34" font-size="11" fill="#64748B">Terhubung ke 2 sekolah</text>
    </g>

    <rect x="20" y="208" width="340" height="1" fill="#F1F5F9"/>

    <!-- school 1 selected radio -->
    <g transform="translate(20, 224)">
      <rect width="340" height="64" rx="14" fill="white"/>
      <rect width="340" height="64" rx="14" fill="none" stroke="#21AFE6" stroke-width="1.5"/>
      <rect x="12" y="12" width="40" height="40" rx="13" fill="url(#brandHero)"/>
      <text x="32" y="38" text-anchor="middle" font-weight="800" font-size="13" fill="white">KA</text>
      <text x="64" y="28" font-weight="800" font-size="13.5" fill="#0F172A">SMP Kamil Edu A</text>
      <text x="64" y="46" font-size="10.5" fill="#64748B">Jl. Mawar No. 12 · Bandung</text>
      <circle cx="316" cy="32" r="11" fill="none" stroke="#1A8FBE" stroke-width="2"/>
      <circle cx="316" cy="32" r="6" fill="#1A8FBE"/>
    </g>

    <!-- school 2 -->
    <g transform="translate(20, 296)">
      <rect width="340" height="64" rx="14" fill="white"/>
      <rect width="340" height="64" rx="14" fill="none" stroke="#E2E8F0" stroke-width="1"/>
      <rect x="12" y="12" width="40" height="40" rx="13" fill="#94A3B8"/>
      <text x="32" y="38" text-anchor="middle" font-weight="800" font-size="13" fill="white">KB</text>
      <text x="64" y="28" font-weight="800" font-size="13.5" fill="#0F172A">SMP Kamil Edu B</text>
      <text x="64" y="46" font-size="10.5" fill="#64748B">Jl. Melati No. 7 · Bandung</text>
      <circle cx="316" cy="32" r="11" fill="none" stroke="#CBD5E1" stroke-width="2"/>
    </g>

    <text x="190" y="490" text-anchor="middle" font-size="10" fill="#94A3B8">Tarik ke bawah untuk menutup</text>
  </g>

  <!-- B · Sekolah -->
  <g transform="translate(480, 760)" filter="url(#phoneShadow)">
    <rect width="380" height="540" rx="36" fill="white"/>
    <rect width="380" height="540" rx="36" fill="none" stroke="#E2E8F0" stroke-width="1"/>

    <rect x="0" y="36" width="380" height="80" fill="#F1F5F9"/>
    <rect x="0" y="36" width="380" height="80" fill="#0F172A" opacity="0.45"/>

    <g filter="url(#sheetShadow)">
      <path d="M 0 136 L 0 540 L 380 540 L 380 136 Q 380 116 360 116 L 20 116 Q 0 116 0 136 Z" fill="white"/>
    </g>
    <rect x="170" y="130" width="40" height="4" rx="2" fill="#CBD5E1"/>

    <g transform="translate(20, 152)">
      <rect width="40" height="40" rx="13" fill="#21AFE6" opacity="0.12"/>
      <g transform="translate(9, 9)" fill="none" stroke="#1A8FBE" stroke-width="2" stroke-linecap="round" stroke-linejoin="round">
        <path d="M11 2 L21 7 L11 12 L1 7 Z"/>
        <path d="M5 10 V16 C5 18 8 19 11 19 C14 19 17 18 17 16 V10"/>
      </g>
      <text x="52" y="18" font-weight="800" font-size="16" fill="#0F172A">Pilih Sekolah</text>
      <text x="52" y="34" font-size="11" fill="#64748B">Terhubung ke 2 sekolah</text>
    </g>

    <rect x="20" y="208" width="340" height="1" fill="#F1F5F9"/>

    <!-- school 1 selected, no trailing -->
    <g transform="translate(20, 224)">
      <rect width="340" height="78" rx="16" fill="#21AFE6" opacity="0.06"/>
      <rect width="340" height="78" rx="16" fill="none" stroke="#21AFE6" stroke-width="1.5"/>
      <rect x="14" y="14" width="50" height="50" rx="16" fill="url(#brandHero)"/>
      <text x="39" y="46" text-anchor="middle" font-weight="800" font-size="16" fill="white">KA</text>
      <!-- corner check -->
      <g transform="translate(54, 50)" filter="url(#checkShadow)">
        <circle cx="9" cy="9" r="9" fill="white"/>
        <circle cx="9" cy="9" r="7" fill="#1A8FBE"/>
        <path d="M5 9 L8 12 L13 7" fill="none" stroke="white" stroke-width="2" stroke-linecap="round" stroke-linejoin="round"/>
      </g>
      <text x="78" y="32" font-weight="800" font-size="14" fill="#0F172A">SMP Kamil Edu A</text>
      <text x="78" y="50" font-size="11" fill="#64748B">Jl. Mawar No. 12 · Bandung</text>
      <rect x="78" y="58" width="40" height="16" rx="6" fill="#DCFCE7"/>
      <text x="98" y="69" text-anchor="middle" font-size="9" font-weight="800" fill="#15803D">AKTIF</text>
    </g>

    <!-- school 2 -->
    <g transform="translate(20, 312)">
      <rect width="340" height="74" rx="16" fill="white"/>
      <rect width="340" height="74" rx="16" fill="none" stroke="#E2E8F0" stroke-width="1"/>
      <rect x="14" y="12" width="50" height="50" rx="16" fill="#94A3B8"/>
      <text x="39" y="44" text-anchor="middle" font-weight="800" font-size="16" fill="white">KB</text>
      <text x="78" y="32" font-weight="800" font-size="14" fill="#0F172A">SMP Kamil Edu B</text>
      <text x="78" y="50" font-size="11" fill="#64748B">Jl. Melati No. 7 · Bandung</text>
    </g>

    <text x="190" y="500" text-anchor="middle" font-size="10" fill="#94A3B8">Tarik ke bawah untuk menutup</text>
  </g>

  <!-- C · Sekolah -->
  <g transform="translate(880, 760)" filter="url(#phoneShadow)">
    <rect width="380" height="540" rx="36" fill="white"/>
    <rect width="380" height="540" rx="36" fill="none" stroke="#E2E8F0" stroke-width="1"/>

    <rect x="0" y="36" width="380" height="80" fill="#F1F5F9"/>
    <rect x="0" y="36" width="380" height="80" fill="#0F172A" opacity="0.45"/>

    <g filter="url(#sheetShadow)">
      <path d="M 0 136 L 0 540 L 380 540 L 380 136 Q 380 116 360 116 L 20 116 Q 0 116 0 136 Z" fill="white"/>
    </g>
    <rect x="170" y="130" width="40" height="4" rx="2" fill="#CBD5E1"/>

    <g transform="translate(20, 152)">
      <rect width="40" height="40" rx="13" fill="#21AFE6" opacity="0.12"/>
      <g transform="translate(9, 9)" fill="none" stroke="#1A8FBE" stroke-width="2" stroke-linecap="round" stroke-linejoin="round">
        <path d="M11 2 L21 7 L11 12 L1 7 Z"/>
        <path d="M5 10 V16 C5 18 8 19 11 19 C14 19 17 18 17 16 V10"/>
      </g>
      <text x="52" y="18" font-weight="800" font-size="16" fill="#0F172A">Pilih Sekolah</text>
      <text x="52" y="34" font-size="11" fill="#64748B">Terhubung ke 2 sekolah</text>
    </g>

    <!-- Hero "Saat ini" -->
    <g transform="translate(20, 208)">
      <rect width="340" height="92" rx="18" fill="url(#brandHero)"/>
      <text x="16" y="22" font-size="9.5" font-weight="800" fill="white" opacity="0.7" letter-spacing="0.6">SAAT INI</text>
      <rect x="16" y="32" width="50" height="50" rx="16" fill="white" opacity="0.18"/>
      <text x="41" y="64" text-anchor="middle" font-weight="800" font-size="16" fill="white">KA</text>
      <text x="80" y="52" font-weight="800" font-size="15" fill="white">SMP Kamil Edu A</text>
      <text x="80" y="70" font-size="11" fill="white" opacity="0.85">Jl. Mawar No. 12 · Bandung</text>
      <rect x="280" y="14" width="44" height="18" rx="9" fill="white" opacity="0.22"/>
      <text x="286" y="26" font-size="9.5" font-weight="800" fill="white">AKTIF</text>
    </g>

    <text x="32" y="332" font-size="9.5" font-weight="800" fill="#94A3B8" letter-spacing="0.6">GANTI KE</text>

    <g transform="translate(20, 344)">
      <rect width="340" height="56" rx="14" fill="white"/>
      <rect width="340" height="56" rx="14" fill="none" stroke="#E2E8F0" stroke-width="1"/>
      <rect x="10" y="10" width="36" height="36" rx="12" fill="#94A3B8"/>
      <text x="28" y="33" text-anchor="middle" font-weight="800" font-size="12" fill="white">KB</text>
      <text x="58" y="24" font-weight="800" font-size="13" fill="#0F172A">SMP Kamil Edu B</text>
      <text x="58" y="40" font-size="10.5" fill="#64748B">Jl. Melati No. 7 · Bandung</text>
    </g>

    <text x="190" y="494" text-anchor="middle" font-size="10" fill="#94A3B8">Tarik ke bawah untuk menutup</text>
  </g>

  <!-- ============================================================== -->
  <!-- COMPARISON STRIP                                               -->
  <!-- ============================================================== -->
  <g transform="translate(80, 1330)">
    <text x="0" y="-20" font-weight="800" font-size="14" fill="#0F172A">Tradeoffs</text>
  </g>

  <g transform="translate(80, 1320)">
    <rect width="380" height="0" />
  </g>

  <!-- recommendation block at bottom -->
  <g transform="translate(80, 1320)" filter="url(#cardShadow)">
    <rect width="1180" height="0" />
  </g>
</svg>
